<?xml version="1.0" encoding="UTF-8"?>
<svg width="800px" height="800px" viewBox="0 0 800 800" version="1.1" xmlns="http://www.w3.org/2000/svg" xmlns:xlink="http://www.w3.org/1999/xlink">
    <!-- Generator: Sketch 50.2 (55047) - http://www.bohemiancoding.com/sketch -->
    <title>Icon-No Padding-Rounded</title>
    <desc>Created with Sketch.</desc>
    <defs>
        <rect id="path-1" x="0" y="0" width="800" height="800" rx="100"></rect>
        <rect id="path-3" x="0" y="0" width="800" height="800"></rect>
    </defs>
    <g id="Icon-No-Padding-Rounded" stroke="none" stroke-width="1" fill="none" fill-rule="evenodd">
        <g id="Glyph-Copy">
            <mask id="mask-2" fill="white">
                <use xlink:href="#path-1"></use>
            </mask>
            <use id="Mask" fill="#6F6F6F" xlink:href="#path-1"></use>
            <g mask="url(#mask-2)">
                <mask id="mask-4" fill="white">
                    <use xlink:href="#path-3"></use>
                </mask>
                <g id="Mask"></g>
                <g id="Glyph" mask="url(#mask-4)">
                    <g transform="translate(-21.000000, -31.000000)">
                        <path d="M385.410029,218.066017 L950.722005,218.066017 L950.722005,818.066017 L385.410029,818.066017 C219.724605,818.066017 85.4100295,683.751442 85.4100295,518.066017 L85.4100295,518.066017 C85.4100295,352.380592 219.724605,218.066017 385.410029,218.066017 Z" id="Rectangle" stroke="none" fill="#000000" fill-rule="evenodd" opacity="0.5" transform="translate(518.066017, 518.066017) rotate(45.000000) translate(-518.066017, -518.066017) "></path>
                        <path d="M588.933461,652.766072 L604.013522,667.846133 L604.606983,640.585062 C607.330548,638.311083 610.01538,635.982833 612.65995,633.601114 L604.763512,633.394782 L605.019668,621.628027 C600.696712,625.59009 596.258759,629.39998 591.713173,633.053779 L568.617687,632.450298 L578.903573,642.736184 C534.190351,674.481145 480.492043,692 424,692 C275.987687,692 156,572.012313 156,424 C156,275.987687 275.987687,156 424,156 C484.261066,156 541.313516,175.947622 587.612408,211.710535 L576.429937,222.893006 L601.018803,222.774742 C604.752755,226.064136 608.404265,229.463986 611.968754,232.971782 L611.927674,222.722274 L621.466068,222.676397 C618.33761,219.607554 615.14515,216.617406 611.891543,213.707507 L611.786648,187.536295 L597.586585,201.736358 C548.620389,163.427742 487.971652,142 424,142 C268.255701,142 142,268.255701 142,424 C142,579.744299 268.255701,706 424,706 C484.189252,706 541.487199,687.040616 588.933461,652.766072 Z" id="Outlined-C" stroke="#FF324A" stroke-width="64" fill="none"></path>
                        <path d="M526.195959,432.622366 L534.681241,424.137085 L531.852814,421.308658 L523.367532,429.793939 L495.083261,401.509668 L503.568542,393.024387 L500.740115,390.195959 L492.254834,398.681241 L463.970563,370.39697 L472.455844,361.911688 L469.627417,359.083261 L461.142136,367.568542 L432.857864,339.284271 L461.142136,311 L582.764502,432.622366 L554.480231,460.906638 L526.195959,432.622366 Z M435.977705,313.426407 L407.693434,285.142136 L421.83557,271 L450.119841,299.284271 L435.977705,313.426407 Z M430.320851,319.083261 L320.012193,429.391919 L291.727922,401.107648 L402.03658,290.79899 L430.320851,319.083261 Z M421.857864,397 C432.903559,397 441.857864,405.954305 441.857864,417 L441.857864,557 C441.857864,568.045695 432.903559,577 421.857864,577 C410.812169,577 401.857864,568.045695 401.857864,557 L401.857864,417 C401.857864,405.954305 410.812169,397 421.857864,397 Z M279,442.119841 L286.071068,406.764502 L314.355339,435.048773 L279,442.119841 Z" id="Arrow" stroke="none" fill="#FFFFFF" fill-rule="evenodd"></path>
                    </g>
                </g>
            </g>
        </g>
    </g>
</svg>