<?xml version="1.0" encoding="UTF-8" standalone="no"?>
<!-- Created with Inkscape (http://www.inkscape.org/) -->

<svg
   xmlns:dc="http://purl.org/dc/elements/1.1/"
   xmlns:cc="http://creativecommons.org/ns#"
   xmlns:rdf="http://www.w3.org/1999/02/22-rdf-syntax-ns#"
   xmlns:svg="http://www.w3.org/2000/svg"
   xmlns="http://www.w3.org/2000/svg"
   xmlns:sodipodi="http://sodipodi.sourceforge.net/DTD/sodipodi-0.dtd"
   xmlns:inkscape="http://www.inkscape.org/namespaces/inkscape"
   width="456.46375"
   height="355.3681"
   viewBox="0 0 120.77269 94.024476"
   version="1.1"
   id="svg8"
   inkscape:version="0.92.2 2405546, 2018-03-11"
   sodipodi:docname="companies.svg">
  <defs
     id="defs2">
    <inkscape:perspective
       sodipodi:type="inkscape:persp3d"
       inkscape:vp_x="0 : 92.604165 : 1"
       inkscape:vp_y="0 : 1000 : 0"
       inkscape:vp_z="132.29166 : 92.604165 : 1"
       inkscape:persp3d-origin="66.145828 : 61.73611 : 1"
       id="perspective4625" />
  </defs>
  <sodipodi:namedview
     id="base"
     pagecolor="#ffffff"
     bordercolor="#666666"
     borderopacity="1.0"
     inkscape:pageopacity="0.0"
     inkscape:pageshadow="2"
     inkscape:zoom="1.4"
     inkscape:cx="168.28264"
     inkscape:cy="178.68798"
     inkscape:document-units="mm"
     inkscape:current-layer="layer1"
     showgrid="false"
     units="px"
     fit-margin-top="5"
     fit-margin-right="5"
     fit-margin-left="5"
     fit-margin-bottom="5"
     inkscape:window-width="2134"
     inkscape:window-height="1180"
     inkscape:window-x="108"
     inkscape:window-y="135"
     inkscape:window-maximized="0" />
  <metadata
     id="metadata5">
    <rdf:RDF>
      <cc:Work
         rdf:about="">
        <dc:format>image/svg+xml</dc:format>
        <dc:type
           rdf:resource="http://purl.org/dc/dcmitype/StillImage" />
        <dc:title></dc:title>
      </cc:Work>
    </rdf:RDF>
  </metadata>
  <g
     inkscape:label="Layer 1"
     inkscape:groupmode="layer"
     id="layer1"
     transform="translate(-6.5964964,-121.84893)">
    <flowRoot
       xml:space="preserve"
       id="flowRoot4518"
       style="font-style:normal;font-weight:normal;font-size:40px;line-height:1.25;font-family:sans-serif;letter-spacing:0px;word-spacing:0px;fill:#000000;fill-opacity:1;stroke:none"
       transform="matrix(0.26458333,0,0,0.26458333,0,280.06667)"><flowRegion
         id="flowRegion4520"><rect
           id="rect4522"
           width="71.720833"
           height="45.961941"
           x="16.920055"
           y="7.1789193" /></flowRegion><flowPara
         id="flowPara4524"></flowPara></flowRoot>    <g
       id="g4822">
      <path
         id="rect4770"
         d="M 7.9194131,123.17185 H 65.924658 v 29.78888 H 7.9194131 Z"
         style="opacity:1;fill:#000000;fill-opacity:1;stroke:none;stroke-width:17.15399933;stroke-miterlimit:4;stroke-dasharray:none;stroke-opacity:1"
         inkscape:connector-curvature="0" />
      <path
         id="rect4534"
         d="m 68.041245,184.86688 h 58.004995 v 29.68361 H 68.041245 Z"
         style="opacity:1;fill:#009cff;fill-opacity:1;stroke:none;stroke-width:42.78816605;stroke-miterlimit:4;stroke-dasharray:none;stroke-opacity:1"
         inkscape:connector-curvature="0" />
      <g
         id="text4528"
         style="font-style:normal;font-variant:normal;font-weight:normal;font-stretch:normal;font-size:12.44500065px;line-height:1.25;font-family:Abel;-inkscape-font-specification:Abel;letter-spacing:0px;word-spacing:0px;fill:#ffffff;fill-opacity:1;stroke:none;stroke-width:0.38890627"
         transform="scale(0.99260511,1.00745)"
         aria-label="Facebook">
        <path
           id="path4720"
           style="font-style:normal;font-variant:normal;font-weight:bold;font-stretch:normal;font-size:12.44500065px;line-height:1.25em;font-family:Abel;-inkscape-font-specification:'Abel Bold';fill:#ffffff;stroke-width:0.38890627"
           d="m 72.107114,201.38817 v 3.23886 h 3.336087 v 0.74743 h -3.336087 v 3.98022 h -0.783889 v -8.71394 h 4.903865 v 0.74743 z"
           inkscape:connector-curvature="0" />
        <path
           id="path4722"
           style="font-style:normal;font-variant:normal;font-weight:bold;font-stretch:normal;font-size:12.44500065px;line-height:1.25em;font-family:Abel;-inkscape-font-specification:'Abel Bold';fill:#ffffff;stroke-width:0.38890627"
           d="m 81.130955,209.35468 -0.413213,-0.61982 q -0.25522,0.33421 -0.638049,0.54082 -0.38283,0.20053 -0.838579,0.20053 h -0.188377 q -0.376753,0 -0.710969,-0.13976 -0.334217,-0.14584 -0.58336,-0.39499 -0.249143,-0.24914 -0.394983,-0.58336 -0.139763,-0.33421 -0.139763,-0.71097 v -0.0608 q 0,-0.37676 0.139763,-0.71097 0.14584,-0.33422 0.394983,-0.58336 0.249143,-0.24914 0.58336,-0.38891 0.334216,-0.14584 0.710969,-0.14584 h 1.579932 v -0.96011 q 0,-0.22484 -0.08507,-0.41929 -0.08507,-0.20053 -0.230914,-0.34637 -0.145839,-0.14584 -0.346369,-0.23091 -0.194453,-0.0851 -0.41929,-0.0851 h -0.437519 q -0.224837,0 -0.425367,0.0851 -0.194453,0.0851 -0.340293,0.23091 -0.145839,0.14584 -0.230913,0.34637 -0.08507,0.19445 -0.08507,0.41929 v 0.22484 l -0.747429,-0.12154 v -0.0608 q 0,-0.37676 0.139763,-0.71097 0.14584,-0.33422 0.394983,-0.58336 0.249143,-0.24915 0.583359,-0.38891 0.334217,-0.14584 0.71097,-0.14584 h 0.437519 q 0.376753,0 0.710969,0.14584 0.334217,0.13976 0.58336,0.38891 0.249143,0.24914 0.388906,0.58336 0.14584,0.33421 0.14584,0.71097 v 4.51496 z m -0.498286,-3.01403 h -1.579932 q -0.224836,0 -0.425366,0.0851 -0.194453,0.0851 -0.340293,0.23699 -0.14584,0.14584 -0.230913,0.34637 -0.08507,0.19446 -0.08507,0.41929 v 0.2613 q 0,0.22484 0.08507,0.42537 0.08507,0.19445 0.230913,0.34029 0.14584,0.14584 0.340293,0.23091 0.20053,0.0851 0.425366,0.0851 h 0.498286 q 0.224837,0 0.41929,-0.0851 0.20053,-0.0851 0.346369,-0.23091 0.14584,-0.14584 0.230914,-0.34029 0.08507,-0.20053 0.08507,-0.42537 z"
           inkscape:connector-curvature="0" />
        <path
           id="path4724"
           style="font-style:normal;font-variant:normal;font-weight:bold;font-stretch:normal;font-size:12.44500065px;line-height:1.25em;font-family:Abel;-inkscape-font-specification:'Abel Bold';fill:#ffffff;stroke-width:0.38890627"
           d="m 87.043546,207.64713 q 0,0.37676 -0.14584,0.71097 -0.139763,0.33422 -0.388906,0.58336 -0.249143,0.24915 -0.58336,0.39499 -0.334216,0.13976 -0.710969,0.13976 h -0.498286 q -0.376753,0 -0.710969,-0.13976 -0.334217,-0.14584 -0.58336,-0.39499 -0.249143,-0.24914 -0.394983,-0.58336 -0.139763,-0.33421 -0.139763,-0.71097 v -2.80741 q 0,-0.37676 0.139763,-0.71097 0.14584,-0.33422 0.394983,-0.58336 0.249143,-0.24915 0.58336,-0.38891 0.334216,-0.14584 0.710969,-0.14584 h 0.498286 q 0.376753,0 0.710969,0.14584 0.334217,0.13976 0.58336,0.38891 0.249143,0.24914 0.388906,0.58336 0.14584,0.33421 0.14584,0.71097 v 0.24914 l -0.747429,0.12153 v -0.41321 q 0,-0.22484 -0.08507,-0.41929 -0.08507,-0.20053 -0.230913,-0.34637 -0.14584,-0.14584 -0.346369,-0.23091 -0.194454,-0.0851 -0.41929,-0.0851 h -0.498286 q -0.224837,0 -0.425366,0.0851 -0.194453,0.0851 -0.340293,0.23091 -0.14584,0.14584 -0.230913,0.34637 -0.08507,0.19445 -0.08507,0.41929 v 2.89249 q 0,0.22484 0.08507,0.42537 0.08507,0.19445 0.230913,0.34029 0.14584,0.14584 0.340293,0.23091 0.200529,0.0851 0.425366,0.0851 h 0.498286 q 0.224836,0 0.41929,-0.0851 0.200529,-0.0851 0.346369,-0.23091 0.14584,-0.14584 0.230913,-0.34029 0.08507,-0.20053 0.08507,-0.42537 v -0.41321 l 0.747429,0.12153 z"
           inkscape:connector-curvature="0" />
        <path
           id="path4726"
           style="font-style:normal;font-variant:normal;font-weight:bold;font-stretch:normal;font-size:12.44500065px;line-height:1.25em;font-family:Abel;-inkscape-font-specification:'Abel Bold';fill:#ffffff;stroke-width:0.38890627"
           d="m 92.706992,207.64713 q 0,0.37676 -0.14584,0.71097 -0.139763,0.33422 -0.388906,0.58336 -0.249143,0.24915 -0.583359,0.39499 -0.334217,0.13976 -0.71097,0.13976 h -0.498286 q -0.376753,0 -0.710969,-0.13976 -0.334216,-0.14584 -0.583359,-0.39499 -0.249143,-0.24914 -0.394983,-0.58336 -0.139763,-0.33421 -0.139763,-0.71097 v -2.80741 q 0,-0.37676 0.139763,-0.71097 0.14584,-0.33422 0.394983,-0.58336 0.249143,-0.24915 0.583359,-0.38891 0.334216,-0.14584 0.710969,-0.14584 h 0.498286 q 0.376753,0 0.71097,0.14584 0.334216,0.13976 0.583359,0.38891 0.249143,0.24914 0.388906,0.58336 0.14584,0.33421 0.14584,0.71097 v 1.46447 h -3.409006 v 1.38548 q 0,0.22484 0.08507,0.42537 0.08507,0.19445 0.230913,0.34029 0.14584,0.14584 0.340293,0.23091 0.20053,0.0851 0.425366,0.0851 h 0.498286 q 0.224837,0 0.41929,-0.0851 0.20053,-0.0851 0.34637,-0.23091 0.14584,-0.14584 0.230913,-0.34029 0.08507,-0.20053 0.08507,-0.42537 v -0.41321 l 0.747429,0.12153 v 0.24914 z m -0.747429,-2.84995 q 0,-0.22484 -0.08507,-0.41929 -0.08507,-0.20053 -0.230913,-0.34637 -0.14584,-0.14584 -0.34637,-0.23091 -0.194453,-0.0851 -0.41929,-0.0851 h -0.498286 q -0.224836,0 -0.425366,0.0851 -0.194453,0.0851 -0.340293,0.23091 -0.14584,0.14584 -0.230913,0.34637 -0.08507,0.19445 -0.08507,0.41929 v 0.92365 h 2.661577 z"
           inkscape:connector-curvature="0" />
        <path
           id="path4728"
           style="font-style:normal;font-variant:normal;font-weight:bold;font-stretch:normal;font-size:12.44500065px;line-height:1.25em;font-family:Abel;-inkscape-font-specification:'Abel Bold';fill:#ffffff;stroke-width:0.38890627"
           d="m 98.370441,207.64713 q 0,0.37676 -0.14584,0.71097 -0.139763,0.33422 -0.388906,0.58336 -0.249144,0.24915 -0.58336,0.39499 -0.334216,0.13976 -0.710969,0.13976 H 96.04308 q -0.376753,0 -0.71097,-0.13976 -0.334216,-0.14584 -0.583359,-0.39499 -0.249143,-0.24914 -0.394983,-0.58336 -0.139763,-0.33421 -0.139763,-0.71097 v -7.00639 h 0.747429 v 3.01403 q 0.25522,-0.30384 0.613743,-0.47398 0.358523,-0.17015 0.777812,-0.17015 h 0.188377 q 0.376753,0 0.710969,0.14584 0.334216,0.13976 0.58336,0.38891 0.249143,0.24914 0.388906,0.58336 0.14584,0.33421 0.14584,0.71097 z m -0.74743,-2.84995 q 0,-0.22484 -0.08507,-0.41929 -0.08507,-0.20053 -0.230913,-0.34637 -0.14584,-0.14584 -0.34637,-0.23091 -0.194453,-0.0851 -0.419289,-0.0851 H 96.04308 q -0.224837,0 -0.425367,0.0851 -0.194453,0.0851 -0.340293,0.23091 -0.145839,0.14584 -0.230913,0.34637 -0.08507,0.19445 -0.08507,0.41929 v 2.89249 q 0,0.22484 0.08507,0.42537 0.08507,0.19445 0.230913,0.34029 0.14584,0.14584 0.340293,0.23091 0.20053,0.0851 0.425367,0.0851 h 0.498286 q 0.224836,0 0.419289,-0.0851 0.20053,-0.0851 0.34637,-0.23091 0.14584,-0.14584 0.230913,-0.34029 0.08507,-0.20053 0.08507,-0.42537 z"
           inkscape:connector-curvature="0" />
        <path
           id="path4730"
           style="font-style:normal;font-variant:normal;font-weight:bold;font-stretch:normal;font-size:12.44500065px;line-height:1.25em;font-family:Abel;-inkscape-font-specification:'Abel Bold';fill:#ffffff;stroke-width:0.38890627"
           d="m 104.03389,207.64713 q 0,0.37676 -0.14584,0.71097 -0.13977,0.33422 -0.38891,0.58336 -0.24914,0.24915 -0.58336,0.39499 -0.33421,0.13976 -0.71097,0.13976 h -0.49828 q -0.37676,0 -0.71097,-0.13976 -0.33422,-0.14584 -0.58336,-0.39499 -0.24915,-0.24914 -0.39499,-0.58336 -0.139759,-0.33421 -0.139759,-0.71097 v -2.80741 q 0,-0.37676 0.139759,-0.71097 0.14584,-0.33422 0.39499,-0.58336 0.24914,-0.24915 0.58336,-0.38891 0.33421,-0.14584 0.71097,-0.14584 h 0.49828 q 0.37676,0 0.71097,0.14584 0.33422,0.13976 0.58336,0.38891 0.24914,0.24914 0.38891,0.58336 0.14584,0.33421 0.14584,0.71097 z m -0.74743,-2.84995 q 0,-0.22484 -0.0851,-0.41929 -0.0851,-0.20053 -0.23091,-0.34637 -0.14584,-0.14584 -0.34637,-0.23091 -0.19445,-0.0851 -0.41929,-0.0851 h -0.49828 q -0.22484,0 -0.42537,0.0851 -0.19445,0.0851 -0.34029,0.23091 -0.14584,0.14584 -0.23092,0.34637 -0.0851,0.19445 -0.0851,0.41929 v 2.89249 q 0,0.22484 0.0851,0.42537 0.0851,0.19445 0.23092,0.34029 0.14584,0.14584 0.34029,0.23091 0.20053,0.0851 0.42537,0.0851 h 0.49828 q 0.22484,0 0.41929,-0.0851 0.20053,-0.0851 0.34637,-0.23091 0.14584,-0.14584 0.23091,-0.34029 0.0851,-0.20053 0.0851,-0.42537 z"
           inkscape:connector-curvature="0" />
        <path
           id="path4732"
           style="font-style:normal;font-variant:normal;font-weight:bold;font-stretch:normal;font-size:12.44500065px;line-height:1.25em;font-family:Abel;-inkscape-font-specification:'Abel Bold';fill:#ffffff;stroke-width:0.38890627"
           d="m 109.69733,207.64713 q 0,0.37676 -0.14584,0.71097 -0.13976,0.33422 -0.3889,0.58336 -0.24915,0.24915 -0.58336,0.39499 -0.33422,0.13976 -0.71097,0.13976 h -0.49829 q -0.37675,0 -0.71097,-0.13976 -0.33421,-0.14584 -0.58336,-0.39499 -0.24914,-0.24914 -0.39498,-0.58336 -0.13976,-0.33421 -0.13976,-0.71097 v -2.80741 q 0,-0.37676 0.13976,-0.71097 0.14584,-0.33422 0.39498,-0.58336 0.24915,-0.24915 0.58336,-0.38891 0.33422,-0.14584 0.71097,-0.14584 h 0.49829 q 0.37675,0 0.71097,0.14584 0.33421,0.13976 0.58336,0.38891 0.24914,0.24914 0.3889,0.58336 0.14584,0.33421 0.14584,0.71097 z m -0.74743,-2.84995 q 0,-0.22484 -0.0851,-0.41929 -0.0851,-0.20053 -0.23091,-0.34637 -0.14584,-0.14584 -0.34637,-0.23091 -0.19445,-0.0851 -0.41929,-0.0851 h -0.49829 q -0.22483,0 -0.42536,0.0851 -0.19446,0.0851 -0.3403,0.23091 -0.14584,0.14584 -0.23091,0.34637 -0.0851,0.19445 -0.0851,0.41929 v 2.89249 q 0,0.22484 0.0851,0.42537 0.0851,0.19445 0.23091,0.34029 0.14584,0.14584 0.3403,0.23091 0.20053,0.0851 0.42536,0.0851 h 0.49829 q 0.22484,0 0.41929,-0.0851 0.20053,-0.0851 0.34637,-0.23091 0.14584,-0.14584 0.23091,-0.34029 0.0851,-0.20053 0.0851,-0.42537 z"
           inkscape:connector-curvature="0" />
        <path
           id="path4734"
           style="font-style:normal;font-variant:normal;font-weight:bold;font-stretch:normal;font-size:12.44500065px;line-height:1.25em;font-family:Abel;-inkscape-font-specification:'Abel Bold';fill:#ffffff;stroke-width:0.38890627"
           d="m 114.8868,209.35468 -2.54004,-3.11125 2.54004,-3.11126 h 0.97227 l -2.60081,3.11126 2.60081,3.11125 z m -3.43331,0 v -8.71394 h 0.74743 v 8.71394 z"
           inkscape:connector-curvature="0" />
      </g>
      <path
         id="rect4536"
         d="M 7.9195385,153.91379 H 65.924578 V 183.703 H 7.9195385 Z"
         style="opacity:1;fill:#00c22e;fill-opacity:1;stroke:none;stroke-width:22.95312881;stroke-miterlimit:4;stroke-dasharray:none;stroke-opacity:1"
         inkscape:connector-curvature="0" />
      <path
         id="rect4552"
         d="M 7.9195375,184.76077 H 65.924577 V 214.55 H 7.9195375 Z"
         style="opacity:1;fill:#ff5555;fill-opacity:1;stroke:none;stroke-width:12.98924541;stroke-miterlimit:4;stroke-dasharray:none;stroke-opacity:1"
         inkscape:connector-curvature="0" />
      <g
         id="text4556"
         style="font-style:normal;font-variant:normal;font-weight:normal;font-stretch:normal;font-size:13.41231251px;line-height:1.25;font-family:Sawasdee;-inkscape-font-specification:Sawasdee;letter-spacing:0px;word-spacing:0px;fill:#ffffff;fill-opacity:1;stroke:none;stroke-width:0.33530778"
         transform="scale(0.93974923,1.0641137)"
         aria-label="Microsoft">
        <path
           id="path4699"
           style="font-style:normal;font-variant:normal;font-weight:normal;font-stretch:normal;font-family:Sawasdee;-inkscape-font-specification:Sawasdee;fill:#ffffff;stroke-width:0.33530778"
           d="m 12.366405,192.51808 h -0.57631 l 1.873009,-9.89551 3.569194,8.48748 3.628135,-8.48748 1.820617,9.89551 h -0.615604 l -1.434227,-7.85878 -3.438215,7.97011 -3.333431,-7.97011 z"
           inkscape:connector-curvature="0" />
        <path
           id="path4701"
           style="font-style:normal;font-variant:normal;font-weight:normal;font-stretch:normal;font-family:Sawasdee;-inkscape-font-specification:Sawasdee;fill:#ffffff;stroke-width:0.33530778"
           d="m 23.761632,184.30566 q 0,-0.21612 0.150626,-0.37329 0.157176,-0.15718 0.379841,-0.15718 0.216117,0 0.366743,0.15718 0.157176,0.15717 0.157176,0.37329 0,0.22267 -0.150627,0.37984 -0.150627,0.15063 -0.373292,0.15063 -0.222665,0 -0.379841,-0.15063 -0.150626,-0.15717 -0.150626,-0.37984 z m 0.825171,8.21242 h -0.589408 v -6.64066 h 0.589408 z"
           inkscape:connector-curvature="0" />
        <path
           id="path4703"
           style="font-style:normal;font-variant:normal;font-weight:normal;font-stretch:normal;font-family:Sawasdee;-inkscape-font-specification:Sawasdee;fill:#ffffff;stroke-width:0.33530778"
           d="m 31.581115,190.68437 0.497722,0.2947 q -0.406037,0.73349 -1.09368,1.17227 -0.681094,0.43878 -1.480069,0.43878 -0.831721,0 -1.532462,-0.45843 -0.694192,-0.46498 -1.09368,-1.25085 -0.392938,-0.78588 -0.392938,-1.70274 0,-0.9234 0.392938,-1.70928 0.399488,-0.78588 1.09368,-1.24431 0.700741,-0.46498 1.532462,-0.46498 0.798975,0 1.480069,0.43879 0.687643,0.43878 1.09368,1.17226 l -0.497722,0.29471 q -0.347096,-0.60251 -0.897211,-0.94961 -0.543565,-0.35364 -1.178816,-0.35364 -1.001994,0 -1.73548,0.81207 -0.733486,0.81208 -0.733486,1.98434 0,1.17882 0.733486,2.00399 0.733486,0.82517 1.73548,0.82517 0.635251,0 1.185365,-0.34709 0.550115,-0.3471 0.890662,-0.95615 z"
           inkscape:connector-curvature="0" />
        <path
           id="path4705"
           style="font-style:normal;font-variant:normal;font-weight:normal;font-stretch:normal;font-family:Sawasdee;-inkscape-font-specification:Sawasdee;fill:#ffffff;stroke-width:0.33530778"
           d="m 33.814317,185.87742 h 0.628702 q 0.12443,0.43223 0.12443,0.87756 v 0.82517 q 0.150627,-0.50427 0.700741,-1.04784 0.550115,-0.54356 1.106778,-0.75968 l 0.654898,0.46498 q -0.57631,0 -1.15262,0.40604 -0.569762,0.40603 -0.943054,1.08058 -0.366743,0.66799 -0.366743,1.38183 v 3.41202 h -0.589408 v -5.7631 q 0,-0.56321 -0.163724,-0.87756 z"
           inkscape:connector-curvature="0" />
        <path
           id="path4707"
           style="font-style:normal;font-variant:normal;font-weight:normal;font-stretch:normal;font-family:Sawasdee;-inkscape-font-specification:Sawasdee;fill:#ffffff;stroke-width:0.33530778"
           d="m 41.332547,185.77263 q 0.687643,0 1.316345,0.26851 0.628702,0.26851 1.087131,0.72694 0.458429,0.45843 0.726937,1.09368 0.268508,0.63525 0.268508,1.32944 0,0.70074 -0.268508,1.33599 -0.268508,0.63525 -0.726937,1.09368 -0.458429,0.45188 -1.087131,0.72694 -0.628702,0.26851 -1.316345,0.26851 -1.408031,0 -2.403476,-1.002 -0.995445,-1.00199 -0.995445,-2.42312 0,-0.92996 0.45188,-1.71583 0.458428,-0.79243 1.237757,-1.24431 0.785878,-0.45843 1.709284,-0.45843 z m -2.816062,3.41857 q 0,1.17227 0.825172,2.01054 0.83172,0.83172 2.003988,0.83172 1.172268,0 1.997439,-0.83172 0.831721,-0.83827 0.831721,-2.01054 0,-1.16572 -0.831721,-1.99744 -0.825171,-0.83172 -1.997439,-0.83172 -1.172268,0 -2.003988,0.83172 -0.825172,0.83172 -0.825172,1.99744 z"
           inkscape:connector-curvature="0" />
        <path
           id="path4709"
           style="font-style:normal;font-variant:normal;font-weight:normal;font-stretch:normal;font-family:Sawasdee;-inkscape-font-specification:Sawasdee;fill:#ffffff;stroke-width:0.33530778"
           d="m 50.173671,187.04968 -0.543565,0.18992 q -0.137529,-0.43878 -0.464978,-0.66799 -0.327449,-0.23577 -0.70074,-0.23577 -0.432233,0 -0.740035,0.27506 -0.301253,0.27506 -0.301253,0.74658 0,0.24887 0.137528,0.45188 0.137529,0.20302 0.360194,0.334 0.222665,0.13098 0.504272,0.26851 0.288155,0.13753 0.582859,0.25541 0.294704,0.11788 0.57631,0.29471 0.288155,0.17682 0.510821,0.37984 0.222665,0.20301 0.360194,0.52391 0.137528,0.3209 0.137528,0.72039 0,0.91031 -0.648349,1.48007 -0.648349,0.56321 -1.506265,0.56321 -0.373292,0 -0.713839,-0.11788 -0.340547,-0.12443 -0.628702,-0.36019 -0.288156,-0.23576 -0.491174,-0.6287 -0.203018,-0.39294 -0.261959,-0.89721 l 0.582859,-0.0851 q 0.09169,0.74658 0.51737,1.12642 0.432232,0.37985 1.008543,0.37985 0.609055,0 1.080581,-0.40604 0.471527,-0.41259 0.471527,-1.05439 0,-0.35364 -0.176823,-0.62215 -0.176822,-0.27506 -0.458428,-0.44533 -0.275057,-0.17028 -0.615604,-0.3209 -0.340547,-0.15063 -0.681094,-0.3078 -0.340547,-0.15718 -0.622154,-0.34055 -0.275057,-0.18992 -0.451879,-0.49117 -0.176823,-0.30781 -0.176823,-0.70075 0,-0.73348 0.484625,-1.16571 0.491173,-0.43224 1.15917,-0.43224 0.550114,0 1.028189,0.334 0.478076,0.32745 0.681094,0.95615 z"
           inkscape:connector-curvature="0" />
        <path
           id="path4711"
           style="font-style:normal;font-variant:normal;font-weight:normal;font-stretch:normal;font-family:Sawasdee;-inkscape-font-specification:Sawasdee;fill:#ffffff;stroke-width:0.33530778"
           d="m 55.583129,185.77263 q 0.687643,0 1.316345,0.26851 0.628702,0.26851 1.087131,0.72694 0.458428,0.45843 0.726937,1.09368 0.268508,0.63525 0.268508,1.32944 0,0.70074 -0.268508,1.33599 -0.268509,0.63525 -0.726937,1.09368 -0.458429,0.45188 -1.087131,0.72694 -0.628702,0.26851 -1.316345,0.26851 -1.408031,0 -2.403476,-1.002 -0.995445,-1.00199 -0.995445,-2.42312 0,-0.92996 0.451879,-1.71583 0.458429,-0.79243 1.237758,-1.24431 0.785878,-0.45843 1.709284,-0.45843 z m -2.816062,3.41857 q 0,1.17227 0.825172,2.01054 0.83172,0.83172 2.003988,0.83172 1.172267,0 1.997439,-0.83172 0.83172,-0.83827 0.83172,-2.01054 0,-1.16572 -0.83172,-1.99744 -0.825172,-0.83172 -1.997439,-0.83172 -1.172268,0 -2.003988,0.83172 -0.825172,0.83172 -0.825172,1.99744 z"
           inkscape:connector-curvature="0" />
        <path
           id="path4713"
           style="font-style:normal;font-variant:normal;font-weight:normal;font-stretch:normal;font-family:Sawasdee;-inkscape-font-specification:Sawasdee;fill:#ffffff;stroke-width:0.33530778"
           d="m 60.855061,192.51808 v -6.05781 h -0.556664 v -0.58285 h 0.556664 v -0.58941 q 0,-1.08713 0.70729,-1.85991 0.713838,-0.77278 1.715832,-0.77278 v 0.37984 q -0.733485,0 -1.290149,0.69419 -0.556663,0.68764 -0.556663,1.55866 v 0.58941 h 1.846812 l -0.196469,0.58285 h -1.650343 v 6.05781 z"
           inkscape:connector-curvature="0" />
        <path
           id="path4715"
           style="font-style:normal;font-variant:normal;font-weight:normal;font-stretch:normal;font-family:Sawasdee;-inkscape-font-specification:Sawasdee;fill:#ffffff;stroke-width:0.33530778"
           d="m 64.954723,192.51808 h -0.589408 v -6.05781 h -0.582859 v -0.58285 h 0.582859 v -1.57176 h 0.589408 v 1.57176 h 1.833715 l -0.19647,0.58285 h -1.637245 z"
           inkscape:connector-curvature="0" />
      </g>
      <path
         id="rect4563"
         transform="matrix(0.26458333,0,0,0.26458333,0,111.79167)"
         d="m 29.931641,43.011719 v 75.904301 c 0.02405,-0.01 0.04616,-0.0218 0.07031,-0.0312 2.886033,-1.13189 5.643352,-0.91433 8.271485,0.65039 -0.41289,-1.80222 -0.27465,-2.83927 0.414062,-3.10938 0.688714,-0.27011 1.170054,0.19501 1.445312,1.39649 l 1.578126,6.88671 c 0.275258,1.20148 0.06957,1.93888 -0.619141,2.20899 -0.295163,0.11576 -0.563378,0.0793 -0.802735,-0.10742 l -0.990234,-2.10157 c -0.586776,-1.31312 -1.535721,-2.33307 -2.845703,-3.05859 -1.673954,-0.91012 -3.593288,-0.94071 -5.757813,-0.0918 -0.262358,0.1029 -0.516336,0.21791 -0.763671,0.33985 v 14.95508 c 0.395389,0.0451 0.809735,0.0638 1.25,0.0527 l 9.263671,-0.75586 c 3.474421,0.34428 5.705377,2.67192 6.69336,6.98438 0.811025,3.54004 0.354358,6.76996 -1.371094,9.6914 -0.61861,1.04776 -1.343619,1.96889 -2.164062,2.77344 H 249.16406 V 76.013672 c -0.24132,0.120217 -0.48296,0.247026 -0.72461,0.341797 -2.04974,0.803895 -3.92127,0.789925 -5.61328,-0.04297 -1.85268,-0.910169 -3.07517,-2.66372 -3.66992,-5.259766 l -3.37891,-14.632812 -5.04296,1.978516 c -0.91829,0.360144 -1.48396,0.0788 -1.69532,-0.84375 -0.20645,-0.901127 0.15008,-1.532434 1.06836,-1.892579 l 5.04297,-1.978515 -2.41992,-10.671875 z m 205.074219,0 2.23437,9.853515 9.98633,-3.917968 c 0.91829,-0.360145 1.48395,-0.07883 1.69532,0.84375 0.20644,0.901094 -0.15008,1.532433 -1.06836,1.892578 l -9.98633,3.916015 3.3789,14.632813 c 0.40306,1.759281 1.26094,2.931685 2.57422,3.515625 1.17392,0.521656 2.45774,0.509539 3.85157,-0.03711 0.34548,-0.135496 0.86913,-0.466721 1.49218,-0.908204 V 43.011719 Z M 38.798828,138.79492 c -2.953277,0.2204 -5.909421,0.43006 -8.867187,0.63086 v 14.79297 c 0.515616,0.53784 1.131778,0.99563 1.839843,1.38086 h 7.080078 c 2.086938,-0.86985 3.742239,-2.26002 4.957032,-4.17969 1.456437,-2.30151 1.871347,-4.82604 1.242187,-7.57226 -0.771705,-3.36842 -2.856173,-5.05172 -6.251953,-5.05274 z"
         style="opacity:1;fill:#ffd42a;fill-opacity:1;stroke:none;stroke-width:93.36071014;stroke-miterlimit:4;stroke-dasharray:none;stroke-opacity:1"
         inkscape:connector-curvature="0" />
      <g
         id="text4567"
         style="font-style:normal;font-variant:normal;font-weight:normal;font-stretch:normal;font-size:13.72225571px;line-height:1.25;font-family:'Serto Jerusalem';-inkscape-font-specification:'Serto Jerusalem';letter-spacing:0px;word-spacing:0px;fill:#000000;fill-opacity:1;stroke:none;stroke-width:0.34305635"
         transform="matrix(0.97128555,-0.38093195,0.29114534,1.2708214,-4.6886347,-30.162481)"
         aria-label="Snapchat">
        <path
           inkscape:connector-curvature="0"
           id="path4683"
           style="font-style:normal;font-variant:normal;font-weight:normal;font-stretch:normal;font-family:'Serto Jerusalem';-inkscape-font-specification:'Serto Jerusalem';stroke-width:0.34305635"
           d="m -13.889975,136.52563 q 0,0.28141 -0.375218,0.28141 h -1.514272 q -0.375218,0 -0.375218,-0.28141 0,-0.28812 0.375218,-0.28812 h 0.475723 l -0.0067,-2.75383 q 0,-0.65663 -0.482423,-1.05195 -0.448921,-0.36852 -1.118953,-0.36852 -0.683433,0 -1.212758,0.39532 -0.308215,0.22781 -0.917944,0.94475 l 0.0067,2.83423 h 0.475723 q 0.375218,0 0.375218,0.28812 0,0.28141 -0.375218,0.28141 h -1.514272 q -0.375218,0 -0.375218,-0.28141 0,-0.28812 0.375218,-0.28812 h 0.475722 l -0.0067,-3.97329 h -0.475723 q -0.375218,0 -0.375218,-0.28811 0,-0.28142 0.375218,-0.28142 h 1.03855 v 0.85095 q 1.03855,-1.05195 2.137402,-1.05195 0.857641,0 1.487471,0.50922 0.670032,0.54273 0.670032,1.38697 l 0.0067,2.84763 h 0.475722 q 0.375218,0 0.375218,0.28812 z" />
        <path
           inkscape:connector-curvature="0"
           id="path4685"
           style="font-style:normal;font-variant:normal;font-weight:normal;font-stretch:normal;font-family:'Serto Jerusalem';-inkscape-font-specification:'Serto Jerusalem';stroke-width:0.34305635"
           d="m -6.1913075,136.51893 q 0,0.28141 -0.3752179,0.28141 H -7.5514725 V 136.07 q -1.1055528,0.93135 -2.365213,0.93135 -0.7973385,0 -1.3333635,-0.38862 -0.609729,-0.43552 -0.609729,-1.20606 0,-0.94474 0.911243,-1.44057 0.730335,-0.40202 1.7487837,-0.40202 0.7236346,0 1.6482788,0.18761 v -0.82414 q 0,-0.54272 -0.5360256,-0.81744 -0.4154199,-0.21441 -1.0117484,-0.21441 -0.3819182,0 -1.0988525,0.20771 -0.710234,0.20101 -0.810739,0.20101 -0.234511,0 -0.234511,-0.25461 0,-0.0938 0.0603,-0.16751 0.113905,-0.134 0.984947,-0.32161 0.8107388,-0.18091 1.1256538,-0.18091 0.7772372,0 1.360165,0.37522 0.6767323,0.42882 0.6767323,1.17255 l -0.0067,3.30326 h 0.4757228 q 0.3752179,0 0.3752179,0.28812 z m -1.360165,-1.12566 v -1.11895 q -0.690133,-0.20101 -1.5946762,-0.20101 -0.7839375,0 -1.4003673,0.28141 -0.804038,0.36182 -0.804038,1.05195 0,0.54943 0.448921,0.83754 0.381919,0.24791 0.9648465,0.24791 1.2395592,0 2.385314,-1.09885 z" />
        <path
           inkscape:connector-curvature="0"
           id="path4687"
           style="font-style:normal;font-variant:normal;font-weight:normal;font-stretch:normal;font-family:'Serto Jerusalem';-inkscape-font-specification:'Serto Jerusalem';stroke-width:0.34305635"
           d="m 2.371703,134.20731 q 0,1.17256 -0.8308397,1.99 -0.82413935,0.81744 -2.0033957,0.81744 -1.4539695,0 -2.3183108,-1.18596 l -0.0067,3.66508 q 0.5561266,0 0.5159247,-0.007 0.335016,0.0402 0.335016,0.28811 0,0.28141 -0.375218,0.28141 h -1.507572 q -0.3819183,0 -0.3819183,-0.28141 0,-0.24791 0.3350161,-0.28811 -0.040202,0.007 0.5159246,0.007 v -7.22965 h -0.4757227 q -0.375218,0 -0.375218,-0.28811 0,-0.28142 0.375218,-0.28142 h 1.0385496 v 0.89115 q 0.8643413,-1.19266 2.3250111,-1.19266 1.17925635,0 2.0033957,0.81744 0.8308397,0.81744 0.8308394,1.99669 z m -0.5092243,0 q 0,-0.96484 -0.6834327,-1.62817 -0.6767323,-0.67003 -1.64827872,-0.67003 -0.96484608,0 -1.64827878,0.67003 -0.6767323,0.66333 -0.6767323,1.62817 0,0.95815 0.6834326,1.62818 0.6834327,0.67003 1.64157848,0.67003 0.9648461,0 1.64827872,-0.66333 0.6834327,-0.67003 0.6834327,-1.63488 z" />
        <path
           inkscape:connector-curvature="0"
           id="path4689"
           style="font-style:normal;font-variant:normal;font-weight:normal;font-stretch:normal;font-family:'Serto Jerusalem';-inkscape-font-specification:'Serto Jerusalem';stroke-width:0.34305635"
           d="m 9.6683496,135.73499 q 0,0.26131 -0.6164294,0.66333 -0.9782468,0.64323 -2.1910047,0.64323 -1.2261586,0 -2.0167964,-0.77054 -0.7906378,-0.77723 -0.7906378,-1.99669 0,-1.23286 0.8040384,-2.0369 0.8040385,-0.81074 2.0368974,-0.81074 1.1658557,0 1.9631938,0.69684 v -0.22112 q 0.0067,-0.29481 0.2479118,-0.29481 0.2613125,0 0.2613125,0.34172 v 1.15245 q 0,0.34172 -0.2613125,0.34172 -0.1005048,0 -0.167508,-0.067 L 8.817409,132.98116 q -0.1005048,-0.34172 -0.5293253,-0.65664 -0.522625,-0.38191 -1.4204679,-0.38191 -1.0318493,0 -1.6683797,0.64993 -0.6365304,0.64323 -0.6365304,1.67508 0,1.01175 0.649931,1.64158 0.6566314,0.62983 1.6683797,0.62983 1.2730609,0 2.3183108,-0.92465 0.1407067,-0.1206 0.2211106,-0.1206 0.2479118,0 0.2479118,0.24121 z" />
        <path
           inkscape:connector-curvature="0"
           id="path4691"
           style="font-style:normal;font-variant:normal;font-weight:normal;font-stretch:normal;font-family:'Serto Jerusalem';-inkscape-font-specification:'Serto Jerusalem';stroke-width:0.34305635"
           d="m 17.990148,136.52563 q 0,0.28141 -0.375218,0.28141 h -1.514272 q -0.375218,0 -0.375218,-0.28141 0,-0.28812 0.375218,-0.28812 h 0.475722 l -0.0067,-2.57962 q 0,-0.68343 -0.502524,-1.07205 -0.455622,-0.35512 -1.159155,-0.35512 -0.649931,0 -1.185957,0.40202 -0.254612,0.19431 -0.904543,0.91124 v 2.69353 h 0.475723 q 0.375218,0 0.375218,0.28812 0,0.28141 -0.375218,0.28141 h -1.514273 q -0.375218,0 -0.375218,-0.28141 0,-0.28812 0.375218,-0.28812 h 0.475723 v -7.27655 h -0.475723 q -0.375218,0 -0.375218,-0.28811 0,-0.28141 0.375218,-0.28141 h 1.03855 v 4.3351 q 0.971546,-1.05865 2.130702,-1.05865 0.897843,0 1.520972,0.51593 0.670032,0.54942 0.670032,1.43387 v 2.61982 h 0.475723 q 0.375218,0 0.375218,0.28812 z" />
        <path
           inkscape:connector-curvature="0"
           id="path4693"
           style="font-style:normal;font-variant:normal;font-weight:normal;font-stretch:normal;font-family:'Serto Jerusalem';-inkscape-font-specification:'Serto Jerusalem';stroke-width:0.34305635"
           d="m 25.675415,136.51893 q 0,0.28141 -0.375218,0.28141 H 24.31525 V 136.07 q -1.105553,0.93135 -2.365213,0.93135 -0.797339,0 -1.333364,-0.38862 -0.609729,-0.43552 -0.609729,-1.20606 0,-0.94474 0.911243,-1.44057 0.730335,-0.40202 1.748784,-0.40202 0.723634,0 1.648279,0.18761 v -0.82414 q 0,-0.54272 -0.536026,-0.81744 -0.41542,-0.21441 -1.011748,-0.21441 -0.381919,0 -1.098853,0.20771 -0.710234,0.20101 -0.810739,0.20101 -0.234511,0 -0.234511,-0.25461 0,-0.0938 0.0603,-0.16751 0.113906,-0.134 0.984947,-0.32161 0.810739,-0.18091 1.125654,-0.18091 0.777237,0 1.360165,0.37522 0.676732,0.42882 0.676732,1.17255 l -0.0067,3.30326 h 0.475723 q 0.375218,0 0.375218,0.28812 z m -1.360165,-1.12566 v -1.11895 q -0.690133,-0.20101 -1.594677,-0.20101 -0.783937,0 -1.400367,0.28141 -0.804038,0.36182 -0.804038,1.05195 0,0.54943 0.448922,0.83754 0.381918,0.24791 0.964846,0.24791 1.239559,0 2.385314,-1.09885 z" />
      </g>
      <path
         inkscape:connector-curvature="0"
         id="rect4574"
         d="m 68.041,123.17185 v 8.83202 l 8.518345,-1.0945 c 0.173035,-0.0218 0.327581,0.0655 0.463537,0.262 0.111236,0.21835 0.179403,0.50225 0.20412,0.85162 0,0.80792 -0.277868,1.33232 -0.834056,1.57252 -0.185396,0.0655 -0.642787,0.14158 -1.37201,0.22892 -0.667425,0.0655 -1.458362,0.0982 -2.372982,0.0982 l -0.09302,2.32595 c -0.07416,1.65952 -0.228703,3.75557 -0.463537,6.28851 -0.222475,2.35826 -0.426452,4.26896 -0.611849,5.73195 -0.09888,0.78609 -0.259148,2.01972 -0.481626,3.70107 -0.04944,0.41487 -0.142579,0.69877 -0.278535,0.85162 -0.05614,0.0567 -0.114625,0.10073 -0.174667,0.13901 h 9.188587 c -0.250544,-0.55002 -0.569343,-2.00223 -0.95808,-4.36407 -0.494389,-3.10067 -0.742074,-5.36063 -0.742074,-6.77995 0,-0.78608 0.222708,-1.17926 0.66766,-1.17926 0.407871,0 0.67377,0.84046 0.797367,2.52181 0.185396,2.70763 0.494485,4.86955 0.927074,6.4854 1.001138,-1.57218 1.822778,-3.15558 2.465482,-4.74959 0.753944,-1.87787 1.273255,-2.81636 1.557528,-2.81636 0.370793,0 0.698096,1.06972 0.982369,3.20962 0.148318,1.41933 0.309105,2.82758 0.482142,4.22507 l 0.500746,-1.01544 c 0.346072,-0.67691 0.772242,-1.6486 1.27899,-2.91507 0.704506,-1.74686 1.267005,-3.28583 1.687235,-4.61781 l 1.03818,1.34256 c -1.174173,3.47188 -2.231009,6.24499 -3.170349,8.31939 -0.528219,1.1629 -0.952775,1.9354 -1.277958,2.3337 h 5.416724 c -0.07375,-0.18024 -0.122626,-0.42051 -0.143145,-0.72864 l 0.130225,-1.60506 0.815454,-8.54832 c 0.0618,-0.6114 0.284509,-0.91726 0.66766,-0.91726 0.39551,0 0.593246,0.3273 0.593246,0.98237 0,0.39304 -0.03746,1.01548 -0.111622,1.86707 l -0.778245,8.35246 c 0,0.23858 -0.06066,0.43593 -0.174152,0.59738 h 4.083474 c -0.08054,-0.17302 -0.122992,-0.41332 -0.122992,-0.72864 l 0.815972,-8.71264 -1.74253,0.29507 c -0.148317,0 -0.29089,-0.11999 -0.426847,-0.36018 -0.123597,-0.17469 -0.19749,-0.41519 -0.22221,-0.72089 0,-0.39304 0.04944,-0.68766 0.148312,-0.88418 0.111239,-0.21836 0.259538,-0.33835 0.444934,-0.36019 l 2.020549,-0.262 0.408244,-4.88032 c 0.0618,-0.6114 0.283991,-0.91726 0.667142,-0.91726 0.148317,0 0.296619,0.098 0.444934,0.29456 0.123597,0.24019 0.18552,0.53533 0.18552,0.8847 l -0.370522,4.35632 1.761136,-0.262 c 0.13596,0 0.27177,0.0873 0.40773,0.262 0.1236,0.19652 0.198,0.48042 0.22272,0.85163 0,0.32754 -0.0557,0.58948 -0.16691,0.786 -0.1236,0.24019 -0.27814,0.38214 -0.46354,0.42581 l -1.965257,0.29456 -0.834057,8.97464 c -0.03042,0.27949 -0.106574,0.49995 -0.226859,0.66301 h 6.038393 c -0.0806,-0.17303 -0.12299,-0.41327 -0.12299,-0.72864 l 0.81545,-8.71264 -1.74253,0.29507 c -0.14831,0 -0.29037,-0.11999 -0.42633,-0.36018 -0.12359,-0.17469 -0.198,-0.41519 -0.22272,-0.72089 0,-0.39304 0.0494,-0.68766 0.14831,-0.88418 0.11124,-0.21836 0.25954,-0.33835 0.44493,-0.36019 l 2.02107,-0.262 0.40773,-4.88032 c 0.0618,-0.6114 0.28451,-0.91726 0.66766,-0.91726 0.14831,0 0.29661,0.098 0.44493,0.29456 0.1236,0.24019 0.185,0.53533 0.185,0.8847 l -0.37052,4.35632 1.76114,-0.262 c 0.13595,0 0.27176,0.0873 0.40772,0.262 0.1236,0.19652 0.19801,0.48042 0.22273,0.85163 0,0.32754 -0.0557,0.58948 -0.16692,0.786 -0.1236,0.24019 -0.27814,0.38214 -0.46353,0.42581 l -1.96526,0.29456 -0.83406,8.97464 c -0.0304,0.27949 -0.10657,0.49995 -0.22686,0.66301 h 5.69268 c -0.97439,-0.61768 -1.46451,-1.98225 -1.46451,-4.10207 0,-1.92154 0.37101,-3.66834 1.11259,-5.24051 0.84046,-1.81236 1.87857,-2.7187 3.11454,-2.7187 0.79102,0 1.42741,0.2839 1.90944,0.85163 0.48203,0.56773 0.72347,1.2116 0.72347,1.93218 0,1.31015 -0.72953,2.63161 -2.18798,3.96358 -1.22361,1.11363 -2.05773,1.67019 -2.50269,1.67019 -0.34607,0 -0.51934,-0.37121 -0.51934,-1.11363 0,-0.24019 0.64888,-0.82995 1.94665,-1.76888 1.31013,-0.96078 1.96525,-1.75784 1.96525,-2.39107 0,-0.26203 -0.0989,-0.50201 -0.29662,-0.72037 -0.22247,-0.15285 -0.56851,-0.22945 -1.03818,-0.22945 -0.92698,0 -1.66224,0.57904 -2.20607,1.73633 -0.49439,1.06995 -0.74155,2.3909 -0.74155,3.96307 0,0.76425 0.12332,1.354 0.37052,1.76888 0.24719,0.41488 0.64266,0.62219 1.18649,0.62219 0.61799,0 1.19297,-0.21854 1.72444,-0.65526 l 1.77974,-1.47381 c 0.39551,0 0.59324,0.43657 0.59324,1.30999 0,0.80793 -0.56874,1.53963 -1.70584,2.1947 -0.28462,0.15879 -0.55165,0.29034 -0.80563,0.40101 h 3.1197 c -0.0991,-0.18481 -0.16489,-0.44721 -0.19378,-0.79426 l 0.94568,-10.02265 c 0.0618,-0.69874 0.27774,-1.048 0.64853,-1.048 0.4326,0 0.64906,0.41513 0.64906,1.24489 l -0.16691,1.834 c 0.67978,-1.11363 1.31617,-1.85605 1.90944,-2.22726 0.75394,-0.48038 1.61304,-0.72037 2.5771,-0.72037 0.46967,0 0.70487,0.30534 0.70487,0.91674 0,0.6114 -0.11135,1.00457 -0.33383,1.17926 -0.14832,0.13101 -0.38351,0.19637 -0.70487,0.19637 -1.13709,0 -2.19965,0.70974 -3.18843,2.12907 -0.74159,1.04811 -1.19273,2.00908 -1.35341,2.88251 l -0.33383,3.89744 c -0.0192,0.22054 -0.0662,0.39739 -0.13952,0.53226 h 8.77724 v -29.78888 z m 3.179135,10.94766 c -1.174175,0 -1.952622,0.0434 -2.335776,0.13074 L 68.041,134.43887 v 18.52186 h 1.883606 c -0.0603,-0.0707 -0.116832,-0.16975 -0.168982,-0.30282 -0.08652,-0.3057 -0.129706,-0.62228 -0.129706,-0.94982 0.197755,-1.55033 0.438679,-3.75565 0.722952,-6.61613 0.321353,-3.27536 0.611712,-6.93285 0.871265,-10.97245 z m 22.006925,2.06344 c 0.247195,0 0.463661,0.11999 0.649055,0.36018 0.160679,0.3057 0.240813,0.68763 0.240813,1.14618 0,0.72058 -0.17276,1.19035 -0.518832,1.4087 -0.09888,0.0655 -0.222718,0.0982 -0.371036,0.0982 -0.234836,0 -0.43257,-0.13123 -0.593246,-0.39326 -0.160676,-0.26203 -0.24081,-0.63324 -0.24081,-1.11363 0,-1.00444 0.277868,-1.50636 0.834056,-1.50636 z m -9.112623,9.72757 c -0.46967,1.09178 -1.137279,2.45664 -2.002462,4.09432 -0.813712,1.54816 -1.413909,2.52778 -1.807122,2.95589 h 4.951634 c -0.369051,-0.80436 -0.749636,-3.15058 -1.14205,-7.05021 z"
         style="opacity:1;fill:#280b0b;fill-opacity:1;stroke:none;stroke-width:11.74466991;stroke-miterlimit:4;stroke-dasharray:none;stroke-opacity:1" />
      <path
         id="rect4591"
         d="m 68.041245,154.01932 h 58.005035 v 29.68361 H 68.041245 Z"
         style="opacity:1;fill:#ffc8d9;fill-opacity:1;stroke:none;stroke-width:16.69214439;stroke-miterlimit:4;stroke-dasharray:none;stroke-opacity:1"
         inkscape:connector-curvature="0" />
      <g
         id="text4595"
         style="font-style:normal;font-variant:normal;font-weight:normal;font-stretch:normal;font-size:10.58333302px;line-height:1.25;font-family:'Sazanami Mincho';-inkscape-font-specification:'Sazanami Mincho';letter-spacing:0px;word-spacing:0px;fill:#000000;fill-opacity:1;stroke:none;stroke-width:0.26458332"
         aria-label="JP Morgan">
        <path
           id="path4663"
           style="font-style:normal;font-variant:normal;font-weight:normal;font-stretch:normal;font-family:'Sazanami Mincho';-inkscape-font-specification:'Sazanami Mincho';fill:#000000;stroke-width:0.26458332"
           d="m 79.559723,173.76622 v -0.26872 q 1.384928,0.031 2.563151,0 v 0.26872 q -0.826823,0.11369 -0.826823,0.51676 v 4.89893 q 0,0.68213 -0.206706,1.11621 -0.206706,0.42375 -0.661458,0.76481 -0.465088,0.34107 -1.043864,0.34107 -0.454753,0 -0.775147,-0.1447 -0.330729,-0.14469 -0.537434,-0.32039 -0.196371,-0.16537 -0.33073,-0.3514 -0.124023,-0.19637 -0.144694,-0.3514 -0.02067,-0.15503 0.02067,-0.27905 0.04134,-0.12403 0.165365,-0.19637 0.113688,-0.0827 0.258382,-0.062 0.144694,0.0103 0.289388,0.15503 0.144694,0.1447 0.134358,0.29973 -0.01033,0.15503 -0.02067,0.31006 -0.01033,0.093 0.02067,0.1757 0.01034,0.0517 0.04134,0.10335 0.09302,0.13436 0.330729,0.22737 0.237711,0.093 0.537435,0.093 0.382405,0 0.661458,-0.23771 0.289388,-0.23771 0.413411,-0.65112 0.124024,-0.40308 0.124024,-1.01286 v -4.87826 q 0,-0.40307 -1.012858,-0.51676 z"
           inkscape:connector-curvature="0" />
        <path
           id="path4665"
           style="font-style:normal;font-variant:normal;font-weight:normal;font-stretch:normal;font-family:'Sazanami Mincho';-inkscape-font-specification:'Sazanami Mincho';fill:#000000;stroke-width:0.26458332"
           d="m 82.339915,173.4975 q 1.07487,0.031 1.943034,0 h 0.217041 q 1.436604,0 2.17041,0.51677 0.74414,0.5271 0.74414,1.34358 0,0.82683 -0.74414,1.36426 -0.733806,0.5271 -2.17041,0.5271 h -0.651123 v 2.90422 q 0,0.40307 0.971516,0.51676 v 0.26872 q -1.343587,-0.031 -2.480468,0 v -0.26872 q 0.785482,-0.11369 0.785482,-0.51676 v -5.87045 q 0,-0.40307 -0.785482,-0.51676 z m 1.922363,0.38241 q -0.413411,0 -0.413411,0.40307 v 2.58383 h 0.651123 q 1.312581,0 1.736328,-0.47543 0.434082,-0.48576 0.434082,-1.03353 0,-0.5581 -0.434082,-1.01285 -0.423747,-0.46509 -1.736328,-0.46509 z"
           inkscape:connector-curvature="0" />
        <path
           id="path4667"
           style="font-style:normal;font-variant:normal;font-weight:normal;font-stretch:normal;font-family:'Sazanami Mincho';-inkscape-font-specification:'Sazanami Mincho';fill:#000000;stroke-width:0.26458332"
           d="m 98.183909,180.67019 v 0.26872 q -0.785482,-0.031 -1.674316,0 v -0.26872 q 0.527099,-0.11369 0.527099,-0.51676 v -4.88859 l -1.322916,5.46736 H 95.50707 l -1.694987,-5.52937 v 4.9506 q 0,0.40307 0.568441,0.51676 v 0.26872 q -0.764812,-0.031 -1.488282,0 v -0.26872 q 0.537435,-0.11369 0.537435,-0.51676 v -5.87045 q 0,-0.40307 -0.537435,-0.51676 v -0.26872 q 0.506429,0.0207 1.023194,0 l 1.79834,5.74642 1.374593,-5.74642 h 1.09554 v 0.26872 q -0.423747,0.11369 -0.423747,0.51676 v 5.87045 q 0,0.40307 0.423747,0.51676 z"
           inkscape:connector-curvature="0" />
        <path
           id="path4669"
           style="font-style:normal;font-variant:normal;font-weight:normal;font-stretch:normal;font-family:'Sazanami Mincho';-inkscape-font-specification:'Sazanami Mincho';fill:#000000;stroke-width:0.26458332"
           d="m 98.287261,178.38609 q 0,-1.04386 0.744141,-1.77767 0.733805,-0.7338 1.756998,-0.7338 1.00252,0 1.76733,0.7338 0.76482,0.73381 0.76482,1.77767 0,1.14722 -0.76482,1.88103 -0.76481,0.7338 -1.77766,0.7338 -1.012863,0 -1.746668,-0.7338 -0.744141,-0.73381 -0.744141,-1.88103 z m 0.785482,0 q 0,1.01286 0.516764,1.62264 0.506433,0.60979 1.188563,0.60979 0.68212,0 1.21956,-0.60979 0.53743,-0.60978 0.53743,-1.62264 0,-0.97151 -0.53743,-1.55029 -0.53744,-0.57878 -1.20923,-0.57878 -0.69246,0 -1.198893,0.57878 -0.516764,0.57878 -0.516764,1.55029 z"
           inkscape:connector-curvature="0" />
        <path
           id="path4671"
           style="font-style:normal;font-variant:normal;font-weight:normal;font-stretch:normal;font-family:'Sazanami Mincho';-inkscape-font-specification:'Sazanami Mincho';fill:#000000;stroke-width:0.26458332"
           d="m 106.92756,176.25702 q -0.28939,0 -0.57878,0.12403 -0.27905,0.12402 -0.66145,0.68213 -0.38241,0.5581 -0.38241,1.00252 v 2.08773 q 0,0.40307 0.71313,0.51676 v 0.26872 q -1.0852,-0.031 -2.11873,0 v -0.26872 q 0.68213,-0.11369 0.68213,-0.51676 v -3.41065 q 0,-0.28939 -0.54777,-0.33073 v -0.25838 q 1.00252,-0.093 1.14722,-0.36173 h 0.12402 v 1.07487 q 0.34106,-0.5271 0.77515,-0.75448 0.43408,-0.23771 0.84749,-0.23771 0.37207,0 0.69246,0.16536 0.3204,0.1757 0.47543,0.37207 0.15503,0.19637 0.18603,0.3514 0.031,0.15503 -0.0103,0.26872 -0.031,0.12402 -0.16537,0.22738 -0.13436,0.10335 -0.32039,0.062 -0.18604,-0.0517 -0.26872,-0.20671 -0.0827,-0.15503 -0.0724,-0.33073 0.0207,-0.18603 -0.11368,-0.3514 -0.13436,-0.1757 -0.40308,-0.1757 z"
           inkscape:connector-curvature="0" />
        <path
           id="path4673"
           style="font-style:normal;font-variant:normal;font-weight:normal;font-stretch:normal;font-family:'Sazanami Mincho';-inkscape-font-specification:'Sazanami Mincho';fill:#000000;stroke-width:0.26458332"
           d="m 113.06672,175.4302 q 0.18604,0 0.37207,0.0724 0.18604,0.062 0.31006,0.18603 0.12402,0.11369 0.1757,0.26872 0.031,0.093 0.0103,0.1757 -0.0103,0.0517 -0.0413,0.093 -0.0827,0.11369 -0.19637,0.13436 -0.11368,0.0207 -0.21704,-0.0517 -0.10335,-0.062 -0.12402,-0.18603 -0.0207,-0.13436 -0.0517,-0.23772 -0.031,-0.10335 -0.11369,-0.14469 -0.0827,-0.0413 -0.18603,-0.0413 -0.16536,0 -0.31006,0.14469 -0.13436,0.1447 -0.28939,0.43408 0.45476,0.39275 0.45476,0.93018 0,0.59945 -0.55811,1.02319 -0.55811,0.41342 -1.17822,0.41342 -0.62012,0.18603 -0.82683,0.33072 -0.19637,0.1447 -0.19637,0.25839 0,0.093 0.093,0.1757 0.10335,0.0827 0.50643,0.12402 0.40308,0.0413 0.93018,0.12402 0.5271,0.0827 1.06453,0.24805 0.53744,0.1757 0.82682,0.49609 0.29973,0.31006 0.29973,0.76482 0,0.50642 -0.7028,0.86816 -0.7028,0.3514 -1.80868,0.3514 -1.10587,0 -1.80867,-0.3514 -0.7028,-0.36174 -0.7028,-0.86816 0,-0.36174 0.27905,-0.6718 0.28939,-0.31006 1.06454,-0.62012 -0.31006,-0.0723 -0.46509,-0.25838 -0.1447,-0.18603 -0.1447,-0.37207 0,-0.16536 0.22738,-0.33073 0.21704,-0.16536 0.84749,-0.34106 -0.3514,-0.10335 -0.79581,-0.43408 -0.44442,-0.33073 -0.44442,-0.93018 0,-0.59945 0.5581,-1.02319 0.55811,-0.41341 1.18856,-0.41341 0.5271,0 1.00253,0.28938 0.2067,-0.26871 0.45475,-0.45475 0.23771,-0.1757 0.49609,-0.1757 z m -1.95337,0.72347 q -0.40307,0 -0.68213,0.34107 -0.27905,0.34106 -0.27905,0.71313 0,0.37207 0.26872,0.71314 0.26872,0.34106 0.69246,0.34106 0.38241,0 0.6718,-0.34106 0.28938,-0.34107 0.28938,-0.71314 0,-0.37207 -0.26871,-0.71313 -0.26872,-0.34107 -0.69247,-0.34107 z m -1.52962,5.01262 q 0,0.32039 0.5271,0.57877 0.5271,0.25838 1.19889,0.25838 0.6718,0 1.1989,-0.25838 0.5271,-0.25838 0.5271,-0.57877 0,-0.23772 -0.11369,-0.44442 -0.12403,-0.20671 -0.57878,-0.37207 -0.44442,-0.16537 -0.88883,-0.25838 -0.44442,-0.093 -0.91984,-0.15503 -0.69247,0.29972 -0.81649,0.62011 -0.13436,0.3204 -0.13436,0.60979 z"
           inkscape:connector-curvature="0" />
        <path
           id="path4675"
           style="font-style:normal;font-variant:normal;font-weight:normal;font-stretch:normal;font-family:'Sazanami Mincho';-inkscape-font-specification:'Sazanami Mincho';fill:#000000;stroke-width:0.26458332"
           d="m 116.76675,175.87462 q 0.45475,0 0.97152,0.37207 0.5271,0.36173 0.5271,1.28157 v 2.41846 q 0,0.42375 0.031,0.57878 0.031,0.15503 0.10336,0.15503 0.13436,0 0.23771,-0.0724 0.10335,-0.0724 0.33073,-0.47542 0.062,-0.11369 0.1757,-0.062 0.10335,0.031 0.0723,0.16537 -0.23771,0.46509 -0.46508,0.62012 -0.21704,0.15503 -0.39274,0.15503 -0.28939,0 -0.4961,-0.13436 -0.21704,-0.13436 -0.29972,-0.44442 -0.23771,0.22738 -0.56844,0.39274 -0.33073,0.16537 -0.88884,0.1757 -0.78548,0 -1.24023,-0.37207 -0.46509,-0.37207 -0.46509,-0.8785 0,-0.3824 0.23771,-0.77515 0.24805,-0.40307 0.95085,-0.76481 0.69246,-0.36173 1.95337,-0.43408 v -0.25838 q 0.0103,-0.82682 -0.23771,-1.04386 -0.24805,-0.21705 -0.53744,-0.21705 -0.36173,0 -0.65112,0.093 -0.28939,0.093 -0.42375,0.27905 -0.11369,0.1757 -0.10335,0.36174 0.0103,0.1757 -0.20671,0.33073 -0.21704,0.14469 -0.39274,0.12402 -0.1757,-0.0103 -0.24804,-0.16536 -0.0827,-0.1447 -0.0103,-0.37207 0.0724,-0.23771 0.42375,-0.4961 0.34106,-0.26871 0.74414,-0.40307 0.41341,-0.13436 0.86816,-0.13436 z m 0.77515,2.22209 q -1.15755,0.12402 -1.52962,0.31005 -0.37207,0.18604 -0.59945,0.53744 -0.22738,0.3514 -0.22738,0.79582 0,0.3824 0.27906,0.66145 0.28938,0.27906 0.65112,0.27906 0.40307,-0.0103 0.77514,-0.21704 0.38241,-0.19637 0.51677,-0.4961 0.13436,-0.29972 0.13436,-0.59944 z"
           inkscape:connector-curvature="0" />
        <path
           id="path4677"
           style="font-style:normal;font-variant:normal;font-weight:normal;font-stretch:normal;font-family:'Sazanami Mincho';-inkscape-font-specification:'Sazanami Mincho';fill:#000000;stroke-width:0.26458332"
           d="m 120.85953,180.15343 q 0,0.40307 0.69246,0.51676 v 0.26872 q -1.06453,-0.031 -2.07739,0 v -0.26872 q 0.66146,-0.11369 0.66146,-0.51676 v -3.41065 q 0,-0.28939 -0.54777,-0.33073 v -0.25838 q 1.00252,-0.093 1.14721,-0.36173 h 0.12403 v 0.99218 q 0.29972,-0.47542 0.69246,-0.69246 0.39274,-0.21704 0.78548,-0.21704 0.4961,0 1.03353,0.39274 0.53744,0.40308 0.53744,1.20923 v 2.67684 q 0,0.40307 0.69246,0.51676 v 0.26872 q -1.06453,-0.031 -2.07739,0 v -0.26872 q 0.66146,-0.11369 0.66146,-0.51676 v -2.64584 q 0,-0.71313 -0.23772,-0.98185 -0.23771,-0.26872 -0.62011,-0.26872 -0.3514,0 -0.66146,0.1757 -0.29972,0.16537 -0.54777,0.53744 -0.24805,0.36173 -0.25838,0.96118 z"
           inkscape:connector-curvature="0" />
      </g>
      <g
         id="text4540"
         style="font-style:normal;font-weight:normal;font-size:15.12646198px;line-height:1.25;font-family:sans-serif;letter-spacing:0px;word-spacing:0px;fill:#000000;fill-opacity:1;stroke:none;stroke-width:0.37816155"
         transform="scale(1.0359874,0.9652627)"
         aria-label="Google">
        <path
           id="path4650"
           style="font-style:normal;font-variant:normal;font-weight:normal;font-stretch:normal;font-family:'Abril Fatface';-inkscape-font-specification:'Abril Fatface';stroke-width:0.37816155"
           d="m 17.504162,179.61012 q 0.741197,0 0.937841,-0.27228 0.21177,-0.27227 0.21177,-0.92271 v -2.93454 H 17.68568 v -0.33278 h 4.356421 v 0.33278 h -0.589932 v 4.26567 h -0.226897 q -0.272276,-0.37816 -0.77145,-0.37816 -0.21177,0 -1.270622,0.27227 -1.043726,0.27228 -1.784923,0.27228 -2.465613,0 -3.826995,-1.33113 -1.346255,-1.33113 -1.346255,-3.99339 0,-2.67738 1.406761,-4.12952 1.421888,-1.45214 3.811869,-1.45214 0.922714,0 1.845428,0.24202 0.937841,0.2269 1.089105,0.2269 0.151265,0 0.226897,-0.0605 0.07563,-0.0756 0.166391,-0.24202 h 0.166391 l 0.121012,3.28244 h -0.272276 q -0.741197,-1.46726 -1.49752,-2.29922 -0.741197,-0.84708 -1.663911,-0.84708 -2.314349,0 -2.314349,4.52281 v 1.19499 q 0,2.26897 0.559679,3.43371 0.574806,1.14961 1.633658,1.14961 z"
           inkscape:connector-curvature="0" />
        <path
           id="path4652"
           style="font-style:normal;font-variant:normal;font-weight:normal;font-stretch:normal;font-family:'Abril Fatface';-inkscape-font-specification:'Abril Fatface';stroke-width:0.37816155"
           d="m 27.573186,176.78147 v -1.28575 q 0,-1.46727 -0.166391,-2.13283 -0.151264,-0.68069 -0.72607,-0.68069 -0.332782,0 -0.544552,0.19664 -0.196644,0.18152 -0.287403,0.62019 -0.136138,0.68069 -0.136138,2.07232 v 1.17987 q 0,1.64878 0.09076,1.98156 0.105886,0.33279 0.211771,0.54456 0.166391,0.36303 0.650438,0.36303 0.589932,0 0.771449,-0.68069 0.136138,-0.48405 0.136138,-2.17821 z m -0.93784,3.13118 q -1.890808,0 -2.858901,-0.9681 -0.968094,-0.96809 -0.968094,-2.76814 0,-1.81517 1.028599,-2.78327 1.043726,-0.98322 2.919408,-0.98322 1.875681,0 2.798395,0.90759 0.922714,0.89246 0.922714,2.73789 0,3.85725 -3.842121,3.85725 z"
           inkscape:connector-curvature="0" />
        <path
           id="path4654"
           style="font-style:normal;font-variant:normal;font-weight:normal;font-stretch:normal;font-family:'Abril Fatface';-inkscape-font-specification:'Abril Fatface';stroke-width:0.37816155"
           d="m 35.786382,176.78147 v -1.28575 q 0,-1.46727 -0.166391,-2.13283 -0.151264,-0.68069 -0.72607,-0.68069 -0.332782,0 -0.544553,0.19664 -0.196644,0.18152 -0.287402,0.62019 -0.136139,0.68069 -0.136139,2.07232 v 1.17987 q 0,1.64878 0.09076,1.98156 0.105885,0.33279 0.211771,0.54456 0.166391,0.36303 0.650438,0.36303 0.589932,0 0.771449,-0.68069 0.136138,-0.48405 0.136138,-2.17821 z m -0.93784,3.13118 q -1.890808,0 -2.858902,-0.9681 -0.968093,-0.96809 -0.968093,-2.76814 0,-1.81517 1.028599,-2.78327 1.043726,-0.98322 2.919407,-0.98322 1.875682,0 2.798396,0.90759 0.922714,0.89246 0.922714,2.73789 0,3.85725 -3.842121,3.85725 z"
           inkscape:connector-curvature="0" />
        <path
           id="path4656"
           style="font-style:normal;font-variant:normal;font-weight:normal;font-stretch:normal;font-family:'Abril Fatface';-inkscape-font-specification:'Abril Fatface';stroke-width:0.37816155"
           d="m 45.179442,171.77461 0.423541,-0.25715 q 0.09076,-0.46892 -0.363035,-0.46892 -0.650438,0 -0.650438,0.99835 0,0.39329 0.105885,0.90759 1.149611,0.77144 1.149611,1.98156 0,1.19499 -0.831955,1.86056 -0.831955,0.66556 -2.253843,0.66556 -0.589932,0 -1.225243,-0.12101 -0.665565,0.42354 -0.665565,0.63531 0,0.21177 0.968094,0.21177 h 1.542899 q 3.433707,0 3.433707,2.46561 0,1.33113 -1.043726,2.10258 -1.028599,0.78658 -3.221936,0.78658 -3.736236,0 -3.736236,-1.61853 0,-0.87734 1.164737,-1.21012 l 0.907588,0.40841 q -0.121012,0.43867 -0.121012,0.83196 0,1.30088 1.936187,1.30088 1.179864,0 1.815176,-0.43867 0.635311,-0.43867 0.635311,-1.08911 0,-0.65043 -0.393288,-0.87733 -0.378161,-0.21177 -1.527772,-0.21177 h -1.467267 q -1.225244,0 -1.75467,-0.40842 -0.529426,-0.40841 -0.529426,-0.99834 0,-0.60506 0.378161,-0.99835 0.378162,-0.40841 1.346256,-0.99835 -1.75467,-0.49917 -1.75467,-2.29922 0,-1.13448 0.816829,-1.8303 0.816829,-0.69582 2.450487,-0.69582 0.98322,0 1.679037,0.37816 -0.09076,-0.40841 -0.09076,-0.74119 0,-0.84708 0.453794,-1.22525 0.453794,-0.37816 1.013473,-0.37816 0.559679,0 0.892461,0.30253 0.347909,0.2874 0.347909,0.8017 0,0.5143 -0.272276,0.77145 -0.272277,0.24203 -0.665565,0.24203 -0.378161,0 -0.635311,-0.19665 -0.242023,-0.21177 -0.25715,-0.58993 z m -3.20681,2.82865 v 0.81683 q 0,1.01347 0.166391,1.37651 0.181518,0.36303 0.529426,0.36303 0.363036,0 0.5143,-0.34791 0.166391,-0.36303 0.166391,-1.46726 v -0.7412 q 0,-1.17986 -0.151264,-1.5429 -0.151265,-0.37816 -0.5143,-0.37816 -0.347909,0 -0.529426,0.39329 -0.181518,0.37816 -0.181518,1.52777 z"
           inkscape:connector-curvature="0" />
        <path
           id="path4658"
           style="font-style:normal;font-variant:normal;font-weight:normal;font-stretch:normal;font-family:'Abril Fatface';-inkscape-font-specification:'Abril Fatface';stroke-width:0.37816155"
           d="m 46.941439,168.41654 h 3.705983 v 11.07257 h 0.847082 v 0.27227 h -4.492559 v -0.27227 H 47.8339 v -10.8003 h -0.892461 z"
           inkscape:connector-curvature="0" />
        <path
           id="path4660"
           style="font-style:normal;font-variant:normal;font-weight:normal;font-stretch:normal;font-family:'Abril Fatface';-inkscape-font-specification:'Abril Fatface';stroke-width:0.37816155"
           d="m 55.766311,179.91265 q -1.951314,0 -2.934534,-0.99835 -0.968094,-1.01347 -0.968094,-2.79839 0,-1.80005 1.089106,-2.75302 1.104231,-0.95297 2.798395,-0.95297 3.433707,0 3.297569,3.44884 h -4.265662 v 0.58993 q 0,1.48239 0.378161,2.23871 0.378162,0.75633 1.316002,0.75633 1.75467,0 2.299223,-1.87568 l 0.272276,0.0454 q -0.287403,1.0891 -1.043726,1.69416 -0.741197,0.60506 -2.238716,0.60506 z m -0.968094,-4.35642 h 1.558026 v -0.7412 q 0,-1.22524 -0.151265,-1.66391 -0.136138,-0.45379 -0.574806,-0.45379 -0.423541,0 -0.635311,0.48404 -0.196644,0.46892 -0.196644,1.63366 z"
           inkscape:connector-curvature="0" />
      </g>
    </g>
    <flowRoot
       xml:space="preserve"
       id="flowRoot4630"
       style="font-style:normal;font-weight:normal;font-size:40px;line-height:1.25;font-family:sans-serif;letter-spacing:0px;word-spacing:0px;fill:#000000;fill-opacity:1;stroke:none"><flowRegion
         id="flowRegion4632"><rect
           id="rect4634"
           width="48.57143"
           height="59.285713"
           x="115.71429"
           y="201.07143" /></flowRegion><flowPara
         id="flowPara4636"></flowPara></flowRoot>  </g>
</svg>
