<?xml version="1.0" standalone="no"?>
<!DOCTYPE svg PUBLIC "-//W3C//DTD SVG 20010904//EN"
 "http://www.w3.org/TR/2001/REC-SVG-20010904/DTD/svg10.dtd">
<svg version="1.0" xmlns="http://www.w3.org/2000/svg"
 width="700.000000pt" height="700.000000pt" viewBox="0 0 700.000000 700.000000"
 preserveAspectRatio="xMidYMid meet">
<metadata>
Created by potrace 1.11, written by Peter Selinger 2001-2013
</metadata>
<g transform="translate(0.000000,700.000000) scale(0.100000,-0.100000)"
fill="#000000" stroke="none">
<path d="M3339 6306 c-2 -2 -38 -6 -79 -10 -228 -20 -505 -87 -732 -177 -248
-98 -524 -255 -700 -397 -171 -138 -341 -304 -443 -432 -33 -41 -63 -77 -66
-80 -3 -3 -35 -48 -71 -101 -149 -218 -255 -430 -352 -706 -14 -40 -23 -73
-20 -73 2 0 0 -9 -6 -20 -10 -18 -52 -197 -63 -265 -3 -16 -10 -59 -16 -95
-19 -119 -25 -213 -25 -395 0 -243 14 -384 60 -590 9 -38 18 -81 21 -95 11
-59 106 -328 153 -432 371 -824 1133 -1425 2020 -1593 14 -3 36 -7 50 -10 14
-3 43 -7 65 -10 22 -2 54 -6 70 -9 120 -19 391 -25 569 -12 117 8 349 46 466
76 502 128 943 380 1304 745 l79 79 -116 111 c-63 60 -177 169 -253 241 l-137
131 -77 -76 c-129 -127 -222 -202 -362 -290 -344 -216 -720 -324 -1128 -324
-285 0 -497 41 -800 154 -19 8 -90 42 -158 76 -371 189 -682 489 -879 849
-116 211 -182 406 -229 674 -19 113 -26 438 -11 525 3 17 8 53 12 80 31 251
155 576 305 805 210 319 489 566 825 730 236 115 453 180 690 208 82 10 425 9
505 -1 301 -37 623 -153 875 -315 157 -101 272 -197 412 -344 l71 -76 204 180
c111 100 229 204 260 233 l58 52 -63 69 c-311 341 -689 593 -1122 749 -120 43
-307 97 -380 109 -16 2 -52 9 -80 14 -27 6 -72 13 -100 16 -27 4 -66 9 -85 12
-40 7 -514 16 -521 10z"/>
<path d="M3444 4837 l-61 -62 123 -122 123 -123 61 56 c33 31 59 60 58 65 -3
8 -118 127 -195 201 l-49 48 -60 -63z"/>
<path d="M2846 4241 l-479 -479 121 -121 c67 -66 125 -121 129 -121 4 0 223
216 486 479 l479 479 -121 121 c-66 67 -124 121 -128 121 -5 0 -223 -216 -487
-479z"/>
<path d="M3731 4429 c-67 -67 -121 -124 -121 -128 0 -3 54 -60 120 -126 l120
-119 38 37 c30 29 41 34 50 25 9 -9 4 -20 -25 -50 l-37 -38 119 -120 c66 -66
124 -120 128 -120 5 0 22 14 37 30 15 17 33 30 38 30 25 0 20 -20 -13 -56
l-35 -38 122 -123 122 -123 38 37 c30 29 41 34 50 25 9 -9 4 -20 -25 -50 l-37
-38 124 -123 123 -123 109 109 c60 60 115 117 123 126 12 16 -39 70 -517 547
l-531 530 -120 -121z"/>
<path d="M3454 3789 c-42 -12 -97 -68 -111 -111 -7 -25 -10 -237 -9 -680 1
-601 2 -645 19 -680 22 -43 79 -84 127 -92 78 -12 167 40 191 112 18 53 20
1268 2 1331 -26 93 -124 147 -219 120z"/>
<path d="M2315 3689 c-22 -97 -54 -274 -49 -278 6 -7 294 50 294 58 0 3 -54
59 -120 125 -108 107 -120 116 -125 95z"/>
</g>
</svg>
