<?xml version="1.0" encoding="UTF-8"?>
<svg width="32px" height="30px" viewBox="0 0 32 30" version="1.1" xmlns="http://www.w3.org/2000/svg" xmlns:xlink="http://www.w3.org/1999/xlink">
    <!-- Generator: Sketch 53 (72520) - https://sketchapp.com -->
    <title>Artboard</title>
    <desc>Created with Sketch.</desc>
    <g id="Artboard" stroke="none" stroke-width="1" fill="none" fill-rule="evenodd">
        <g id="apply" fill="#000000" fill-rule="nonzero">
            <g id="Path" transform="translate(12.111201, 4.984997)">
                <path d="M15.209259,5.57048313 C14.3628133,6.41692892 13.5130218,7.26672034 12.6665761,8.11316612 C12.2316434,8.54809874 11.7933652,8.98637699 11.3584326,9.42130961 C10.2978661,10.4818761 9.23395402,11.5457882 8.17338756,12.6063546 C7.0559453,13.7237969 5.94184867,14.8378935 4.82440641,15.9553358 C4.42962142,16.3501208 4.03149079,16.7482514 3.6367058,17.1430364 C3.45269585,17.3270463 3.25530336,17.5010194 3.08467594,17.6950662 C3.08133031,17.7017575 3.07463904,17.7051031 3.0712934,17.7084488 C3.05791086,17.7285226 3.34228988,17.5277845 3.23522954,17.577969 C3.31552479,17.5445126 3.39582005,17.5110563 3.4761153,17.4775999 C3.38578314,17.5144019 3.28206844,17.5277845 3.18504501,17.541167 C3.27537717,17.5277845 3.36236369,17.5177476 3.45269585,17.504365 C2.64639769,17.6080797 1.82002572,17.5980428 1.00703629,17.5946972 C1.34159984,17.9292607 1.67616339,18.2638243 2.01072694,18.5983878 C2.00403567,17.7753615 1.99065313,16.935607 2.0910222,16.1192719 C2.07763965,16.2096041 2.06760275,16.2965906 2.05422021,16.3869227 C2.07763965,16.2096041 2.147898,16.035631 2.147898,15.8583123 C2.1010591,16.0255941 2.05756584,16.1962215 2.01072694,16.3635033 C1.87690152,16.5876609 1.8467908,16.5575502 1.93377733,16.4705636 C1.98396186,16.4203791 2.03414639,16.3701946 2.08433093,16.32001 C2.26164961,16.1426914 2.43896829,15.9653727 2.61963261,15.7847084 C3.1649712,15.2393698 3.70696415,14.6973768 4.25230274,14.1520382 C5.0586009,13.3457401 5.86489906,12.5394419 6.66785158,11.7364894 C7.50091482,10.9034261 8.33397807,10.0670173 9.17038694,9.23395402 C9.78932951,8.61501145 10.4116177,7.99272324 11.0305603,7.37378067 C12.0041402,6.40020074 12.9810658,5.42327517 13.9546457,4.44969523 C13.9780652,4.42627578 14.0014846,4.40285634 14.0249041,4.37943689 C13.5531695,4.37943689 13.0780892,4.37943689 12.6063546,4.37943689 C13.3658139,5.13889615 14.1252731,5.89835541 14.8813868,6.65446904 C14.9917927,6.76487501 15.1021987,6.87528098 15.2126047,6.98568695 C15.5839702,7.3570525 16.2664799,7.38381758 16.6311541,6.98568695 C16.999174,6.58421069 17.0292848,5.96192249 16.6311541,5.5671375 C15.8683492,4.8043326 15.1021987,4.03818207 14.3393938,3.27537717 C14.2323335,3.16831683 14.1286188,3.06460213 14.0215584,2.95754179 C13.6368104,2.57279371 12.9877571,2.57279371 12.603009,2.95754179 C11.7097243,3.85082648 10.8164396,4.74411116 9.92315493,5.63739584 C9.31759491,6.24295587 8.71538051,6.84517026 8.11316612,7.45073029 C7.16969691,8.3941995 6.22288206,9.34101435 5.27941284,10.2844836 C4.57348375,10.9904127 3.86755465,11.6963418 3.16162556,12.4022709 C2.27168651,13.2922099 1.36836493,14.172112 0.491808421,15.0754336 C0.284379019,15.2895543 0.143862327,15.5538595 0.143862327,15.8583123 C0.157244869,15.7679802 0.167281776,15.6809937 0.180664318,15.5906615 C0.0802952523,15.8716949 0.0736039813,16.1928759 0.0535301682,16.4872918 C0.0301107196,16.8017816 0.0234194486,17.1196169 0.0167281776,17.4341067 C0.0100369065,17.8222004 0.00669127103,18.2102941 0.0100369065,18.5983878 C0.0133825421,19.1437264 0.465043336,19.5987328 1.01372756,19.6020785 C1.75980428,19.6054241 2.50922664,19.6020785 3.25195772,19.5351658 C3.70696415,19.4916725 4.15527931,19.4548705 4.5032254,19.1236526 C4.57348375,19.0567399 4.64039646,18.9864815 4.70730917,18.9195688 C5.64743275,17.9794453 6.59090196,17.035976 7.53102554,16.0958525 C8.86258848,14.7642895 10.1941514,13.4327266 11.5257143,12.1011637 C12.3420494,11.2848286 13.1583845,10.4684935 13.9747195,9.65215846 C14.824511,8.80236704 15.6709567,7.95592125 16.5207482,7.10612983 C16.5575502,7.06932784 16.5976978,7.02918021 16.6344998,6.99237822 C17.0058653,6.62101268 17.0326304,5.93850304 16.6344998,5.57382877 C16.2296779,5.20246322 15.6073897,5.17569814 15.209259,5.57048313 Z"></path>
                <path d="M17.7285226,3.05121959 C16.9958284,3.78391377 16.2597886,4.51995358 15.5270944,5.25264776 C15.4200341,5.35970809 15.3163194,5.46342279 15.209259,5.57048313 C15.6809937,5.57048313 16.1560739,5.57048313 16.6278085,5.57048313 C15.8650036,4.80767823 15.0988531,4.0415277 14.3360482,3.2787228 C14.2289878,3.17166247 14.1252731,3.06794777 14.0182128,2.96088743 C14.0182128,3.43262204 14.0182128,3.90770228 14.0182128,4.37943689 C14.7642895,3.63336017 15.5103662,2.88728345 16.2597886,2.13786109 C16.3300469,2.06760275 16.4003053,1.9973444 16.4705636,1.92708606 C16.4872918,1.91035788 16.5107113,1.8936297 16.5240938,1.87355589 C16.5240938,1.87021025 16.5341307,1.86686462 16.5341307,1.86351898 C16.5307851,1.91035788 16.3032819,2.00069004 16.4906374,1.91370351 C16.4103422,1.94715987 16.3300469,1.98061622 16.2497517,2.01407258 C16.2965906,1.9973444 16.3367382,1.9873075 16.3869227,1.98061622 C16.2965906,1.99399877 16.2096041,2.00403567 16.1192719,2.01741821 C16.1493826,2.01407258 16.182839,2.01407258 16.2129497,2.01741821 C16.1226175,2.00403567 16.035631,1.99399877 15.9452989,1.98061622 C15.998829,1.99065313 16.0456679,2.00069004 16.0958525,2.02076385 C16.0155572,1.9873075 15.935262,1.95385114 15.8549667,1.92039478 C16.0289397,2.01072694 16.2129497,2.08433093 16.4136878,2.08433093 C16.2464061,2.03749203 16.0757786,1.99399877 15.9084969,1.94715987 C15.9854465,1.9973444 16.0389767,2.08433093 15.7913996,1.85682771 C15.6943762,1.61928759 15.5940071,1.3850931 15.4969837,1.14755298 C15.4969837,1.70292848 16.0490136,2.11444164 16.4103422,2.47577028 C16.7716708,2.83709892 17.1363451,3.20177319 17.4976737,3.56310182 C17.5545495,3.61997763 17.614771,3.68019907 17.6716468,3.73707487 C17.6850293,3.75045741 17.6984119,3.76718559 17.7117944,3.7772225 C17.7117944,3.7772225 17.7184857,3.78391377 17.7184857,3.78391377 C17.7184857,3.78391377 17.7184857,3.78391377 17.7184857,3.78391377 C17.7385595,3.80398758 17.7218313,3.78056813 17.6683011,3.71700106 C17.5645864,3.57648436 17.6448817,3.69023597 17.6616099,3.7303836 C17.6281535,3.65008835 17.5946972,3.56979309 17.5612408,3.48949784 C17.577969,3.5329911 17.5880059,3.56979309 17.5946972,3.61663199 C17.5813146,3.52629983 17.5712777,3.43931331 17.5578952,3.34898115 C17.5612408,3.39247441 17.5612408,3.43262204 17.5578952,3.47946093 C17.5712777,3.38912878 17.5813146,3.30214225 17.5946972,3.21181009 C17.5880059,3.25530336 17.5746234,3.29545098 17.5612408,3.33894424 C17.5946972,3.25864899 17.6281535,3.17835374 17.6616099,3.09805849 C17.6281535,3.19842755 17.5545495,3.24526645 17.7285226,3.05121959 C17.3738852,3.43931331 17.3170094,4.09171223 17.7285226,4.46976905 C18.1132707,4.82440641 18.7723609,4.88462785 19.147072,4.46976905 C19.7091388,3.85417211 19.7158301,2.9675787 19.1370351,2.35867304 C19.0232835,2.23823016 18.9028407,2.12447855 18.789089,2.01072694 C18.3775759,1.59921378 17.9660627,1.18770061 17.5545495,0.776187439 C17.4441436,0.665781467 17.3337376,0.555375495 17.219986,0.441623888 C17.3170094,0.679164009 17.4173785,0.913358495 17.5144019,1.15089862 C17.5144019,0.585486215 16.9857915,0.0802952523 16.4237247,0.0802952523 C16.5910065,0.12713415 16.7616339,0.170627411 16.9289157,0.217466308 C16.293245,-0.153899234 15.5538595,0.0100369065 15.0520142,0.508536598 C14.8746955,0.68585528 14.6973768,0.863173963 14.5200581,1.04049264 C14.0048303,1.55572051 13.4896024,2.07094838 12.9743745,2.58617625 C12.850586,2.70996477 12.7234519,2.83709892 12.5996633,2.96088743 C12.2149153,3.34563551 12.2149153,3.9946888 12.5996633,4.37943689 C13.3591226,5.13889615 14.1185819,5.89835541 14.8746955,6.65446904 C14.9851015,6.76487501 15.0955074,6.87528098 15.2059134,6.98568695 C15.5906615,7.37043504 16.2397148,7.37043504 16.6244629,6.98568695 C17.357157,6.25299278 18.0931969,5.51695296 18.825891,4.78425878 C18.9329514,4.67719845 19.0366661,4.57348375 19.1437264,4.46642341 C19.515092,4.09505787 19.541857,3.41254822 19.1437264,3.04787395 C18.7489414,2.68654532 18.1266532,2.6564346 17.7285226,3.05121959 Z"></path>
                <path d="M17.7285226,3.05121959 C16.9958284,3.78391377 16.2597886,4.51995358 15.5270944,5.25264776 C15.4200341,5.35970809 15.3163194,5.46342279 15.209259,5.57048313 C15.6809937,5.57048313 16.1560739,5.57048313 16.6278085,5.57048313 C15.8650036,4.80767823 15.0988531,4.0415277 14.3360482,3.2787228 C14.2289878,3.17166247 14.1252731,3.06794777 14.0182128,2.96088743 C14.0182128,3.43262204 14.0182128,3.90770228 14.0182128,4.37943689 C14.7642895,3.63336017 15.5103662,2.88728345 16.2597886,2.13786109 C16.3300469,2.06760275 16.4003053,1.9973444 16.4705636,1.92708606 C16.4872918,1.91035788 16.5107113,1.8936297 16.5240938,1.87355589 C16.5240938,1.87021025 16.5341307,1.86686462 16.5341307,1.86351898 C16.5307851,1.91035788 16.3032819,2.00069004 16.4906374,1.91370351 C16.4103422,1.94715987 16.3300469,1.98061622 16.2497517,2.01407258 C16.2965906,1.9973444 16.3367382,1.9873075 16.3869227,1.98061622 C16.2965906,1.99399877 16.2096041,2.00403567 16.1192719,2.01741821 C16.1493826,2.01407258 16.182839,2.01407258 16.2129497,2.01741821 C16.1226175,2.00403567 16.035631,1.99399877 15.9452989,1.98061622 C15.998829,1.99065313 16.0456679,2.00069004 16.0958525,2.02076385 C16.0155572,1.9873075 15.935262,1.95385114 15.8549667,1.92039478 C16.0289397,2.01072694 16.2129497,2.08433093 16.4136878,2.08433093 C16.2464061,2.03749203 16.0757786,1.99399877 15.9084969,1.94715987 C16.0690874,2.05422021 15.7044131,1.76314992 15.824856,1.89028407 C15.8650036,1.93377733 15.9118425,1.97727059 15.9553358,2.02076385 C16.1125806,2.17800872 16.2664799,2.33190795 16.4237247,2.48915282 C16.7850534,2.85048146 17.146382,3.21181009 17.5077106,3.57313873 C17.5645864,3.63001453 17.6181166,3.6835447 17.6749924,3.7404205 C17.688375,3.75380305 17.7017575,3.77053122 17.71514,3.78056813 C17.71514,3.78056813 17.7218313,3.7872594 17.7218313,3.7872594 C17.7218313,3.7872594 17.7218313,3.7872594 17.7218313,3.7872594 C17.7419051,3.80733321 17.725177,3.78391377 17.6716468,3.72034669 C17.5679321,3.57983 17.6482273,3.69358161 17.6649555,3.73372923 C17.6314992,3.65343398 17.5980428,3.57313873 17.5645864,3.49284348 C17.5813146,3.53633674 17.5913515,3.57313873 17.5980428,3.61997763 C17.5846603,3.52964547 17.5746234,3.44265894 17.5612408,3.35232678 C17.5645864,3.39582005 17.5645864,3.43596767 17.5612408,3.48280657 C17.5746234,3.39247441 17.5846603,3.30548789 17.5980428,3.21515573 C17.5913515,3.25864899 17.577969,3.29879662 17.5645864,3.34228988 C17.5980428,3.26199463 17.6314992,3.18169937 17.6649555,3.10140412 C17.6281535,3.19842755 17.5545495,3.24526645 17.7285226,3.05121959 C17.3738852,3.43931331 17.3170094,4.09171223 17.7285226,4.46976905 C18.1132707,4.82440641 18.7723609,4.88462785 19.147072,4.46976905 C19.7091388,3.85417211 19.7158301,2.95754179 19.1303439,2.35198177 C18.9998641,2.21481071 18.862693,2.08433093 18.7288676,1.9505055 C18.3006263,1.52226416 17.8690393,1.09067718 17.4407979,0.662435832 C17.1530733,0.374711178 16.8720399,0.0769496168 16.4237247,0.0769496168 C16.5910065,0.123788514 16.7616339,0.167281776 16.9289157,0.214120673 C16.293245,-0.157244869 15.5538595,0.00669127103 15.0520142,0.505190963 C14.8746955,0.682509645 14.6973768,0.859828327 14.5200581,1.03714701 C14.0048303,1.55237488 13.4896024,2.06760275 12.9743745,2.58283062 C12.850586,2.70661913 12.7234519,2.83375328 12.5996633,2.95754179 C12.2149153,3.34228988 12.2149153,3.99134317 12.5996633,4.37609125 C13.3591226,5.13555051 14.1185819,5.89500978 14.8746955,6.6511234 C14.9851015,6.76152937 15.0955074,6.87193535 15.2059134,6.98234132 C15.5906615,7.3670894 16.2397148,7.3670894 16.6244629,6.98234132 C17.357157,6.24964714 18.0931969,5.51360733 18.825891,4.78091315 C18.9329514,4.67385281 19.0366661,4.57013811 19.1437264,4.46307778 C19.515092,4.09171223 19.541857,3.40920259 19.1437264,3.04452832 C18.7489414,2.68654532 18.1266532,2.6564346 17.7285226,3.05121959 Z"></path>
                <path d="M0.173973047,15.5940071 C0.170627411,15.604044 0.167281776,15.6174266 0.160590505,15.6274635 C0.117097243,15.7612889 0.113751607,15.8951143 0.143862327,16.0289397 C0.150553598,16.1627652 0.190701224,16.2865537 0.264305206,16.4036509 C0.32787228,16.5207482 0.414858804,16.614426 0.52191914,16.6846843 C0.61894257,16.7750165 0.732694178,16.8318923 0.863173963,16.8653486 C0.953506121,16.8787312 1.04049264,16.8887681 1.1308248,16.9021506 C1.31148912,16.9021506 1.48211653,16.8553117 1.63601577,16.7649796 C1.70292848,16.7114494 1.76984119,16.6612649 1.84009953,16.6077347 C1.96388805,16.4839462 2.05087457,16.3333926 2.09771347,16.1661108 C2.1010591,16.1560739 2.10440474,16.1426914 2.11109601,16.1326544 C2.15458927,15.998829 2.15793491,15.8650036 2.12782419,15.7311782 C2.12113292,15.5973528 2.08098529,15.4735643 2.00738131,15.356467 C1.94381423,15.2393698 1.85682771,15.145692 1.74976737,15.0754336 C1.65274394,14.9851015 1.53899234,14.9282257 1.40851255,14.8947693 C1.31818039,14.8813868 1.23119387,14.8713499 1.14086171,14.8579673 C0.960197392,14.8579673 0.789569981,14.9048062 0.635670748,14.9951384 C0.568758037,15.0486685 0.501845327,15.0988531 0.431586981,15.1523832 C0.307798467,15.2761718 0.220811944,15.4233797 0.173973047,15.5940071 L0.173973047,15.5940071 Z"></path>
                <path d="M2.00738131,16.3668489 C2.01407258,16.3534664 2.02076385,16.3400838 2.02745512,16.3300469 C1.97392495,16.3969597 1.92374042,16.4638724 1.87021025,16.5341307 C1.87355589,16.5307851 1.87355589,16.5307851 1.87690152,16.5274394 C1.40516692,16.5274394 0.930086673,16.5274394 0.458352065,16.5274394 C0.458352065,16.5274394 0.458352065,16.5274394 0.458352065,16.5274394 C0.548684224,16.6244629 0.655744561,16.6947212 0.78287871,16.7348688 C0.903321589,16.7984359 1.03045574,16.825201 1.17097243,16.8218554 C1.30814349,16.8285466 1.43862327,16.7984359 1.55906615,16.7348688 C1.68285466,16.6947212 1.789915,16.6244629 1.88359279,16.5274394 C1.93712296,16.4605267 1.9873075,16.393614 2.04083766,16.3233557 C2.13116982,16.1661108 2.17800872,15.998829 2.17800872,15.8181647 C2.16462618,15.7278326 2.15458927,15.640846 2.14120673,15.5505139 C2.09436783,15.3798865 2.00738131,15.2326785 1.88359279,15.10889 C1.88359279,15.10889 1.88359279,15.10889 1.88359279,15.10889 C1.79326064,15.0118666 1.6862003,14.9416082 1.55906615,14.9014606 C1.43862327,14.8378935 1.31148912,14.8111284 1.17097243,14.8144741 C1.08064027,14.8278566 0.993653748,14.8378935 0.903321589,14.851276 C0.732694178,14.8981149 0.585486215,14.9851015 0.461697701,15.10889 C0.398130626,15.1758027 0.341254822,15.2494067 0.294415925,15.3263563 C0.287724654,15.3363932 0.284379019,15.3430845 0.281033383,15.3531214 C0.207429402,15.466873 0.167281776,15.5940071 0.160590505,15.7278326 C0.130479785,15.861658 0.137171056,15.9954834 0.177318682,16.1293088 C0.207429402,16.2597886 0.267650841,16.3735402 0.357983,16.4705636 C0.428241346,16.5809696 0.52191914,16.6646105 0.639016383,16.7281776 C0.719311635,16.7616339 0.799606888,16.7950903 0.87990214,16.8285466 C1.05722082,16.8753855 1.2345395,16.8753855 1.41520382,16.8285466 C1.49549907,16.7950903 1.57579433,16.7616339 1.65608958,16.7281776 C1.79660627,16.6378454 1.91704915,16.5174025 2.00738131,16.3668489 L2.00738131,16.3668489 Z"></path>
            </g>
            <path d="M24.4331762,3.19508192 C24.4331762,4.79429569 24.4331762,6.3968551 24.4331762,7.99606888 C24.4331762,8.22022646 24.4331762,8.44772967 24.4331762,8.67188725 C25.0052798,8.43434713 25.5740379,8.20015264 26.1461415,7.96261252 C26.1394503,7.95592125 26.1361046,7.95257562 26.1294134,7.94588435 C25.7446653,7.56113626 25.095612,7.56113626 24.7108639,7.94588435 C23.8175792,8.83916903 22.9242945,9.73245371 22.0310099,10.6257384 C21.4254498,11.2312984 20.8232354,11.8335128 20.221021,12.4390728 C19.2775518,13.3825421 18.330737,14.3293569 17.3872678,15.2728261 C16.6813387,15.9787552 15.9754096,16.6846843 15.2694805,17.3906134 C14.3795414,18.2805524 13.4762199,19.1604546 12.5996633,20.0637762 C12.3922339,20.2778968 12.2517173,20.5422021 12.2517173,20.8466549 C12.2650998,20.7563227 12.2751367,20.6693362 12.2885192,20.579004 C12.1881502,20.8600374 12.1814589,21.1812184 12.1613851,21.4756344 C12.1379656,21.7901241 12.1312744,22.1079595 12.1245831,22.4224492 C12.1178918,22.8105429 12.1145462,23.1986367 12.1178918,23.5867304 C12.1212375,24.132069 12.5728983,24.5870754 13.1215825,24.590421 C13.7037231,24.5937667 14.282518,24.5837298 14.8646586,24.5569647 C15.4769099,24.526854 16.1728021,24.5368909 16.641191,24.0852301 C17.2066034,23.5365458 17.7586333,22.9677878 18.3140088,22.4124123 C19.3511558,21.3752653 20.3883028,20.3381183 21.4254498,19.3009713 C22.4592512,18.2671699 23.4930526,17.2333685 24.526854,16.1995672 C25.0621556,15.6642655 25.6108399,15.1423463 26.1294134,14.5970077 C26.1361046,14.5903165 26.1461415,14.5802796 26.1528328,14.5735883 C25.5807291,14.3360482 25.0119711,14.1018537 24.4398674,13.8643136 C24.4398674,14.3126287 24.4398674,14.7575983 24.4398674,15.2059134 C24.4398674,16.2765168 24.4398674,17.3471201 24.4398674,18.4177235 C24.4398674,19.7057932 24.4398674,20.9938628 24.4398674,22.2785869 C24.4398674,23.3726097 24.4398674,24.4666325 24.4398674,25.5606553 C24.4398674,26.0658463 24.4432131,26.5710373 24.4398674,27.0795738 C24.4398674,27.1732516 24.4331762,27.2702751 24.4231393,27.3639529 C24.4365218,27.2736207 24.4465587,27.1866342 24.4599412,27.096302 C24.4331762,27.2903489 24.3829916,27.4743588 24.3093876,27.6550232 C24.342844,27.5747279 24.3763004,27.4944327 24.4097567,27.4141374 C24.3562265,27.5345803 24.2993507,27.6516775 24.2257468,27.7620835 C24.2056729,27.7921942 24.1822535,27.8223049 24.1655253,27.8524157 C24.1186864,27.9360565 24.3394984,27.6483319 24.2290924,27.7687748 C24.1855991,27.8156137 24.1421059,27.8657982 24.0986126,27.9126371 C24.0517737,27.959476 24.0015892,27.9996236 23.9547503,28.0431169 C23.8510356,28.1367947 24.0551193,27.9628216 24.0551193,27.9661673 C24.058465,27.9728585 23.9714785,28.0230431 23.9647872,28.0297343 C23.8476899,28.106684 23.7272471,28.170251 23.6001129,28.2271268 C23.6804082,28.1936705 23.7607034,28.1602141 23.8409987,28.1267578 C23.6603344,28.2003617 23.4729788,28.2505463 23.2822775,28.2773114 C23.3726097,28.2639288 23.4595962,28.2538919 23.5499284,28.2405094 C23.2990057,28.2706201 23.0413918,28.2572376 22.7871235,28.2572376 C22.305352,28.2572376 21.8269261,28.2572376 21.3451546,28.2572376 C19.7325583,28.2572376 18.1199619,28.2572376 16.50402,28.2572376 C14.5468232,28.2572376 12.5929721,28.2572376 10.6357753,28.2572376 C8.95292064,28.2572376 7.27006597,28.2572376 5.58721131,28.2572376 C4.79764133,28.2572376 4.00472571,28.2639288 3.21515573,28.2572376 C3.11478666,28.2572376 3.01776323,28.2505463 2.9207398,28.2405094 C3.01107196,28.2538919 3.09805849,28.2639288 3.18839064,28.2773114 C2.99434378,28.2505463 2.81033383,28.2003617 2.62966951,28.1267578 C2.70996477,28.1602141 2.79026002,28.1936705 2.87055527,28.2271268 C2.75011239,28.1769423 2.63301515,28.1167209 2.52260918,28.0431169 C2.49249846,28.0230431 2.46238774,27.9996236 2.43227702,27.9828954 C2.34863613,27.9360565 2.63636078,28.1568685 2.51591791,28.0464625 C2.46907901,28.0029693 2.41889448,27.959476 2.37205558,27.9159827 C2.32521668,27.8691438 2.28506906,27.8189593 2.24157579,27.7721204 C2.147898,27.6684057 2.32187105,27.8724895 2.31852541,27.8724895 C2.31183414,27.8758351 2.26164961,27.7888486 2.25495834,27.7821573 C2.17800872,27.6650601 2.11444164,27.5446172 2.05756584,27.417483 C2.0910222,27.4977783 2.12447855,27.5780735 2.15793491,27.6583688 C2.08433093,27.4777045 2.03414639,27.2903489 2.00738131,27.0996477 C2.02076385,27.1899798 2.03080076,27.2769663 2.0441833,27.3672985 C2.01072694,27.0829195 2.02745512,26.7918492 2.02745512,26.5041245 C2.02745512,25.9320209 2.02745512,25.3599172 2.02745512,24.7878135 C2.02745512,23.9313308 2.02745512,23.0715025 2.02745512,22.2150198 C2.02745512,21.157799 2.02745512,20.1005782 2.02745512,19.0433573 C2.02745512,17.8891131 2.02745512,16.7348688 2.02745512,15.577279 C2.02745512,14.4063065 2.02745512,13.2353341 2.02745512,12.061016 C2.02745512,10.9770301 2.02745512,9.88969858 2.02745512,8.80571267 C2.02745512,7.89235418 2.02745512,6.97899568 2.02745512,6.06563719 C2.02745512,5.41323826 2.02745512,4.76083934 2.02745512,4.10844041 C2.02745512,3.81402449 2.02745512,3.51960856 2.02745512,3.22519264 C2.02745512,3.12482357 2.03414639,3.0244545 2.0441833,2.92408544 C2.03080076,3.0144176 2.02076385,3.10140412 2.00738131,3.19173628 C2.03414639,2.99768942 2.08433093,2.81367947 2.15793491,2.63301515 C2.12447855,2.7133104 2.0910222,2.79360565 2.05756584,2.87390091 C2.11109601,2.75345803 2.16797181,2.63636078 2.24157579,2.52595481 C2.26164961,2.49584409 2.28506906,2.46573337 2.30179723,2.43562265 C2.34863613,2.35198177 2.12782419,2.63970642 2.23823016,2.51926354 C2.28172342,2.47242464 2.32521668,2.42224011 2.36870994,2.37540121 C2.41554884,2.32856232 2.46573337,2.28841469 2.51257227,2.24492143 C2.61628697,2.15124364 2.41220321,2.32521668 2.41220321,2.32187105 C2.40885757,2.31517978 2.49584409,2.26499524 2.50253536,2.25830397 C2.61963261,2.18135436 2.74007549,2.11778728 2.86720964,2.06091148 C2.78691438,2.09436783 2.70661913,2.12782419 2.62632388,2.16128054 C2.8069882,2.08767656 2.99434378,2.03749203 3.18504501,2.01072694 C3.09471285,2.02410949 3.00772633,2.03414639 2.91739417,2.04752893 C3.16831683,2.01741821 3.42593077,2.03080076 3.68019907,2.03080076 C4.16197058,2.03080076 4.64039646,2.03080076 5.12216797,2.03080076 C6.73476429,2.03080076 8.34736061,2.03080076 9.96330256,2.03080076 C11.9204993,2.03080076 13.8743505,2.03080076 15.8315473,2.03080076 C17.5144019,2.03080076 19.1972566,2.03080076 20.8801112,2.03080076 C21.6696812,2.03080076 22.4625968,2.02410949 23.2521668,2.03080076 C23.3525359,2.03080076 23.4495593,2.03749203 23.5465827,2.04752893 C23.4562506,2.03414639 23.3692641,2.02410949 23.2789319,2.01072694 C23.4729788,2.03749203 23.6569887,2.08767656 23.837653,2.16128054 C23.7573578,2.12782419 23.6770625,2.09436783 23.5967673,2.06091148 C23.7172102,2.11109601 23.8343074,2.17131745 23.9447134,2.24492143 C23.9748241,2.26499524 24.0049348,2.28841469 24.0350455,2.30514287 C24.1186864,2.35198177 23.8309618,2.13116982 23.9514046,2.24157579 C23.9982435,2.28506906 24.0484281,2.32856232 24.095267,2.37205558 C24.1421059,2.41889448 24.1822535,2.46907901 24.2257468,2.51591791 C24.3194246,2.61963261 24.1454515,2.41554884 24.1487971,2.41554884 C24.1554884,2.41220321 24.2056729,2.49918973 24.2123642,2.505881 C24.2893138,2.62297824 24.3528809,2.74342112 24.4097567,2.87055527 C24.3763004,2.79026002 24.342844,2.70996477 24.3093876,2.62966951 C24.3829916,2.81033383 24.4331762,2.99768942 24.4599412,3.18839064 C24.4465587,3.09805849 24.4365218,3.01107196 24.4231393,2.9207398 C24.4264849,3.01107196 24.4331762,3.10140412 24.4331762,3.19508192 C24.4398674,3.72034669 24.8915282,4.22219202 25.4368668,4.19877257 C25.9755141,4.17535312 26.4472487,3.75714868 26.4405575,3.19508192 C26.4305206,2.28841469 26.0424268,1.36836493 25.3331521,0.789569981 C24.737629,0.301107196 24.0316999,0.0234194486 23.2555125,0.0167281776 C23.0146267,0.0133825421 22.7770866,0.0167281776 22.5362008,0.0167281776 C21.1644903,0.0167281776 19.7927797,0.0167281776 18.4210691,0.0167281776 C16.4270704,0.0167281776 14.4330716,0.0167281776 12.4424185,0.0167281776 C10.5487888,0.0167281776 8.65181344,0.0167281776 6.75818374,0.0167281776 C5.64743275,0.0167281776 4.53333612,0.0167281776 3.42258513,0.0167281776 C3.34898115,0.0167281776 3.27203153,0.0167281776 3.19842755,0.0167281776 C2.42224011,0.0234194486 1.71631102,0.301107196 1.1207879,0.789569981 C0.361328636,1.40851255 0.0133825421,2.36536431 0.0133825421,3.3255617 C0.0133825421,4.23557456 0.0133825421,5.14224178 0.0133825421,6.05225464 C0.0133825421,7.78194821 0.0133825421,9.51164177 0.0133825421,11.2413353 C0.0133825421,13.2788274 0.0133825421,15.3163194 0.0133825421,17.3538114 C0.0133825421,19.2173304 0.0133825421,21.084195 0.0133825421,22.947714 C0.0133825421,24.1387602 0.0133825421,25.3298065 0.0133825421,26.5208527 C0.0133825421,26.7082083 0.0100369065,26.8955639 0.0133825421,27.0829195 C0.0200738131,27.9159827 0.344600458,28.7222809 0.930086673,29.317804 C1.52226416,29.923364 2.35198177,30.2579276 3.19508192,30.2646189 C3.96123245,30.2713101 4.72738298,30.2646189 5.49687915,30.2646189 C7.24330089,30.2646189 8.98637699,30.2646189 10.7327987,30.2646189 C12.7669451,30.2646189 14.8010915,30.2646189 16.8352379,30.2646189 C18.4545255,30.2646189 20.0738131,30.2646189 21.689755,30.2646189 C22.7804322,30.2646189 23.9982435,30.4017899 24.9584409,29.7761561 C25.8082324,29.2241262 26.316769,28.3609523 26.4271749,27.3606072 C26.4439031,27.2100536 26.4439031,27.0628457 26.4439031,26.9122921 C26.4439031,26.4037555 26.4439031,25.8952189 26.4439031,25.3866823 C26.4439031,23.5097808 26.4439031,21.6328792 26.4439031,19.7559777 C26.4439031,18.0630861 26.4439031,16.3701946 26.4439031,14.6739574 C26.4439031,14.4029609 26.4439031,14.1319644 26.4439031,13.8609679 C26.4439031,13.4594917 26.1929804,13.098163 25.8283062,12.9442638 C25.4602863,12.7903646 25.0186624,12.8639686 24.7309377,13.1516932 C24.4097567,13.4728742 24.0919213,13.7907096 23.7707403,14.1118906 C23.0045898,14.8780411 22.2350936,15.6475373 21.4689431,16.4136878 C20.5422021,17.3404289 19.6188067,18.2638243 18.6920656,19.1905653 C17.89915,19.9834809 17.1028887,20.7797422 16.3099731,21.5726578 C16.0523592,21.8302717 15.7913996,22.0912313 15.5337857,22.3488452 C15.4200341,22.4625968 15.2928999,22.5696572 15.1891852,22.6934457 C15.1289638,22.7670497 15.4702186,22.5094357 15.3464301,22.5696572 C15.4267254,22.5362008 15.5070206,22.5027445 15.5873159,22.4692881 C15.4969837,22.5060901 15.393269,22.5194726 15.2962456,22.5328552 C15.3865777,22.5194726 15.4735643,22.5094357 15.5638964,22.4960532 C14.7575983,22.5997679 13.9312263,22.589731 13.1182369,22.5863854 C13.4528004,22.9209489 13.787364,23.2555125 14.1219275,23.590076 C14.1152362,22.7670497 14.1018537,21.9272952 14.2022228,21.1109601 C14.1888402,21.2012923 14.1788033,21.2882788 14.1654208,21.3786109 C14.1888402,21.2012923 14.2590986,21.0273192 14.2590986,20.8500005 C14.2122597,21.0172823 14.1687664,21.1879097 14.1219275,21.3551915 C13.9881021,21.5793491 13.9579914,21.5492383 14.0449779,21.4622518 C14.0951624,21.4120673 14.145347,21.3618828 14.1955315,21.3116982 C14.3728502,21.1343795 14.5501689,20.9570609 14.7308332,20.7763965 C15.2761718,20.231058 15.8181647,19.689065 16.3635033,19.1437264 C17.1698015,18.3374283 17.9760996,17.5311301 18.7790521,16.7281776 C19.6121154,15.8951143 20.4451786,15.0587054 21.2815875,14.2256422 C21.9005301,13.6066996 22.5228183,12.9844114 23.1417608,12.3654689 C24.1153408,11.3918889 25.0922664,10.4149634 26.0658463,9.44138342 C26.0892657,9.41796397 26.1126852,9.39454452 26.1361046,9.37112507 C25.66437,9.37112507 25.1892898,9.37112507 24.7175552,9.37112507 C24.7242464,9.37781635 24.7275921,9.38116198 24.7342834,9.38785325 C25.022008,9.67557791 25.4636319,9.74918189 25.8316518,9.59528265 C26.1963261,9.44138342 26.4472487,9.08005478 26.4472487,8.67857852 C26.4472487,7.07936475 26.4472487,5.47680534 26.4472487,3.87759156 C26.4472487,3.65343398 26.4472487,3.42593077 26.4472487,3.20177319 C26.4472487,2.67650841 25.985551,2.17466308 25.4435581,2.19808253 C24.8948739,2.21481071 24.4331762,2.63301515 24.4331762,3.19508192 Z" id="Path"></path>
            <g id="Path" transform="translate(4.683890, 5.654124)">
                <path d="M1.0170732,2.02410949 C1.51557289,2.02410949 2.01072694,2.02410949 2.50922664,2.02410949 C3.70361851,2.02410949 4.89801039,2.02410949 6.09574791,2.02410949 C7.54775372,2.02410949 8.99975953,2.02410949 10.4517653,2.02410949 C11.6963418,2.02410949 12.9442638,2.02410949 14.1888402,2.02410949 C14.7977459,2.02410949 15.4099972,2.03749203 16.0189028,2.02410949 C16.0255941,2.02410949 16.035631,2.02410949 16.0423223,2.02410949 C16.5675871,2.02410949 17.0694324,1.56241179 17.0460129,1.02041883 C17.0225935,0.475080243 16.6043891,0.0167281776 16.0423223,0.0167281776 C15.5438226,0.0167281776 15.0486685,0.0167281776 14.5501689,0.0167281776 C13.355777,0.0167281776 12.1613851,0.0167281776 10.9636476,0.0167281776 C9.51164177,0.0167281776 8.05963595,0.0167281776 6.60763014,0.0167281776 C5.36305373,0.0167281776 4.11513168,0.0167281776 2.87055527,0.0167281776 C2.26164961,0.0167281776 1.64939831,0.00334563551 1.04049264,0.0167281776 C1.03380137,0.0167281776 1.02376447,0.0167281776 1.0170732,0.0167281776 C0.491808421,0.0167281776 -0.0100369065,0.478425878 0.0133825421,1.02041883 C0.0368019907,1.56575742 0.45500643,2.02410949 1.0170732,2.02410949 L1.0170732,2.02410949 Z"></path>
                <path d="M12.0309053,5.66081529 C10.7863289,5.66081529 9.54509812,5.66081529 8.30052171,5.66081529 C6.32325112,5.66081529 4.34598053,5.66081529 2.36536431,5.66081529 C1.91704915,5.66081529 1.46538836,5.66081529 1.0170732,5.66081529 C0.491808421,5.66081529 -0.0100369065,6.12251299 0.0133825421,6.66450594 C0.0368019907,7.20984453 0.45500643,7.6681966 1.0170732,7.6681966 C2.26164961,7.6681966 3.50288038,7.6681966 4.74745679,7.6681966 C6.72472738,7.6681966 8.70199797,7.6681966 10.6826142,7.6681966 C11.1309294,7.6681966 11.5825901,7.6681966 12.0309053,7.6681966 C12.5561701,7.6681966 13.0580154,7.2064989 13.034596,6.66450594 C13.0078309,6.11916735 12.5929721,5.66081529 12.0309053,5.66081529 L12.0309053,5.66081529 Z"></path>
                <path d="M6.67788849,11.3015568 C5.02514454,11.3015568 3.37574623,11.3015568 1.72300229,11.3015568 C1.4888078,11.3015568 1.25461332,11.3015568 1.02041883,11.3015568 C0.495154056,11.3015568 -0.00669127103,11.7632545 0.0167281776,12.3052474 C0.0401476262,12.850586 0.458352065,13.3089381 1.02041883,13.3089381 C2.67316278,13.3089381 4.32256108,13.3089381 5.97530503,13.3089381 C6.20949951,13.3089381 6.443694,13.3089381 6.67788849,13.3089381 C7.20315326,13.3089381 7.70499859,12.8472404 7.68157914,12.3052474 C7.65481406,11.7632545 7.23995525,11.3015568 6.67788849,11.3015568 L6.67788849,11.3015568 Z"></path>
                <path d="M5.33963428,16.9456439 C4.08167533,16.9456439 2.82037074,16.9456439 1.56241179,16.9456439 C1.38174747,16.9456439 1.20108315,16.9456439 1.02041883,16.9456439 C0.495154056,16.9456439 -0.00669127103,17.4073416 0.0167281776,17.9493345 C0.0401476262,18.4946731 0.458352065,18.9530252 1.02041883,18.9530252 C2.27837778,18.9530252 3.53968237,18.9530252 4.79764133,18.9530252 C4.97830564,18.9530252 5.15896996,18.9530252 5.33963428,18.9530252 C5.86489906,18.9530252 6.36674438,18.4913275 6.34332493,17.9493345 C6.31655985,17.4039959 5.90170105,16.9456439 5.33963428,16.9456439 L5.33963428,16.9456439 Z"></path>
            </g>
        </g>
    </g>
</svg>