<?xml version="1.0" encoding="UTF-8"?>
<svg width="100px" height="96px" viewBox="0 0 100 96" version="1.1" xmlns="http://www.w3.org/2000/svg" xmlns:xlink="http://www.w3.org/1999/xlink">
    <!-- Generator: Sketch 53 (72520) - https://sketchapp.com -->
    <title>apply</title>
    <desc>Created with Sketch.</desc>
    <g id="Page-1" stroke="none" stroke-width="1" fill="none" fill-rule="evenodd">
        <g id="Artboard" fill="#000000" fill-rule="nonzero">
            <g id="apply">
                <g id="Path" transform="translate(38.225977, 15.733897)">
                    <path d="M48.0042239,17.5818374 C45.3326294,20.2534319 42.6504752,22.9355861 39.9788807,25.6071806 C38.6061246,26.9799366 37.2228089,28.3632524 35.8500528,29.7360084 C32.5026399,33.0834213 29.1446674,36.4413939 25.7972545,39.7888068 C22.2703273,43.3157339 18.7539599,46.8321014 15.2270327,50.3590285 C13.9809926,51.6050686 12.7243928,52.8616684 11.4783527,54.1077086 C10.8975713,54.68849 10.2745512,55.2375924 9.73600845,55.8500528 C9.72544879,55.8711721 9.70432946,55.8817318 9.6937698,55.8922914 C9.65153115,55.9556494 10.5491024,55.3220697 10.2111932,55.4804646 C10.4646251,55.374868 10.718057,55.2692714 10.9714889,55.1636748 C10.686378,55.279831 10.3590285,55.3220697 10.0527983,55.3643083 C10.3379092,55.3220697 10.6124604,55.2903907 10.8975713,55.2481521 C8.35269271,55.5755016 5.74445618,55.5438226 3.17845829,55.5332629 C4.2344245,56.5892291 5.29039071,57.6451954 6.34635692,58.7011616 C6.32523759,56.1034847 6.28299894,53.4530095 6.59978881,50.876452 C6.55755016,51.1615628 6.52587117,51.436114 6.48363252,51.7212249 C6.55755016,51.1615628 6.77930306,50.6124604 6.77930306,50.0527983 C6.63146779,50.5807814 6.49419219,51.1193242 6.34635692,51.6473073 C5.92397043,52.3548046 5.82893347,52.2597677 6.10348469,51.9852165 C6.26187962,51.8268215 6.42027455,51.6684266 6.57866948,51.5100317 C7.13833157,50.9503696 7.69799366,50.3907075 8.26821542,49.8204857 C9.98944034,48.0992608 11.7001056,46.3885956 13.4213305,44.6673706 C15.9662091,42.1224921 18.5110876,39.5776135 21.0454065,37.0432946 C23.6747624,34.4139388 26.3041183,31.7740232 28.9440338,29.1446674 C30.8975713,27.1911299 32.8616684,25.2270327 34.8152059,23.2734952 C37.8880676,20.2006336 40.9714889,17.1172122 44.0443506,14.0443506 C44.1182682,13.9704329 44.1921859,13.8965153 44.2661035,13.8225977 C42.7771911,13.8225977 41.2777191,13.8225977 39.7888068,13.8225977 C42.1858501,16.219641 44.5828933,18.6166843 46.969377,21.0031679 C47.3178458,21.3516367 47.6663147,21.7001056 48.0147835,22.0485744 C49.186906,23.2206969 51.3410771,23.3051742 52.4920803,22.0485744 C53.6536431,20.781415 53.74868,18.8173178 52.4920803,17.5712777 C50.0844773,15.1636748 47.6663147,12.7455121 45.2587117,10.3379092 C44.9208025,10 44.593453,9.67265048 44.2555438,9.33474129 C43.0411827,8.12038015 40.9926082,8.12038015 39.7782471,9.33474129 C36.9588173,12.1541711 34.1393875,14.9736008 31.3199578,17.7930306 C29.4086589,19.7043295 27.5079197,21.6050686 25.6071806,23.5163675 C22.6293559,26.4941922 19.6409715,29.4825766 16.6631468,32.4604013 C14.4350581,34.68849 12.2069694,36.9165787 9.97888068,39.1446674 C7.17001056,41.9535375 4.3189018,44.7307286 1.55227033,47.5818374 C0.897571278,48.2576558 0.45406547,49.0918691 0.45406547,50.0527983 C0.496304118,49.7676874 0.527983105,49.4931362 0.570221753,49.2080253 C0.25343189,50.095037 0.232312566,51.1087645 0.168954593,52.0380148 C0.0950369588,53.030623 0.0739176346,54.0337909 0.0527983105,55.0263992 C0.0316789863,56.25132 0.0211193242,57.4762408 0.0316789863,58.7011616 C0.0422386484,60.4223865 1.46779303,61.8585005 3.19957761,61.8690602 C5.55438226,61.8796199 7.91974657,61.8690602 10.2639916,61.6578669 C11.7001056,61.5205913 13.1151003,61.4044351 14.2133052,60.3590285 C14.4350581,60.1478353 14.6462513,59.9260824 14.8574446,59.7148891 C17.8247096,56.7476241 20.8025343,53.7697994 23.7697994,50.8025343 C27.9725449,46.5997888 32.1752904,42.3970433 36.3780359,38.1942978 C38.9545935,35.6177402 41.531151,33.0411827 44.1077086,30.4646251 C46.7898627,27.782471 49.4614572,25.1108765 52.1436114,22.4287223 C52.2597677,22.312566 52.3864836,22.1858501 52.5026399,22.0696938 C53.6747624,20.8975713 53.7592397,18.7434002 52.5026399,17.592397 C51.2249208,16.4202746 49.2608237,16.3357973 48.0042239,17.5818374 Z"></path>
                    <path d="M55.9556494,9.63041183 C53.6430834,11.9429778 51.3199578,14.2661035 49.0073918,16.5786695 C48.6694826,16.9165787 48.3421331,17.2439282 48.0042239,17.5818374 C49.4931362,17.5818374 50.9926082,17.5818374 52.4815206,17.5818374 C50.0739176,15.1742344 47.655755,12.7560718 45.2481521,10.3484688 C44.9102429,10.0105597 44.5828933,9.68321014 44.2449842,9.34530095 C44.2449842,10.8342133 44.2449842,12.3336853 44.2449842,13.8225977 C46.5997888,11.467793 48.9545935,9.11298838 51.3199578,6.74762408 C51.5417107,6.52587117 51.7634636,6.30411827 51.9852165,6.08236536 C52.0380148,6.02956705 52.1119324,5.97676874 52.1541711,5.91341077 C52.1541711,5.90285111 52.1858501,5.89229145 52.1858501,5.88173178 C52.1752904,6.02956705 51.4572334,6.31467793 52.0485744,6.04012672 C51.7951426,6.14572334 51.5417107,6.25131996 51.2882788,6.35691658 C51.436114,6.30411827 51.56283,6.27243928 51.7212249,6.25131996 C51.436114,6.29355861 51.1615628,6.32523759 50.876452,6.36747624 C50.9714889,6.35691658 51.0770855,6.35691658 51.1721225,6.36747624 C50.8870116,6.32523759 50.6124604,6.29355861 50.3273495,6.25131996 C50.4963041,6.28299894 50.6441394,6.31467793 50.8025343,6.3780359 C50.5491024,6.27243928 50.2956705,6.16684266 50.0422386,6.06124604 C50.5913411,6.34635692 51.1721225,6.57866948 51.8057022,6.57866948 C51.2777191,6.43083421 50.7391763,6.29355861 50.2111932,6.14572334 C50.4540655,6.30411827 50.6230201,6.57866948 49.8416051,5.86061246 C49.5353749,5.11087645 49.218585,4.37170011 48.9123548,3.6219641 C48.9123548,5.374868 50.654699,6.67370644 51.7951426,7.81414995 C52.9355861,8.95459345 54.0865892,10.1055966 55.2270327,11.2460401 C55.406547,11.4255544 55.5966209,11.6156283 55.7761352,11.7951426 C55.8183738,11.8373812 55.8606125,11.8901795 55.9028511,11.9218585 C55.9028511,11.9218585 55.9239704,11.9429778 55.9239704,11.9429778 C55.9239704,11.9429778 55.9239704,11.9429778 55.9239704,11.9429778 C55.9873284,12.0063358 55.9345301,11.9324182 55.7655755,11.7317846 C55.438226,11.2882788 55.6916579,11.6473073 55.7444562,11.7740232 C55.6388596,11.5205913 55.5332629,11.2671595 55.4276663,11.0137276 C55.4804646,11.1510032 55.5121436,11.2671595 55.5332629,11.4149947 C55.4910243,11.1298838 55.4593453,10.8553326 55.4171067,10.5702218 C55.4276663,10.7074974 55.4276663,10.8342133 55.4171067,10.9820486 C55.4593453,10.6969377 55.4910243,10.4223865 55.5332629,10.1372756 C55.5121436,10.2745512 55.469905,10.4012672 55.4276663,10.5385428 C55.5332629,10.2851109 55.6388596,10.031679 55.7444562,9.7782471 C55.6388596,10.095037 55.406547,10.2428722 55.9556494,9.63041183 C54.8363252,10.8553326 54.656811,12.9144667 55.9556494,14.1077086 C57.1700106,15.2270327 59.250264,15.4171067 60.4329461,14.1077086 C62.2069694,12.1647307 62.2280887,9.36642027 60.4012672,7.44456177 C60.0422386,7.06441394 59.6620908,6.70538543 59.3030623,6.34635692 C58.0042239,5.04751848 56.7053854,3.74868004 55.406547,2.44984161 C55.0580781,2.10137276 54.7096093,1.75290391 54.3505808,1.3938754 C54.656811,2.1436114 54.9736008,2.88278775 55.279831,3.63252376 C55.279831,1.84794087 53.6114044,0.25343189 51.8373812,0.25343189 C52.3653643,0.401267159 52.9039071,0.538542767 53.4318902,0.686378036 C51.4255544,-0.485744456 49.0918691,0.0316789863 47.5079197,1.60506864 C46.9482577,2.16473073 46.3885956,2.72439282 45.8289335,3.28405491 C44.2027455,4.91024287 42.5765576,6.53643083 40.9503696,8.1626188 C40.5596621,8.55332629 40.1583949,8.95459345 39.7676874,9.34530095 C38.5533263,10.5596621 38.5533263,12.6082365 39.7676874,13.8225977 C42.1647307,16.219641 44.561774,18.6166843 46.9482577,21.0031679 C47.2967265,21.3516367 47.6451954,21.7001056 47.9936642,22.0485744 C49.2080253,23.2629356 51.2565998,23.2629356 52.4709609,22.0485744 C54.7835269,19.7360084 57.1066526,17.4128828 59.4192186,15.1003168 C59.7571278,14.7624076 60.0844773,14.4350581 60.4223865,14.0971489 C61.594509,12.9250264 61.6789863,10.7708553 60.4223865,9.61985216 C59.1763464,8.47940866 57.2122492,8.3843717 55.9556494,9.63041183 Z"></path>
                    <path d="M55.9556494,9.63041183 C53.6430834,11.9429778 51.3199578,14.2661035 49.0073918,16.5786695 C48.6694826,16.9165787 48.3421331,17.2439282 48.0042239,17.5818374 C49.4931362,17.5818374 50.9926082,17.5818374 52.4815206,17.5818374 C50.0739176,15.1742344 47.655755,12.7560718 45.2481521,10.3484688 C44.9102429,10.0105597 44.5828933,9.68321014 44.2449842,9.34530095 C44.2449842,10.8342133 44.2449842,12.3336853 44.2449842,13.8225977 C46.5997888,11.467793 48.9545935,9.11298838 51.3199578,6.74762408 C51.5417107,6.52587117 51.7634636,6.30411827 51.9852165,6.08236536 C52.0380148,6.02956705 52.1119324,5.97676874 52.1541711,5.91341077 C52.1541711,5.90285111 52.1858501,5.89229145 52.1858501,5.88173178 C52.1752904,6.02956705 51.4572334,6.31467793 52.0485744,6.04012672 C51.7951426,6.14572334 51.5417107,6.25131996 51.2882788,6.35691658 C51.436114,6.30411827 51.56283,6.27243928 51.7212249,6.25131996 C51.436114,6.29355861 51.1615628,6.32523759 50.876452,6.36747624 C50.9714889,6.35691658 51.0770855,6.35691658 51.1721225,6.36747624 C50.8870116,6.32523759 50.6124604,6.29355861 50.3273495,6.25131996 C50.4963041,6.28299894 50.6441394,6.31467793 50.8025343,6.3780359 C50.5491024,6.27243928 50.2956705,6.16684266 50.0422386,6.06124604 C50.5913411,6.34635692 51.1721225,6.57866948 51.8057022,6.57866948 C51.2777191,6.43083421 50.7391763,6.29355861 50.2111932,6.14572334 C50.718057,6.48363252 49.5670539,5.56494192 49.9472017,5.96620908 C50.0739176,6.10348469 50.2217529,6.2407603 50.3590285,6.3780359 C50.8553326,6.87434002 51.3410771,7.36008448 51.8373812,7.8563886 C52.9778247,8.9968321 54.1182682,10.1372756 55.2587117,11.2777191 C55.438226,11.4572334 55.6071806,11.626188 55.7866948,11.8057022 C55.8289335,11.8479409 55.8711721,11.9007392 55.9134108,11.9324182 C55.9134108,11.9324182 55.9345301,11.9535375 55.9345301,11.9535375 C55.9345301,11.9535375 55.9345301,11.9535375 55.9345301,11.9535375 C55.9978881,12.0168955 55.9450898,11.9429778 55.7761352,11.7423442 C55.4487856,11.2988384 55.7022175,11.6578669 55.7550158,11.7845829 C55.6494192,11.531151 55.5438226,11.2777191 55.438226,11.0242872 C55.4910243,11.1615628 55.5227033,11.2777191 55.5438226,11.4255544 C55.5015839,11.1404435 55.469905,10.8658923 55.4276663,10.5807814 C55.438226,10.718057 55.438226,10.844773 55.4276663,10.9926082 C55.469905,10.7074974 55.5015839,10.4329461 55.5438226,10.1478353 C55.5227033,10.2851109 55.4804646,10.4118268 55.438226,10.5491024 C55.5438226,10.2956705 55.6494192,10.0422386 55.7550158,9.78880676 C55.6388596,10.095037 55.406547,10.2428722 55.9556494,9.63041183 C54.8363252,10.8553326 54.656811,12.9144667 55.9556494,14.1077086 C57.1700106,15.2270327 59.250264,15.4171067 60.4329461,14.1077086 C62.2069694,12.1647307 62.2280887,9.33474129 60.3801478,7.42344245 C59.968321,6.9904963 59.5353749,6.57866948 59.1129884,6.156283 C57.7613516,4.80464625 56.3991552,3.44244984 55.0475185,2.09081309 C54.1393875,1.18268215 53.2523759,0.242872228 51.8373812,0.242872228 C52.3653643,0.390707497 52.9039071,0.527983105 53.4318902,0.675818374 C51.4255544,-0.496304118 49.0918691,0.0211193242 47.5079197,1.59450898 C46.9482577,2.15417107 46.3885956,2.71383316 45.8289335,3.27349525 C44.2027455,4.89968321 42.5765576,6.52587117 40.9503696,8.15205913 C40.5596621,8.54276663 40.1583949,8.94403379 39.7676874,9.33474129 C38.5533263,10.5491024 38.5533263,12.5976769 39.7676874,13.812038 C42.1647307,16.2090813 44.561774,18.6061246 46.9482577,20.9926082 C47.2967265,21.3410771 47.6451954,21.6895459 47.9936642,22.0380148 C49.2080253,23.2523759 51.2565998,23.2523759 52.4709609,22.0380148 C54.7835269,19.7254488 57.1066526,17.4023231 59.4192186,15.0897571 C59.7571278,14.7518479 60.0844773,14.4244984 60.4223865,14.0865892 C61.594509,12.9144667 61.6789863,10.7602957 60.4223865,9.6092925 C59.1763464,8.47940866 57.2122492,8.3843717 55.9556494,9.63041183 Z"></path>
                    <path d="M0.549102429,49.218585 C0.538542767,49.250264 0.527983105,49.2925026 0.50686378,49.3241816 C0.369588173,49.7465681 0.359028511,50.1689546 0.45406547,50.5913411 C0.475184794,51.0137276 0.601900739,51.4044351 0.834213305,51.7740232 C1.03484688,52.1436114 1.3093981,52.4392819 1.64730729,52.6610348 C1.95353749,52.9461457 2.312566,53.12566 2.72439282,53.2312566 C3.0095037,53.2734952 3.28405491,53.3051742 3.56916579,53.3474129 C4.13938754,53.3474129 4.67793031,53.1995776 5.16367476,52.9144667 C5.374868,52.7455121 5.58606125,52.5871172 5.80781415,52.4181626 C6.19852165,52.0274551 6.47307286,51.5522703 6.62090813,51.0242872 C6.63146779,50.9926082 6.64202746,50.9503696 6.66314678,50.9186906 C6.80042239,50.4963041 6.81098205,50.0739176 6.71594509,49.6515312 C6.69482577,49.2291447 6.56810982,48.8384372 6.33579725,48.468849 C6.13516367,48.0992608 5.86061246,47.8035903 5.52270327,47.5818374 C5.21647307,47.2967265 4.85744456,47.1172122 4.44561774,47.0116156 C4.16050686,46.969377 3.88595565,46.937698 3.60084477,46.8954593 C3.03062302,46.8954593 2.49208025,47.0432946 2.0063358,47.3284055 C1.79514256,47.4973601 1.58394931,47.655755 1.36219641,47.8247096 C0.971488912,48.2154171 0.696937698,48.6800422 0.549102429,49.218585 L0.549102429,49.218585 Z"></path>
                    <path d="M6.33579725,51.6578669 C6.35691658,51.6156283 6.3780359,51.5733897 6.39915523,51.5417107 C6.23020063,51.7529039 6.0718057,51.9640971 5.90285111,52.1858501 C5.91341077,52.1752904 5.91341077,52.1752904 5.92397043,52.1647307 C4.43505808,52.1647307 2.93558606,52.1647307 1.44667371,52.1647307 C1.44667371,52.1647307 1.44667371,52.1647307 1.44667371,52.1647307 C1.73178458,52.4709609 2.06969377,52.6927138 2.47096093,52.8194298 C2.85110876,53.0200634 3.25237592,53.1045407 3.69588173,53.093981 C4.12882788,53.1151003 4.5406547,53.0200634 4.92080253,52.8194298 C5.31151003,52.6927138 5.64941922,52.4709609 5.94508976,52.1647307 C6.11404435,51.9535375 6.27243928,51.7423442 6.44139388,51.5205913 C6.72650475,51.0242872 6.87434002,50.4963041 6.87434002,49.9260824 C6.83210137,49.6409715 6.80042239,49.3664203 6.75818374,49.0813094 C6.61034847,48.5427666 6.33579725,48.0781415 5.94508976,47.687434 C5.94508976,47.687434 5.94508976,47.687434 5.94508976,47.687434 C5.65997888,47.3812038 5.32206969,47.1594509 4.92080253,47.032735 C4.5406547,46.8321014 4.13938754,46.7476241 3.69588173,46.7581837 C3.41077086,46.8004224 3.13621964,46.8321014 2.85110876,46.87434 C2.312566,47.0221753 1.84794087,47.2967265 1.45723337,47.687434 C1.25659979,47.8986272 1.07708553,48.1309398 0.929250264,48.373812 C0.90813094,48.405491 0.897571278,48.4266103 0.887011616,48.4582893 C0.65469905,48.8173178 0.527983105,49.218585 0.50686378,49.6409715 C0.411826822,50.063358 0.432946146,50.4857445 0.559662091,50.9081309 C0.65469905,51.3199578 0.844772967,51.6789863 1.12988384,51.9852165 C1.35163675,52.3336853 1.64730729,52.5976769 2.01689546,52.7983105 C2.27032735,52.9039071 2.52375924,53.0095037 2.77719113,53.1151003 C3.33685322,53.2629356 3.89651531,53.2629356 4.46673706,53.1151003 C4.72016895,53.0095037 4.97360084,52.9039071 5.22703273,52.7983105 C5.67053854,52.5131996 6.05068638,52.1330517 6.33579725,51.6578669 L6.33579725,51.6578669 Z"></path>
                </g>
                <path d="M77.1172122,10.0844773 C77.1172122,15.1319958 77.1172122,20.1900739 77.1172122,25.2375924 C77.1172122,25.9450898 77.1172122,26.6631468 77.1172122,27.3706441 C78.9229145,26.6209081 80.718057,25.8817318 82.5237592,25.1319958 C82.5026399,25.1108765 82.4920803,25.1003168 82.4709609,25.0791975 C81.2565998,23.8648363 79.2080253,23.8648363 77.9936642,25.0791975 C75.1742344,27.8986272 72.3548046,30.718057 69.5353749,33.5374868 C67.624076,35.4487856 65.7233369,37.3495248 63.8225977,39.2608237 C60.844773,42.2386484 57.8563886,45.2270327 54.8785639,48.2048574 C52.6504752,50.4329461 50.4223865,52.6610348 48.1942978,54.8891235 C45.3854277,57.6979937 42.5343189,60.4751848 39.7676874,63.3262936 C39.1129884,64.0021119 38.6694826,64.8363252 38.6694826,65.7972545 C38.7117212,65.5121436 38.7434002,65.2375924 38.7856389,64.9524815 C38.468849,65.8394931 38.4477297,66.8532207 38.3843717,67.782471 C38.3104541,68.7750792 38.2893347,69.7782471 38.2682154,70.7708553 C38.2470961,71.9957761 38.2365364,73.2206969 38.2470961,74.4456177 C38.2576558,76.1668427 39.6832101,77.6029567 41.4149947,77.6135164 C43.2523759,77.624076 45.0791975,77.592397 46.9165787,77.5079197 C48.8489968,77.4128828 51.0454065,77.4445618 52.5237592,76.0190074 C54.3083421,74.2872228 56.0506864,72.4920803 57.8035903,70.7391763 C61.0770855,67.4656811 64.3505808,64.1921859 67.624076,60.9186906 C70.8870116,57.655755 74.1499472,54.3928194 77.4128828,51.1298838 C79.1024287,49.4403379 80.8342133,47.7930306 82.4709609,46.0718057 C82.4920803,46.0506864 82.5237592,46.0190074 82.5448786,45.9978881 C80.7391763,45.2481521 78.9440338,44.5089757 77.1383316,43.7592397 C77.1383316,45.1742344 77.1383316,46.5786695 77.1383316,47.9936642 C77.1383316,51.3727561 77.1383316,54.7518479 77.1383316,58.1309398 C77.1383316,62.1964097 77.1383316,66.2618796 77.1383316,70.3167899 C77.1383316,73.7697994 77.1383316,77.2228089 77.1383316,80.6758184 C77.1383316,82.2703273 77.1488912,83.8648363 77.1383316,85.469905 C77.1383316,85.7655755 77.1172122,86.0718057 77.0855333,86.3674762 C77.1277719,86.0823654 77.1594509,85.8078141 77.2016895,85.5227033 C77.1172122,86.1351637 76.9588173,86.7159451 76.7265048,87.2861668 C76.8321014,87.032735 76.937698,86.7793031 77.0432946,86.5258712 C76.87434,86.906019 76.6948258,87.2756072 76.4625132,87.624076 C76.3991552,87.719113 76.3252376,87.8141499 76.2724393,87.9091869 C76.124604,88.1731785 76.8215417,87.2650475 76.4730729,87.6451954 C76.3357973,87.7930306 76.1985216,87.9514256 76.061246,88.0992608 C75.9134108,88.2470961 75.7550158,88.373812 75.6071806,88.5110876 C75.279831,88.8067582 75.9239704,88.2576558 75.9239704,88.2682154 C75.9345301,88.2893347 75.6599789,88.4477297 75.6388596,88.468849 C75.2692714,88.7117212 74.8891235,88.9123548 74.4878564,89.0918691 C74.7412883,88.9862724 74.9947202,88.8806758 75.2481521,88.7750792 C74.6779303,89.0073918 74.0865892,89.1657867 73.4846885,89.250264 C73.7697994,89.2080253 74.0443506,89.1763464 74.3294615,89.1341077 C73.5374868,89.2291447 72.7243928,89.186906 71.9218585,89.186906 C70.4012672,89.186906 68.8912355,89.186906 67.3706441,89.186906 C62.280887,89.186906 57.1911299,89.186906 52.0908131,89.186906 C45.9134108,89.186906 39.7465681,89.186906 33.5691658,89.186906 C28.2576558,89.186906 22.9461457,89.186906 17.6346357,89.186906 C15.1425554,89.186906 12.6399155,89.2080253 10.1478353,89.186906 C9.83104541,89.186906 9.52481521,89.1657867 9.21858501,89.1341077 C9.50369588,89.1763464 9.7782471,89.2080253 10.063358,89.250264 C9.45089757,89.1657867 8.87011616,89.0073918 8.2998944,88.7750792 C8.55332629,88.8806758 8.80675818,88.9862724 9.06019007,89.0918691 C8.68004224,88.9334741 8.31045407,88.7434002 7.96198522,88.5110876 C7.86694826,88.4477297 7.7719113,88.373812 7.67687434,88.3210137 C7.41288279,88.1731785 8.32101373,88.8701162 7.94086589,88.5216473 C7.79303062,88.3843717 7.63463569,88.2470961 7.48680042,88.1098205 C7.33896515,87.9619852 7.21224921,87.8035903 7.0749736,87.655755 C6.77930306,87.3284055 7.32840549,87.9725449 7.31784583,87.9725449 C7.2967265,87.9831045 7.13833157,87.7085533 7.11721225,87.687434 C6.87434002,87.3178458 6.67370644,86.937698 6.49419219,86.5364308 C6.59978881,86.7898627 6.70538543,87.0432946 6.81098205,87.2967265 C6.57866948,86.7265048 6.42027455,86.1351637 6.33579725,85.5332629 C6.3780359,85.8183738 6.40971489,86.092925 6.45195354,86.3780359 C6.34635692,85.4804646 6.39915523,84.561774 6.39915523,83.6536431 C6.39915523,81.8479409 6.39915523,80.0422386 6.39915523,78.2365364 C6.39915523,75.5332629 6.39915523,72.8194298 6.39915523,70.1161563 C6.39915523,66.7793031 6.39915523,63.4424498 6.39915523,60.1055966 C6.39915523,56.4625132 6.39915523,52.8194298 6.39915523,49.1657867 C6.39915523,45.469905 6.39915523,41.7740232 6.39915523,38.0675818 C6.39915523,34.6462513 6.39915523,31.2143611 6.39915523,27.7930306 C6.39915523,24.9102429 6.39915523,22.0274551 6.39915523,19.1446674 C6.39915523,17.0855333 6.39915523,15.0263992 6.39915523,12.967265 C6.39915523,12.0380148 6.39915523,11.1087645 6.39915523,10.1795143 C6.39915523,9.86272439 6.42027455,9.54593453 6.45195354,9.22914467 C6.40971489,9.51425554 6.3780359,9.78880676 6.33579725,10.0739176 C6.42027455,9.46145723 6.57866948,8.88067582 6.81098205,8.31045407 C6.70538543,8.56388596 6.59978881,8.81731785 6.49419219,9.07074974 C6.66314678,8.6906019 6.84266103,8.32101373 7.0749736,7.97254488 C7.13833157,7.87750792 7.21224921,7.78247096 7.26504752,7.687434 C7.41288279,7.42344245 6.71594509,8.33157339 7.06441394,7.95142555 C7.20168955,7.80359029 7.33896515,7.64519535 7.47624076,7.49736008 C7.62407603,7.34952482 7.78247096,7.22280887 7.93030623,7.08553326 C8.25765576,6.78986272 7.61351637,7.33896515 7.61351637,7.32840549 C7.60295671,7.30728617 7.87750792,7.14889124 7.89862724,7.12777191 C8.26821542,6.88489968 8.64836325,6.6842661 9.04963041,6.50475185 C8.79619852,6.61034847 8.54276663,6.71594509 8.28933474,6.82154171 C8.85955649,6.58922914 9.45089757,6.43083421 10.0527983,6.34635692 C9.76768743,6.38859556 9.49313622,6.42027455 9.20802534,6.4625132 C10,6.36747624 10.813094,6.40971489 11.6156283,6.40971489 C13.1362196,6.40971489 14.6462513,6.40971489 16.1668427,6.40971489 C21.2565998,6.40971489 26.3463569,6.40971489 31.4466737,6.40971489 C37.624076,6.40971489 43.7909187,6.40971489 49.968321,6.40971489 C55.279831,6.40971489 60.5913411,6.40971489 65.9028511,6.40971489 C68.3949314,6.40971489 70.8975713,6.38859556 73.3896515,6.40971489 C73.7064414,6.40971489 74.0126716,6.43083421 74.3189018,6.4625132 C74.0337909,6.42027455 73.7592397,6.38859556 73.4741288,6.34635692 C74.0865892,6.43083421 74.6673706,6.58922914 75.2375924,6.82154171 C74.9841605,6.71594509 74.7307286,6.61034847 74.4772967,6.50475185 C74.8574446,6.66314678 75.2270327,6.8532207 75.5755016,7.08553326 C75.6705385,7.14889124 75.7655755,7.22280887 75.8606125,7.27560718 C76.124604,7.42344245 75.2164731,6.72650475 75.5966209,7.0749736 C75.7444562,7.21224921 75.9028511,7.34952482 76.0506864,7.48680042 C76.1985216,7.63463569 76.3252376,7.79303062 76.4625132,7.94086589 C76.7581837,8.26821542 76.2090813,7.62407603 76.219641,7.62407603 C76.2407603,7.61351637 76.3991552,7.88806758 76.4202746,7.90918691 C76.6631468,8.27877508 76.8637804,8.65892291 77.0432946,9.06019007 C76.937698,8.80675818 76.8321014,8.55332629 76.7265048,8.2998944 C76.9588173,8.87011616 77.1172122,9.46145723 77.2016895,10.063358 C77.1594509,9.7782471 77.1277719,9.50369588 77.0855333,9.21858501 C77.0960929,9.50369588 77.1172122,9.78880676 77.1172122,10.0844773 C77.1383316,11.7423442 78.563886,13.3262936 80.2851109,13.2523759 C81.9852165,13.1784583 83.4741288,11.8585005 83.4530095,10.0844773 C83.4213305,7.22280887 82.1964097,4.3189018 79.9577614,2.49208025 C78.0781415,0.950369588 75.8500528,0.0739176346 73.4002112,0.0527983105 C72.6399155,0.0422386484 71.8901795,0.0527983105 71.1298838,0.0527983105 C66.8004224,0.0527983105 62.4709609,0.0527983105 58.1414995,0.0527983105 C51.8479409,0.0527983105 45.5543823,0.0527983105 39.2713833,0.0527983105 C33.2946146,0.0527983105 27.3072862,0.0527983105 21.3305174,0.0527983105 C17.8247096,0.0527983105 14.3083421,0.0527983105 10.8025343,0.0527983105 C10.5702218,0.0527983105 10.3273495,0.0527983105 10.095037,0.0527983105 C7.64519535,0.0739176346 5.41710665,0.950369588 3.5374868,2.49208025 C1.14044351,4.44561774 0.0422386484,7.4656811 0.0422386484,10.4963041 C0.0422386484,13.3685322 0.0422386484,16.2302006 0.0422386484,19.1024287 C0.0422386484,24.561774 0.0422386484,30.0211193 0.0422386484,35.4804646 C0.0422386484,41.9112988 0.0422386484,48.3421331 0.0422386484,54.7729673 C0.0422386484,60.654699 0.0422386484,66.5469905 0.0422386484,72.4287223 C0.0422386484,76.187962 0.0422386484,79.9472017 0.0422386484,83.7064414 C0.0422386484,84.2977825 0.0316789863,84.8891235 0.0422386484,85.4804646 C0.0633579725,88.1098205 1.0876452,90.654699 2.93558606,92.5343189 C4.80464625,94.4456177 7.42344245,95.5015839 10.0844773,95.5227033 C12.5026399,95.5438226 14.9208025,95.5227033 17.3495248,95.5227033 C22.8616684,95.5227033 28.3632524,95.5227033 33.875396,95.5227033 C40.2956705,95.5227033 46.7159451,95.5227033 53.1362196,95.5227033 C58.2470961,95.5227033 63.3579725,95.5227033 68.4582893,95.5227033 C71.9007392,95.5227033 75.7444562,95.9556494 78.7750792,93.9809926 C81.4572334,92.2386484 83.062302,89.5142555 83.4107709,86.3569166 C83.4635692,85.8817318 83.4635692,85.4171067 83.4635692,84.9419219 C83.4635692,83.3368532 83.4635692,81.7317846 83.4635692,80.1267159 C83.4635692,74.2027455 83.4635692,68.2787751 83.4635692,62.3548046 C83.4635692,57.0116156 83.4635692,51.6684266 83.4635692,46.3146779 C83.4635692,45.4593453 83.4635692,44.6040127 83.4635692,43.74868 C83.4635692,42.4815206 82.6715945,41.3410771 81.5205913,40.8553326 C80.3590285,40.3695882 78.9651531,40.6019007 78.0570222,41.5100317 C77.0432946,42.5237592 76.0401267,43.5269271 75.0263992,44.5406547 C72.6082365,46.9588173 70.1795143,49.3875396 67.7613516,51.8057022 C64.8363252,54.7307286 61.9218585,57.6451954 58.9968321,60.5702218 C56.4941922,63.0728617 53.9809926,65.5860612 51.4783527,68.0887012 C50.6652587,68.9017951 49.8416051,69.7254488 49.0285111,70.5385428 C48.6694826,70.8975713 48.2682154,71.2354805 47.9408659,71.626188 C47.750792,71.8585005 48.8278775,71.0454065 48.43717,71.2354805 C48.6906019,71.1298838 48.9440338,71.0242872 49.1974657,70.9186906 C48.9123548,71.0348469 48.5850053,71.0770855 48.2787751,71.1193242 C48.563886,71.0770855 48.8384372,71.0454065 49.123548,71.0031679 C46.5786695,71.3305174 43.9704329,71.2988384 41.4044351,71.2882788 C42.4604013,72.344245 43.5163675,73.4002112 44.5723337,74.4561774 C44.5512144,71.8585005 44.5089757,69.2080253 44.8257656,66.6314678 C44.7835269,66.9165787 44.7518479,67.1911299 44.7096093,67.4762408 C44.7835269,66.9165787 45.0052798,66.3674762 45.0052798,65.8078141 C44.8574446,66.3357973 44.720169,66.87434 44.5723337,67.4023231 C44.1499472,68.1098205 44.0549102,68.0147835 44.3294615,67.7402323 C44.4878564,67.5818374 44.6462513,67.4234424 44.8046463,67.2650475 C45.3643083,66.7053854 45.9239704,66.1457233 46.4941922,65.5755016 C48.2154171,63.8542767 49.9260824,62.1436114 51.6473073,60.4223865 C54.1921859,57.8775079 56.7370644,55.3326294 59.2713833,52.7983105 C61.9007392,50.1689546 64.530095,47.5290391 67.1700106,44.8996832 C69.123548,42.9461457 71.0876452,40.9820486 73.0411827,39.0285111 C76.1140444,35.9556494 79.1974657,32.8722281 82.2703273,29.7993664 C82.344245,29.7254488 82.4181626,29.6515312 82.4920803,29.5776135 C81.0031679,29.5776135 79.5036959,29.5776135 78.0147835,29.5776135 C78.0359029,29.5987328 78.0464625,29.6092925 78.0675818,29.6304118 C78.9757128,30.5385428 80.3695882,30.7708553 81.531151,30.2851109 C82.6821542,29.7993664 83.4741288,28.6589229 83.4741288,27.3917635 C83.4741288,22.344245 83.4741288,17.2861668 83.4741288,12.2386484 C83.4741288,11.531151 83.4741288,10.813094 83.4741288,10.1055966 C83.4741288,8.44772967 82.0168955,6.86378036 80.3062302,6.93769799 C78.5744456,6.9904963 77.1172122,8.31045407 77.1172122,10.0844773 Z" id="Path"></path>
                <g id="Path" transform="translate(14.783527, 17.845829)">
                    <path d="M3.21013728,6.38859556 C4.78352693,6.38859556 6.34635692,6.38859556 7.91974657,6.38859556 C11.6895459,6.38859556 15.4593453,6.38859556 19.2397043,6.38859556 C23.8225977,6.38859556 28.405491,6.38859556 32.9883844,6.38859556 C36.9165787,6.38859556 40.8553326,6.38859556 44.7835269,6.38859556 C46.7053854,6.38859556 48.6378036,6.43083421 50.5596621,6.38859556 C50.5807814,6.38859556 50.6124604,6.38859556 50.6335797,6.38859556 C52.2914467,6.38859556 53.875396,4.9313622 53.8014784,3.22069694 C53.7275607,1.49947202 52.407603,0.0527983105 50.6335797,0.0527983105 C49.0601901,0.0527983105 47.4973601,0.0527983105 45.9239704,0.0527983105 C42.1541711,0.0527983105 38.3843717,0.0527983105 34.6040127,0.0527983105 C30.0211193,0.0527983105 25.438226,0.0527983105 20.8553326,0.0527983105 C16.9271383,0.0527983105 12.9883844,0.0527983105 9.06019007,0.0527983105 C7.13833157,0.0527983105 5.20591341,0.0105596621 3.28405491,0.0527983105 C3.26293559,0.0527983105 3.2312566,0.0527983105 3.21013728,0.0527983105 C1.55227033,0.0527983105 -0.0316789863,1.51003168 0.0422386484,3.22069694 C0.116156283,4.94192186 1.43611404,6.38859556 3.21013728,6.38859556 L3.21013728,6.38859556 Z"></path>
                    <path d="M37.9725449,17.8669483 C34.0443506,17.8669483 30.1267159,17.8669483 26.1985216,17.8669483 C19.9577614,17.8669483 13.7170011,17.8669483 7.4656811,17.8669483 C6.05068638,17.8669483 4.625132,17.8669483 3.21013728,17.8669483 C1.55227033,17.8669483 -0.0316789863,19.3241816 0.0422386484,21.0348469 C0.116156283,22.7560718 1.43611404,24.2027455 3.21013728,24.2027455 C7.13833157,24.2027455 11.0559662,24.2027455 14.9841605,24.2027455 C21.2249208,24.2027455 27.4656811,24.2027455 33.7170011,24.2027455 C35.1319958,24.2027455 36.5575502,24.2027455 37.9725449,24.2027455 C39.6304118,24.2027455 41.2143611,22.7455121 41.1404435,21.0348469 C41.0559662,19.313622 39.7465681,17.8669483 37.9725449,17.8669483 L37.9725449,17.8669483 Z"></path>
                    <path d="M21.0770855,35.6705385 C15.8606125,35.6705385 10.654699,35.6705385 5.43822598,35.6705385 C4.69904963,35.6705385 3.95987328,35.6705385 3.22069694,35.6705385 C1.56282999,35.6705385 -0.0211193242,37.1277719 0.0527983105,38.8384372 C0.126715945,40.5596621 1.44667371,42.0063358 3.22069694,42.0063358 C8.43717001,42.0063358 13.6430834,42.0063358 18.8595565,42.0063358 C19.5987328,42.0063358 20.3379092,42.0063358 21.0770855,42.0063358 C22.7349525,42.0063358 24.3189018,40.5491024 24.2449842,38.8384372 C24.1605069,37.1277719 22.8511088,35.6705385 21.0770855,35.6705385 L21.0770855,35.6705385 Z"></path>
                    <path d="M16.8532207,53.4846885 C12.8827878,53.4846885 8.90179514,53.4846885 4.9313622,53.4846885 C4.36114044,53.4846885 3.79091869,53.4846885 3.22069694,53.4846885 C1.56282999,53.4846885 -0.0211193242,54.9419219 0.0527983105,56.6525871 C0.126715945,58.373812 1.44667371,59.8204857 3.22069694,59.8204857 C7.19112988,59.8204857 11.1721225,59.8204857 15.1425554,59.8204857 C15.7127772,59.8204857 16.2829989,59.8204857 16.8532207,59.8204857 C18.5110876,59.8204857 20.095037,58.3632524 20.0211193,56.6525871 C19.936642,54.9313622 18.6272439,53.4846885 16.8532207,53.4846885 L16.8532207,53.4846885 Z"></path>
                </g>
            </g>
        </g>
    </g>
</svg>