<?xml version="1.0" encoding="UTF-8"?>
<svg width="100%" height="100%" viewBox="0 0 947 905" version="1.1" xmlns="http://www.w3.org/2000/svg" xmlns:xlink="http://www.w3.org/1999/xlink">
    <!-- Generator: Sketch 53 (72520) - https://sketchapp.com -->
    <title>Group</title>
    <desc>Created with Sketch.</desc>
    <g id="Page-1" stroke="none" stroke-width="1" fill="none" fill-rule="evenodd">
        <g id="Group" fill="#000000" fill-rule="nonzero">
            <g transform="translate(362.000000, 149.000000)" id="Path">
                <path d="M454.6,166.5 C429.3,191.8 403.9,217.2 378.6,242.5 C365.6,255.5 352.5,268.6 339.5,281.6 C307.8,313.3 276,345.1 244.3,376.8 C210.9,410.2 177.6,443.5 144.2,476.9 C132.4,488.7 120.5,500.6 108.7,512.4 C103.2,517.9 97.3,523.1 92.2,528.9 C92.1,529.1 91.9,529.2 91.8,529.3 C91.4,529.9 99.9,523.9 96.7,525.4 C99.1,524.4 101.5,523.4 103.9,522.4 C101.2,523.5 98.1,523.9 95.2,524.3 C97.9,523.9 100.5,523.6 103.2,523.2 C79.1,526.3 54.4,526 30.1,525.9 C40.1,535.9 50.1,545.9 60.1,555.9 C59.9,531.3 59.5,506.2 62.5,481.8 C62.1,484.5 61.8,487.1 61.4,489.8 C62.1,484.5 64.2,479.3 64.2,474 C62.8,479 61.5,484.1 60.1,489.1 C56.1,495.8 55.2,494.9 57.8,492.3 C59.3,490.8 60.8,489.3 62.3,487.8 C67.6,482.5 72.9,477.2 78.3,471.8 C94.6,455.5 110.8,439.3 127.1,423 C151.2,398.9 175.3,374.8 199.3,350.8 C224.2,325.9 249.1,300.9 274.1,276 C292.6,257.5 311.2,238.9 329.7,220.4 C358.8,191.3 388,162.1 417.1,133 C417.8,132.3 418.5,131.6 419.2,130.9 C405.1,130.9 390.9,130.9 376.8,130.9 C399.5,153.6 422.2,176.3 444.8,198.9 C448.1,202.2 451.4,205.5 454.7,208.8 C465.8,219.9 486.2,220.7 497.1,208.8 C508.1,196.8 509,178.2 497.1,166.4 C474.3,143.6 451.4,120.7 428.6,97.9 C425.4,94.7 422.3,91.6 419.1,88.4 C407.6,76.9 388.2,76.9 376.7,88.4 C350,115.1 323.3,141.8 296.6,168.5 C278.5,186.6 260.5,204.6 242.5,222.7 C214.3,250.9 186,279.2 157.8,307.4 C136.7,328.5 115.6,349.6 94.5,370.7 C67.9,397.3 40.9,423.6 14.7,450.6 C8.5,457 4.3,464.9 4.3,474 C4.7,471.3 5,468.7 5.4,466 C2.4,474.4 2.2,484 1.6,492.8 C0.9,502.2 0.7,511.7 0.5,521.1 C0.3,532.7 0.2,544.3 0.3,555.9 C0.4,572.2 13.9,585.8 30.3,585.9 C52.6,586 75,585.9 97.2,583.9 C110.8,582.6 124.2,581.5 134.6,571.6 C136.7,569.6 138.7,567.5 140.7,565.5 C168.8,537.4 197,509.2 225.1,481.1 C264.9,441.3 304.7,401.5 344.5,361.7 C368.9,337.3 393.3,312.9 417.7,288.5 C443.1,263.1 468.4,237.8 493.8,212.4 C494.9,211.3 496.1,210.1 497.2,209 C508.3,197.9 509.1,177.5 497.2,166.6 C485.1,155.5 466.5,154.7 454.6,166.5 Z"></path>
                <path d="M529.9,91.2 C508,113.1 486,135.1 464.1,157 C460.9,160.2 457.8,163.3 454.6,166.5 C468.7,166.5 482.9,166.5 497,166.5 C474.2,143.7 451.3,120.8 428.5,98 C425.3,94.8 422.2,91.7 419,88.5 C419,102.6 419,116.8 419,130.9 C441.3,108.6 463.6,86.3 486,63.9 C488.1,61.8 490.2,59.7 492.3,57.6 C492.8,57.1 493.5,56.6 493.9,56 C493.9,55.9 494.2,55.8 494.2,55.7 C494.1,57.1 487.3,59.8 492.9,57.2 C490.5,58.2 488.1,59.2 485.7,60.2 C487.1,59.7 488.3,59.4 489.8,59.2 C487.1,59.6 484.5,59.9 481.8,60.3 C482.7,60.2 483.7,60.2 484.6,60.3 C481.9,59.9 479.3,59.6 476.6,59.2 C478.2,59.5 479.6,59.8 481.1,60.4 C478.7,59.4 476.3,58.4 473.9,57.4 C479.1,60.1 484.6,62.3 490.6,62.3 C485.6,60.9 480.5,59.6 475.5,58.2 C477.8,59.7 479.4,62.3 472,55.5 C469.1,48.4 466.1,41.4 463.2,34.3 C463.2,50.9 479.7,63.2 490.5,74 C501.3,84.8 512.2,95.7 523,106.5 C524.7,108.2 526.5,110 528.2,111.7 C528.6,112.1 529,112.6 529.4,112.9 C529.4,112.9 529.6,113.1 529.6,113.1 C529.6,113.1 529.6,113.1 529.6,113.1 C530.2,113.7 529.7,113 528.1,111.1 C525,106.9 527.4,110.3 527.9,111.5 C526.9,109.1 525.9,106.7 524.9,104.3 C525.4,105.6 525.7,106.7 525.9,108.1 C525.5,105.4 525.2,102.8 524.8,100.1 C524.9,101.4 524.9,102.6 524.8,104 C525.2,101.3 525.5,98.7 525.9,96 C525.7,97.3 525.3,98.5 524.9,99.8 C525.9,97.4 526.9,95 527.9,92.6 C526.9,95.6 524.7,97 529.9,91.2 C519.3,102.8 517.6,122.3 529.9,133.6 C541.4,144.2 561.1,146 572.3,133.6 C589.1,115.2 589.3,88.7 572,70.5 C568.6,66.9 565,63.5 561.6,60.1 C549.3,47.8 537,35.5 524.7,23.2 C521.4,19.9 518.1,16.6 514.7,13.2 C517.6,20.3 520.6,27.3 523.5,34.4 C523.5,17.5 507.7,2.4 490.9,2.4 C495.9,3.8 501,5.1 506,6.5 C487,-4.6 464.9,0.3 449.9,15.2 C444.6,20.5 439.3,25.8 434,31.1 C418.6,46.5 403.2,61.9 387.8,77.3 C384.1,81 380.3,84.8 376.6,88.5 C365.1,100 365.1,119.4 376.6,130.9 C399.3,153.6 422,176.3 444.6,198.9 C447.9,202.2 451.2,205.5 454.5,208.8 C466,220.3 485.4,220.3 496.9,208.8 C518.8,186.9 540.8,164.9 562.7,143 C565.9,139.8 569,136.7 572.2,133.5 C583.3,122.4 584.1,102 572.2,91.1 C560.4,80.3 541.8,79.4 529.9,91.2 Z"></path>
                <path d="M529.9,91.2 C508,113.1 486,135.1 464.1,157 C460.9,160.2 457.8,163.3 454.6,166.5 C468.7,166.5 482.9,166.5 497,166.5 C474.2,143.7 451.3,120.8 428.5,98 C425.3,94.8 422.2,91.7 419,88.5 C419,102.6 419,116.8 419,130.9 C441.3,108.6 463.6,86.3 486,63.9 C488.1,61.8 490.2,59.7 492.3,57.6 C492.8,57.1 493.5,56.6 493.9,56 C493.9,55.9 494.2,55.8 494.2,55.7 C494.1,57.1 487.3,59.8 492.9,57.2 C490.5,58.2 488.1,59.2 485.7,60.2 C487.1,59.7 488.3,59.4 489.8,59.2 C487.1,59.6 484.5,59.9 481.8,60.3 C482.7,60.2 483.7,60.2 484.6,60.3 C481.9,59.9 479.3,59.6 476.6,59.2 C478.2,59.5 479.6,59.8 481.1,60.4 C478.7,59.4 476.3,58.4 473.9,57.4 C479.1,60.1 484.6,62.3 490.6,62.3 C485.6,60.9 480.5,59.6 475.5,58.2 C480.3,61.4 469.4,52.7 473,56.5 C474.2,57.8 475.6,59.1 476.9,60.4 C481.6,65.1 486.2,69.7 490.9,74.4 C501.7,85.2 512.5,96 523.3,106.8 C525,108.5 526.6,110.1 528.3,111.8 C528.7,112.2 529.1,112.7 529.5,113 C529.5,113 529.7,113.2 529.7,113.2 C529.7,113.2 529.7,113.2 529.7,113.2 C530.3,113.8 529.8,113.1 528.2,111.2 C525.1,107 527.5,110.4 528,111.6 C527,109.2 526,106.8 525,104.4 C525.5,105.7 525.8,106.8 526,108.2 C525.6,105.5 525.3,102.9 524.9,100.2 C525,101.5 525,102.7 524.9,104.1 C525.3,101.4 525.6,98.8 526,96.1 C525.8,97.4 525.4,98.6 525,99.9 C526,97.5 527,95.1 528,92.7 C526.9,95.6 524.7,97 529.9,91.2 C519.3,102.8 517.6,122.3 529.9,133.6 C541.4,144.2 561.1,146 572.3,133.6 C589.1,115.2 589.3,88.4 571.8,70.3 C567.9,66.2 563.8,62.3 559.8,58.3 C547,45.5 534.1,32.6 521.3,19.8 C512.7,11.2 504.3,2.3 490.9,2.3 C495.9,3.7 501,5 506,6.4 C487,-4.7 464.9,0.2 449.9,15.1 C444.6,20.4 439.3,25.7 434,31 C418.6,46.4 403.2,61.8 387.8,77.2 C384.1,80.9 380.3,84.7 376.6,88.4 C365.1,99.9 365.1,119.3 376.6,130.8 C399.3,153.5 422,176.2 444.6,198.8 C447.9,202.1 451.2,205.4 454.5,208.7 C466,220.2 485.4,220.2 496.9,208.7 C518.8,186.8 540.8,164.8 562.7,142.9 C565.9,139.7 569,136.6 572.2,133.4 C583.3,122.3 584.1,101.9 572.2,91 C560.4,80.3 541.8,79.4 529.9,91.2 Z"></path>
                <path d="M5.2,466.1 C5.1,466.4 5,466.8 4.8,467.1 C3.5,471.1 3.4,475.1 4.3,479.1 C4.5,483.1 5.7,486.8 7.9,490.3 C9.8,493.8 12.4,496.6 15.6,498.7 C18.5,501.4 21.9,503.1 25.8,504.1 C28.5,504.5 31.1,504.8 33.8,505.2 C39.2,505.2 44.3,503.8 48.9,501.1 C50.9,499.5 52.9,498 55,496.4 C58.7,492.7 61.3,488.2 62.7,483.2 C62.8,482.9 62.9,482.5 63.1,482.2 C64.4,478.2 64.5,474.2 63.6,470.2 C63.4,466.2 62.2,462.5 60,459 C58.1,455.5 55.5,452.7 52.3,450.6 C49.4,447.9 46,446.2 42.1,445.2 C39.4,444.8 36.8,444.5 34.1,444.1 C28.7,444.1 23.6,445.5 19,448.2 C17,449.8 15,451.3 12.9,452.9 C9.2,456.6 6.6,461 5.2,466.1 L5.2,466.1 Z"></path>
                <path d="M60,489.2 C60.2,488.8 60.4,488.4 60.6,488.1 C59,490.1 57.5,492.1 55.9,494.2 C56,494.1 56,494.1 56.1,494 C42,494 27.8,494 13.7,494 C13.7,494 13.7,494 13.7,494 C16.4,496.9 19.6,499 23.4,500.2 C27,502.1 30.8,502.9 35,502.8 C39.1,503 43,502.1 46.6,500.2 C50.3,499 53.5,496.9 56.3,494 C57.9,492 59.4,490 61,487.9 C63.7,483.2 65.1,478.2 65.1,472.8 C64.7,470.1 64.4,467.5 64,464.8 C62.6,459.7 60,455.3 56.3,451.6 C56.3,451.6 56.3,451.6 56.3,451.6 C53.6,448.7 50.4,446.6 46.6,445.4 C43,443.5 39.2,442.7 35,442.8 C32.3,443.2 29.7,443.5 27,443.9 C21.9,445.3 17.5,447.9 13.8,451.6 C11.9,453.6 10.2,455.8 8.8,458.1 C8.6,458.4 8.5,458.6 8.4,458.9 C6.2,462.3 5,466.1 4.8,470.1 C3.9,474.1 4.1,478.1 5.3,482.1 C6.2,486 8,489.4 10.7,492.3 C12.8,495.6 15.6,498.1 19.1,500 C21.5,501 23.9,502 26.3,503 C31.6,504.4 36.9,504.4 42.3,503 C44.7,502 47.1,501 49.5,500 C53.7,497.3 57.3,493.7 60,489.2 L60,489.2 Z"></path>
            </g>
            <path d="M730.3,95.5 C730.3,143.3 730.3,191.2 730.3,239 C730.3,245.7 730.3,252.5 730.3,259.2 C747.4,252.1 764.4,245.1 781.5,238 C781.3,237.8 781.2,237.7 781,237.5 C769.5,226 750.1,226 738.6,237.5 C711.9,264.2 685.2,290.9 658.5,317.6 C640.4,335.7 622.4,353.7 604.4,371.8 C576.2,400 547.9,428.3 519.7,456.5 C498.6,477.6 477.5,498.7 456.4,519.8 C429.8,546.4 402.8,572.7 376.6,599.7 C370.4,606.1 366.2,614 366.2,623.1 C366.6,620.4 366.9,617.8 367.3,615.1 C364.3,623.5 364.1,633.1 363.5,641.9 C362.8,651.3 362.6,660.8 362.4,670.2 C362.2,681.8 362.1,693.4 362.2,705 C362.3,721.3 375.8,734.9 392.2,735 C409.6,735.1 426.9,734.8 444.3,734 C462.6,733.1 483.4,733.4 497.4,719.9 C514.3,703.5 530.8,686.5 547.4,669.9 C578.4,638.9 609.4,607.9 640.4,576.9 C671.3,546 702.2,515.1 733.1,484.2 C749.1,468.2 765.5,452.6 781,436.3 C781.2,436.1 781.5,435.8 781.7,435.6 C764.6,428.5 747.6,421.5 730.5,414.4 C730.5,427.8 730.5,441.1 730.5,454.5 C730.5,486.5 730.5,518.5 730.5,550.5 C730.5,589 730.5,627.5 730.5,665.9 C730.5,698.6 730.5,731.3 730.5,764 C730.5,779.1 730.6,794.2 730.5,809.4 C730.5,812.2 730.3,815.1 730,817.9 C730.4,815.2 730.7,812.6 731.1,809.9 C730.3,815.7 728.8,821.2 726.6,826.6 C727.6,824.2 728.6,821.8 729.6,819.4 C728,823 726.3,826.5 724.1,829.8 C723.5,830.7 722.8,831.6 722.3,832.5 C720.9,835 727.5,826.4 724.2,830 C722.9,831.4 721.6,832.9 720.3,834.3 C718.9,835.7 717.4,836.9 716,838.2 C712.9,841 719,835.8 719,835.9 C719.1,836.1 716.5,837.6 716.3,837.8 C712.8,840.1 709.2,842 705.4,843.7 C707.8,842.7 710.2,841.7 712.6,840.7 C707.2,842.9 701.6,844.4 695.9,845.2 C698.6,844.8 701.2,844.5 703.9,844.1 C696.4,845 688.7,844.6 681.1,844.6 C666.7,844.6 652.4,844.6 638,844.6 C589.8,844.6 541.6,844.6 493.3,844.6 C434.8,844.6 376.4,844.6 317.9,844.6 C267.6,844.6 217.3,844.6 167,844.6 C143.4,844.6 119.7,844.8 96.1,844.6 C93.1,844.6 90.2,844.4 87.3,844.1 C90,844.5 92.6,844.8 95.3,845.2 C89.5,844.4 84,842.9 78.6,840.7 C81,841.7 83.4,842.7 85.8,843.7 C82.2,842.2 78.7,840.4 75.4,838.2 C74.5,837.6 73.6,836.9 72.7,836.4 C70.2,835 78.8,841.6 75.2,838.3 C73.8,837 72.3,835.7 70.9,834.4 C69.5,833 68.3,831.5 67,830.1 C64.2,827 69.4,833.1 69.3,833.1 C69.1,833.2 67.6,830.6 67.4,830.4 C65.1,826.9 63.2,823.3 61.5,819.5 C62.5,821.9 63.5,824.3 64.5,826.7 C62.3,821.3 60.8,815.7 60,810 C60.4,812.7 60.7,815.3 61.1,818 C60.1,809.5 60.6,800.8 60.6,792.2 C60.6,775.1 60.6,758 60.6,740.9 C60.6,715.3 60.6,689.6 60.6,664 C60.6,632.4 60.6,600.8 60.6,569.2 C60.6,534.7 60.6,500.2 60.6,465.6 C60.6,430.6 60.6,395.6 60.6,360.5 C60.6,328.1 60.6,295.6 60.6,263.2 C60.6,235.9 60.6,208.6 60.6,181.3 C60.6,161.8 60.6,142.3 60.6,122.8 C60.6,114 60.6,105.2 60.6,96.4 C60.6,93.4 60.8,90.4 61.1,87.4 C60.7,90.1 60.4,92.7 60,95.4 C60.8,89.6 62.3,84.1 64.5,78.7 C63.5,81.1 62.5,83.5 61.5,85.9 C63.1,82.3 64.8,78.8 67,75.5 C67.6,74.6 68.3,73.7 68.8,72.8 C70.2,70.3 63.6,78.9 66.9,75.3 C68.2,73.9 69.5,72.4 70.8,71 C72.2,69.6 73.7,68.4 75.1,67.1 C78.2,64.3 72.1,69.5 72.1,69.4 C72,69.2 74.6,67.7 74.8,67.5 C78.3,65.2 81.9,63.3 85.7,61.6 C83.3,62.6 80.9,63.6 78.5,64.6 C83.9,62.4 89.5,60.9 95.2,60.1 C92.5,60.5 89.9,60.8 87.2,61.2 C94.7,60.3 102.4,60.7 110,60.7 C124.4,60.7 138.7,60.7 153.1,60.7 C201.3,60.7 249.5,60.7 297.8,60.7 C356.3,60.7 414.7,60.7 473.2,60.7 C523.5,60.7 573.8,60.7 624.1,60.7 C647.7,60.7 671.4,60.5 695,60.7 C698,60.7 700.9,60.9 703.8,61.2 C701.1,60.8 698.5,60.5 695.8,60.1 C701.6,60.9 707.1,62.4 712.5,64.6 C710.1,63.6 707.7,62.6 705.3,61.6 C708.9,63.1 712.4,64.9 715.7,67.1 C716.6,67.7 717.5,68.4 718.4,68.9 C720.9,70.3 712.3,63.7 715.9,67 C717.3,68.3 718.8,69.6 720.2,70.9 C721.6,72.3 722.8,73.8 724.1,75.2 C726.9,78.3 721.7,72.2 721.8,72.2 C722,72.1 723.5,74.7 723.7,74.9 C726,78.4 727.9,82 729.6,85.8 C728.6,83.4 727.6,81 726.6,78.6 C728.8,84 730.3,89.6 731.1,95.3 C730.7,92.6 730.4,90 730,87.3 C730.1,90 730.3,92.7 730.3,95.5 C730.5,111.2 744,126.2 760.3,125.5 C776.4,124.8 790.5,112.3 790.3,95.5 C790,68.4 778.4,40.9 757.2,23.6 C739.4,9 718.3,0.7 695.1,0.5 C687.9,0.4 680.8,0.5 673.6,0.5 C632.6,0.5 591.6,0.5 550.6,0.5 C491,0.5 431.4,0.5 371.9,0.5 C315.3,0.5 258.6,0.5 202,0.5 C168.8,0.5 135.5,0.5 102.3,0.5 C100.1,0.5 97.8,0.5 95.6,0.5 C72.4,0.7 51.3,9 33.5,23.6 C10.8,42.1 0.4,70.7 0.4,99.4 C0.4,126.6 0.4,153.7 0.4,180.9 C0.4,232.6 0.4,284.3 0.4,336 C0.4,396.9 0.4,457.8 0.4,518.7 C0.4,574.4 0.4,630.2 0.4,685.9 C0.4,721.5 0.4,757.1 0.4,792.7 C0.4,798.3 0.3,803.9 0.4,809.5 C0.6,834.4 10.3,858.5 27.8,876.3 C45.5,894.4 70.3,904.4 95.5,904.6 C118.4,904.8 141.3,904.6 164.3,904.6 C216.5,904.6 268.6,904.6 320.8,904.6 C381.6,904.6 442.4,904.6 503.2,904.6 C551.6,904.6 600,904.6 648.3,904.6 C680.9,904.6 717.3,908.7 746,890 C771.4,873.5 786.6,847.7 789.9,817.8 C790.4,813.3 790.4,808.9 790.4,804.4 C790.4,789.2 790.4,774 790.4,758.8 C790.4,702.7 790.4,646.6 790.4,590.5 C790.4,539.9 790.4,489.3 790.4,438.6 C790.4,430.5 790.4,422.4 790.4,414.3 C790.4,402.3 782.9,391.5 772,386.9 C761,382.3 747.8,384.5 739.2,393.1 C729.6,402.7 720.1,412.2 710.5,421.8 C687.6,444.7 664.6,467.7 641.7,490.6 C614,518.3 586.4,545.9 558.7,573.6 C535,597.3 511.2,621.1 487.5,644.8 C479.8,652.5 472,660.3 464.3,668 C460.9,671.4 457.1,674.6 454,678.3 C452.2,680.5 462.4,672.8 458.7,674.6 C461.1,673.6 463.5,672.6 465.9,671.6 C463.2,672.7 460.1,673.1 457.2,673.5 C459.9,673.1 462.5,672.8 465.2,672.4 C441.1,675.5 416.4,675.2 392.1,675.1 C402.1,685.1 412.1,695.1 422.1,705.1 C421.9,680.5 421.5,655.4 424.5,631 C424.1,633.7 423.8,636.3 423.4,639 C424.1,633.7 426.2,628.5 426.2,623.2 C424.8,628.2 423.5,633.3 422.1,638.3 C418.1,645 417.2,644.1 419.8,641.5 C421.3,640 422.8,638.5 424.3,637 C429.6,631.7 434.9,626.4 440.3,621 C456.6,604.7 472.8,588.5 489.1,572.2 C513.2,548.1 537.3,524 561.3,500 C586.2,475.1 611.1,450.1 636.1,425.2 C654.6,406.7 673.2,388.1 691.7,369.6 C720.8,340.5 750,311.3 779.1,282.2 C779.8,281.5 780.5,280.8 781.2,280.1 C767.1,280.1 752.9,280.1 738.8,280.1 C739,280.3 739.1,280.4 739.3,280.6 C747.9,289.2 761.1,291.4 772.1,286.8 C783,282.2 790.5,271.4 790.5,259.4 C790.5,211.6 790.5,163.7 790.5,115.9 C790.5,109.2 790.5,102.4 790.5,95.7 C790.5,80 776.7,65 760.5,65.7 C744.1,66.2 730.3,78.7 730.3,95.5 Z" id="Path"></path>
            <g transform="translate(140.000000, 169.000000)" id="Path">
                <path d="M30.4,60.5 C45.3,60.5 60.1,60.5 75,60.5 C110.7,60.5 146.4,60.5 182.2,60.5 C225.6,60.5 269,60.5 312.4,60.5 C349.6,60.5 386.9,60.5 424.1,60.5 C442.3,60.5 460.6,60.9 478.8,60.5 C479,60.5 479.3,60.5 479.5,60.5 C495.2,60.5 510.2,46.7 509.5,30.5 C508.8,14.2 496.3,0.5 479.5,0.5 C464.6,0.5 449.8,0.5 434.9,0.5 C399.2,0.5 363.5,0.5 327.7,0.5 C284.3,0.5 240.9,0.5 197.5,0.5 C160.3,0.5 123,0.5 85.8,0.5 C67.6,0.5 49.3,0.1 31.1,0.5 C30.9,0.5 30.6,0.5 30.4,0.5 C14.7,0.5 -0.3,14.3 0.4,30.5 C1.1,46.8 13.6,60.5 30.4,60.5 L30.4,60.5 Z"></path>
                <path d="M359.6,169.2 C322.4,169.2 285.3,169.2 248.1,169.2 C189,169.2 129.9,169.2 70.7,169.2 C57.3,169.2 43.8,169.2 30.4,169.2 C14.7,169.2 -0.3,183 0.4,199.2 C1.1,215.5 13.6,229.2 30.4,229.2 C67.6,229.2 104.7,229.2 141.9,229.2 C201,229.2 260.1,229.2 319.3,229.2 C332.7,229.2 346.2,229.2 359.6,229.2 C375.3,229.2 390.3,215.4 389.6,199.2 C388.8,182.9 376.4,169.2 359.6,169.2 L359.6,169.2 Z"></path>
                <path d="M199.6,337.8 C150.2,337.8 100.9,337.8 51.5,337.8 C44.5,337.8 37.5,337.8 30.5,337.8 C14.8,337.8 -0.2,351.6 0.5,367.8 C1.2,384.1 13.7,397.8 30.5,397.8 C79.9,397.8 129.2,397.8 178.6,397.8 C185.6,397.8 192.6,397.8 199.6,397.8 C215.3,397.8 230.3,384 229.6,367.8 C228.8,351.6 216.4,337.8 199.6,337.8 L199.6,337.8 Z"></path>
                <path d="M159.6,506.5 C122,506.5 84.3,506.5 46.7,506.5 C41.3,506.5 35.9,506.5 30.5,506.5 C14.8,506.5 -0.2,520.3 0.5,536.5 C1.2,552.8 13.7,566.5 30.5,566.5 C68.1,566.5 105.8,566.5 143.4,566.5 C148.8,566.5 154.2,566.5 159.6,566.5 C175.3,566.5 190.3,552.7 189.6,536.5 C188.8,520.2 176.4,506.5 159.6,506.5 L159.6,506.5 Z"></path>
            </g>
        </g>
    </g>
</svg>
