<?xml version="1.0" encoding="UTF-8"?>
<svg width="25px" height="24px" viewBox="0 0 25 24" version="1.1" xmlns="http://www.w3.org/2000/svg" xmlns:xlink="http://www.w3.org/1999/xlink">
    <!-- Generator: Sketch 53 (72520) - https://sketchapp.com -->
    <title>Artboard</title>
    <desc>Created with Sketch.</desc>
    <g id="Artboard" stroke="none" stroke-width="1" fill="none" fill-rule="evenodd">
        <g id="apply" fill="#FFFFFF" fill-rule="nonzero">
            <g id="Path" transform="translate(9.556494, 3.951381)">
                <path d="M12.001056,4.41546961 C11.3331573,5.08640884 10.6626188,5.76 9.99472017,6.43093923 C9.65153115,6.77569061 9.30570222,7.12309392 8.9625132,7.4678453 C8.12565998,8.30850829 7.28616684,9.1518232 6.44931362,9.99248619 C5.56758184,10.878232 4.68848997,11.761326 3.80675818,12.6470718 C3.49524815,12.96 3.1810982,13.2755801 2.86958817,13.5885083 C2.72439282,13.7343646 2.5686378,13.8722652 2.43400211,14.0260773 C2.4313622,14.0313812 2.42608237,14.0340331 2.42344245,14.0366851 C2.41288279,14.0525967 2.63727561,13.8934807 2.55279831,13.9332597 C2.61615628,13.9067403 2.67951426,13.880221 2.74287223,13.8537017 C2.67159451,13.8828729 2.58975713,13.8934807 2.51319958,13.9040884 C2.5844773,13.8934807 2.6531151,13.8855249 2.72439282,13.8749171 C2.08817318,13.9571271 1.43611404,13.9491713 0.794614572,13.9465193 C1.05860612,14.2117127 1.32259768,14.4769061 1.58658923,14.7420994 C1.5813094,14.0897238 1.57074974,13.4240884 1.6499472,12.7770166 C1.63938754,12.8486188 1.63146779,12.9175691 1.62090813,12.9891713 C1.63938754,12.8486188 1.69482577,12.7107182 1.69482577,12.5701657 C1.65786695,12.7027624 1.62354805,12.838011 1.58658923,12.9706077 C1.48099261,13.1482873 1.45723337,13.1244199 1.52587117,13.0554696 C1.5654699,13.0156906 1.60506864,12.9759116 1.64466737,12.9361326 C1.78458289,12.7955801 1.92449842,12.6550276 2.06705385,12.5118232 C2.49736008,12.079558 2.9250264,11.6499448 3.35533263,11.2176796 C3.99155227,10.5785635 4.62777191,9.93944751 5.26135164,9.30298343 C5.9186906,8.64265193 6.57602957,7.97966851 7.23600845,7.31933702 C7.72439282,6.82872928 8.21541711,6.33546961 8.70380148,5.84486188 C9.4720169,5.07314917 10.2428722,4.29878453 11.0110876,3.52707182 C11.0295671,3.50850829 11.0480465,3.48994475 11.0665259,3.47138122 C10.6942978,3.47138122 10.3194298,3.47138122 9.94720169,3.47138122 C10.5464625,4.07337017 11.1457233,4.67535912 11.7423442,5.27469613 C11.8294615,5.36220994 11.9165787,5.44972376 12.0036959,5.53723757 C12.2967265,5.83160221 12.8352693,5.85281768 13.1230201,5.53723757 C13.4134108,5.21900552 13.43717,4.72574586 13.1230201,4.41281768 C12.5211193,3.8081768 11.9165787,3.20088398 11.3146779,2.59624309 C11.2302006,2.51138122 11.1483633,2.42917127 11.063886,2.34430939 C10.7602957,2.03933702 10.2481521,2.03933702 9.94456177,2.34430939 C9.23970433,3.05237569 8.53484688,3.76044199 7.82998944,4.46850829 C7.35216473,4.94850829 6.87697994,5.42585635 6.40179514,5.90585635 C5.65733897,6.65370166 4.91024287,7.4041989 4.16578669,8.1520442 C3.60876452,8.71160221 3.05174234,9.27116022 2.49472017,9.83071823 C1.79250264,10.5361326 1.07972545,11.2335912 0.388067582,11.9496133 C0.224392819,12.119337 0.113516367,12.3288398 0.113516367,12.5701657 C0.12407603,12.4985635 0.131995776,12.4296133 0.142555438,12.358011 C0.0633579725,12.5807735 0.0580781415,12.8353591 0.0422386484,13.0687293 C0.0237592397,13.318011 0.0184794087,13.5699448 0.0131995776,13.8192265 C0.00791974657,14.1268508 0.00527983105,14.4344751 0.00791974657,14.7420994 C0.0105596621,15.1743646 0.366948258,15.5350276 0.799894403,15.5376796 C1.38859556,15.5403315 1.97993664,15.5376796 2.56599789,15.4846409 C2.9250264,15.4501657 3.27877508,15.4209945 3.55332629,15.158453 C3.60876452,15.1054144 3.66156283,15.0497238 3.71436114,14.9966851 C4.4561774,14.2514917 5.20063358,13.5036464 5.94244984,12.758453 C6.99313622,11.7029834 8.0438226,10.6475138 9.09450898,9.5920442 C9.73864836,8.94497238 10.3827878,8.29790055 11.0269271,7.65082873 C11.6974657,6.97723757 12.3653643,6.30629834 13.0359029,5.63270718 C13.0649419,5.60353591 13.0966209,5.57171271 13.12566,5.54254144 C13.4186906,5.2481768 13.4398099,4.70718232 13.12566,4.41812155 C12.8062302,4.12375691 12.3152059,4.10254144 12.001056,4.41546961 Z"></path>
                <path d="M13.9889124,2.41856354 C13.4107709,2.99933702 12.8299894,3.58276243 12.2518479,4.16353591 C12.1673706,4.24839779 12.0855333,4.33060773 12.001056,4.41546961 C12.3732841,4.41546961 12.7481521,4.41546961 13.1203801,4.41546961 C12.5184794,3.81082873 11.9139388,3.20353591 11.312038,2.59889503 C11.2275607,2.51403315 11.1457233,2.4318232 11.061246,2.34696133 C11.061246,2.72088398 11.061246,3.09745856 11.061246,3.47138122 C11.6499472,2.88 12.2386484,2.28861878 12.8299894,1.69458564 C12.8854277,1.63889503 12.9408659,1.58320442 12.9963041,1.52751381 C13.0095037,1.51425414 13.0279831,1.50099448 13.0385428,1.48508287 C13.0385428,1.48243094 13.0464625,1.47977901 13.0464625,1.47712707 C13.0438226,1.51425414 12.8643083,1.58585635 13.0121436,1.51690608 C12.9487856,1.54342541 12.8854277,1.56994475 12.8220697,1.59646409 C12.8590285,1.58320442 12.8907075,1.57524862 12.9303062,1.56994475 C12.8590285,1.58055249 12.7903907,1.58850829 12.719113,1.59911602 C12.7428722,1.59646409 12.7692714,1.59646409 12.7930306,1.59911602 C12.7217529,1.58850829 12.6531151,1.58055249 12.5818374,1.56994475 C12.624076,1.57790055 12.6610348,1.58585635 12.7006336,1.60176796 C12.6372756,1.57524862 12.5739176,1.54872928 12.5105597,1.52220994 C12.6478353,1.59381215 12.7930306,1.6521547 12.9514256,1.6521547 C12.8194298,1.61502762 12.6847941,1.58055249 12.5527983,1.54342541 C12.6135164,1.58320442 12.655755,1.6521547 12.4604013,1.4718232 C12.3838437,1.28353591 12.3046463,1.09790055 12.2280887,0.90961326 C12.2280887,1.34983425 12.6636748,1.6760221 12.9487856,1.96243094 C13.2338965,2.24883978 13.5216473,2.53790055 13.8067582,2.82430939 C13.8516367,2.86939227 13.8991552,2.91712707 13.9440338,2.96220994 C13.9545935,2.97281768 13.9651531,2.98607735 13.9757128,2.99403315 C13.9757128,2.99403315 13.9809926,2.99933702 13.9809926,2.99933702 C13.9809926,2.99933702 13.9809926,2.99933702 13.9809926,2.99933702 C13.9968321,3.01524862 13.9836325,2.99668508 13.9413939,2.94629834 C13.8595565,2.83491713 13.9229145,2.92508287 13.936114,2.95690608 C13.9097149,2.89325967 13.8833157,2.82961326 13.8569166,2.76596685 C13.8701162,2.80044199 13.8780359,2.82961326 13.8833157,2.86674033 C13.8727561,2.79513812 13.8648363,2.72618785 13.8542767,2.65458564 C13.8569166,2.68906077 13.8569166,2.72088398 13.8542767,2.75801105 C13.8648363,2.68640884 13.8727561,2.61745856 13.8833157,2.54585635 C13.8780359,2.58033149 13.8674762,2.6121547 13.8569166,2.64662983 C13.8833157,2.58298343 13.9097149,2.51933702 13.936114,2.45569061 C13.9097149,2.53524862 13.8516367,2.57237569 13.9889124,2.41856354 C13.7090813,2.72618785 13.6642027,3.24331492 13.9889124,3.54298343 C14.2925026,3.8240884 14.812566,3.8718232 15.1082365,3.54298343 C15.5517423,3.05502762 15.5570222,2.35226519 15.1003168,1.86961326 C15.0105597,1.77414365 14.9155227,1.6839779 14.8257656,1.59381215 C14.501056,1.26762431 14.1763464,0.941436464 13.8516367,0.615248619 C13.7645195,0.527734807 13.6774023,0.440220994 13.5876452,0.350055249 C13.6642027,0.538342541 13.7434002,0.723977901 13.8199578,0.912265193 C13.8199578,0.464088398 13.4028511,0.0636464088 12.9593453,0.0636464088 C13.0913411,0.100773481 13.2259768,0.135248619 13.3579725,0.172375691 C12.8563886,-0.12198895 12.2729673,0.0079558011 11.8769799,0.403093923 C11.7370644,0.543646409 11.5971489,0.684198895 11.4572334,0.824751381 C11.0506864,1.23314917 10.6441394,1.64154696 10.2375924,2.04994475 C10.1399155,2.1480663 10.0395987,2.24883978 9.94192186,2.34696133 C9.63833157,2.6519337 9.63833157,3.16640884 9.94192186,3.47138122 C10.5411827,4.07337017 11.1404435,4.67535912 11.7370644,5.27469613 C11.8241816,5.36220994 11.9112988,5.44972376 11.9984161,5.53723757 C12.3020063,5.84220994 12.8141499,5.84220994 13.1177402,5.53723757 C13.6958817,4.95646409 14.2766631,4.37303867 14.8548046,3.79226519 C14.9392819,3.70740331 15.0211193,3.62519337 15.1055966,3.54033149 C15.3986272,3.24596685 15.4197466,2.70497238 15.1055966,2.4159116 C14.7940866,2.12950276 14.3030623,2.10563536 13.9889124,2.41856354 Z"></path>
                <path d="M13.9889124,2.41856354 C13.4107709,2.99933702 12.8299894,3.58276243 12.2518479,4.16353591 C12.1673706,4.24839779 12.0855333,4.33060773 12.001056,4.41546961 C12.3732841,4.41546961 12.7481521,4.41546961 13.1203801,4.41546961 C12.5184794,3.81082873 11.9139388,3.20353591 11.312038,2.59889503 C11.2275607,2.51403315 11.1457233,2.4318232 11.061246,2.34696133 C11.061246,2.72088398 11.061246,3.09745856 11.061246,3.47138122 C11.6499472,2.88 12.2386484,2.28861878 12.8299894,1.69458564 C12.8854277,1.63889503 12.9408659,1.58320442 12.9963041,1.52751381 C13.0095037,1.51425414 13.0279831,1.50099448 13.0385428,1.48508287 C13.0385428,1.48243094 13.0464625,1.47977901 13.0464625,1.47712707 C13.0438226,1.51425414 12.8643083,1.58585635 13.0121436,1.51690608 C12.9487856,1.54342541 12.8854277,1.56994475 12.8220697,1.59646409 C12.8590285,1.58320442 12.8907075,1.57524862 12.9303062,1.56994475 C12.8590285,1.58055249 12.7903907,1.58850829 12.719113,1.59911602 C12.7428722,1.59646409 12.7692714,1.59646409 12.7930306,1.59911602 C12.7217529,1.58850829 12.6531151,1.58055249 12.5818374,1.56994475 C12.624076,1.57790055 12.6610348,1.58585635 12.7006336,1.60176796 C12.6372756,1.57524862 12.5739176,1.54872928 12.5105597,1.52220994 C12.6478353,1.59381215 12.7930306,1.6521547 12.9514256,1.6521547 C12.8194298,1.61502762 12.6847941,1.58055249 12.5527983,1.54342541 C12.6795143,1.62828729 12.3917635,1.39756906 12.4868004,1.49834254 C12.5184794,1.53281768 12.5554382,1.56729282 12.5897571,1.60176796 C12.7138332,1.72640884 12.8352693,1.84839779 12.9593453,1.97303867 C13.2444562,2.25944751 13.5295671,2.54585635 13.8146779,2.83226519 C13.8595565,2.87734807 13.9017951,2.91977901 13.9466737,2.96486188 C13.9572334,2.97546961 13.967793,2.98872928 13.9783527,2.99668508 C13.9783527,2.99668508 13.9836325,3.00198895 13.9836325,3.00198895 C13.9836325,3.00198895 13.9836325,3.00198895 13.9836325,3.00198895 C13.999472,3.01790055 13.9862724,2.99933702 13.9440338,2.94895028 C13.8621964,2.83756906 13.9255544,2.92773481 13.938754,2.95955801 C13.9123548,2.8959116 13.8859556,2.83226519 13.8595565,2.76861878 C13.8727561,2.80309392 13.8806758,2.83226519 13.8859556,2.86939227 C13.875396,2.79779006 13.8674762,2.72883978 13.8569166,2.65723757 C13.8595565,2.69171271 13.8595565,2.72353591 13.8569166,2.76066298 C13.8674762,2.68906077 13.875396,2.6201105 13.8859556,2.54850829 C13.8806758,2.58298343 13.8701162,2.61480663 13.8595565,2.64928177 C13.8859556,2.58563536 13.9123548,2.52198895 13.938754,2.45834254 C13.9097149,2.53524862 13.8516367,2.57237569 13.9889124,2.41856354 C13.7090813,2.72618785 13.6642027,3.24331492 13.9889124,3.54298343 C14.2925026,3.8240884 14.812566,3.8718232 15.1082365,3.54298343 C15.5517423,3.05502762 15.5570222,2.34430939 15.095037,1.86430939 C14.9920803,1.75558011 14.8838437,1.6521547 14.7782471,1.54607735 C14.4403379,1.20662983 14.0997888,0.864530387 13.7618796,0.525082873 C13.5348469,0.297016575 13.313094,0.0609944751 12.9593453,0.0609944751 C13.0913411,0.098121547 13.2259768,0.132596685 13.3579725,0.169723757 C12.8563886,-0.124640884 12.2729673,0.0053038674 11.8769799,0.400441989 C11.7370644,0.540994475 11.5971489,0.681546961 11.4572334,0.822099448 C11.0506864,1.23049724 10.6441394,1.63889503 10.2375924,2.04729282 C10.1399155,2.14541436 10.0395987,2.24618785 9.94192186,2.34430939 C9.63833157,2.64928177 9.63833157,3.16375691 9.94192186,3.46872928 C10.5411827,4.07071823 11.1404435,4.67270718 11.7370644,5.2720442 C11.8241816,5.35955801 11.9112988,5.44707182 11.9984161,5.53458564 C12.3020063,5.83955801 12.8141499,5.83955801 13.1177402,5.53458564 C13.6958817,4.95381215 14.2766631,4.37038674 14.8548046,3.78961326 C14.9392819,3.70475138 15.0211193,3.62254144 15.1055966,3.53767956 C15.3986272,3.24331492 15.4197466,2.70232044 15.1055966,2.41325967 C14.7940866,2.12950276 14.3030623,2.10563536 13.9889124,2.41856354 Z"></path>
                <path d="M0.137275607,12.360663 C0.134635692,12.3686188 0.131995776,12.3792265 0.126715945,12.3871823 C0.0923970433,12.4932597 0.0897571278,12.599337 0.113516367,12.7054144 C0.118796199,12.8114917 0.150475185,12.9096133 0.208553326,13.0024309 C0.258711721,13.0952486 0.327349525,13.1695028 0.411826822,13.2251934 C0.488384372,13.2967956 0.578141499,13.3418785 0.681098205,13.3683978 C0.752375924,13.3790055 0.821013728,13.3869613 0.892291447,13.3975691 C1.03484688,13.3975691 1.16948258,13.360442 1.29091869,13.2888398 C1.343717,13.2464088 1.39651531,13.2066298 1.45195354,13.1641989 C1.54963041,13.0660773 1.61826822,12.9467403 1.65522703,12.8141436 C1.65786695,12.8061878 1.66050686,12.7955801 1.66578669,12.7876243 C1.7001056,12.681547 1.70274551,12.5754696 1.67898627,12.4693923 C1.67370644,12.3633149 1.64202746,12.2651934 1.58394931,12.1723757 C1.53379092,12.079558 1.46515312,12.0053039 1.38067582,11.9496133 C1.30411827,11.878011 1.21436114,11.8329282 1.11140444,11.8064088 C1.04012672,11.7958011 0.971488912,11.7878453 0.900211193,11.7772376 C0.757655755,11.7772376 0.623020063,11.8143646 0.501583949,11.8859669 C0.448785639,11.9283978 0.395987328,11.9681768 0.340549102,12.0106077 C0.242872228,12.1087293 0.174234424,12.2254144 0.137275607,12.360663 L0.137275607,12.360663 Z"></path>
                <path d="M1.58394931,12.9732597 C1.58922914,12.9626519 1.59450898,12.9520442 1.59978881,12.9440884 C1.55755016,12.9971271 1.51795143,13.0501657 1.47571278,13.1058564 C1.47835269,13.1032044 1.47835269,13.1032044 1.48099261,13.1005525 C1.10876452,13.1005525 0.733896515,13.1005525 0.361668427,13.1005525 C0.361668427,13.1005525 0.361668427,13.1005525 0.361668427,13.1005525 C0.432946146,13.1774586 0.517423442,13.2331492 0.617740232,13.2649724 C0.712777191,13.3153591 0.813093981,13.3365746 0.923970433,13.3339227 C1.03220697,13.3392265 1.13516367,13.3153591 1.23020063,13.2649724 C1.32787751,13.2331492 1.4123548,13.1774586 1.48627244,13.1005525 C1.52851109,13.0475138 1.56810982,12.9944751 1.61034847,12.9387845 C1.68162619,12.8141436 1.71858501,12.681547 1.71858501,12.5383425 C1.70802534,12.4667403 1.7001056,12.3977901 1.68954593,12.3261878 C1.65258712,12.1909392 1.58394931,12.0742541 1.48627244,11.9761326 C1.48627244,11.9761326 1.48627244,11.9761326 1.48627244,11.9761326 C1.41499472,11.8992265 1.33051742,11.8435359 1.23020063,11.8117127 C1.13516367,11.761326 1.03484688,11.7401105 0.923970433,11.7427624 C0.852692714,11.7533702 0.78405491,11.761326 0.712777191,11.7719337 C0.578141499,11.8090608 0.461985216,11.878011 0.364308342,11.9761326 C0.314149947,12.0291713 0.269271383,12.0875138 0.232312566,12.1485083 C0.227032735,12.1564641 0.224392819,12.161768 0.221752904,12.1697238 C0.163674762,12.2598895 0.131995776,12.360663 0.126715945,12.4667403 C0.102956705,12.5728177 0.108236536,12.678895 0.139915523,12.7849724 C0.163674762,12.8883978 0.211193242,12.9785635 0.282470961,13.0554696 C0.337909187,13.1429834 0.411826822,13.2092818 0.504223865,13.2596685 C0.567581837,13.2861878 0.63093981,13.3127072 0.694297782,13.3392265 C0.834213305,13.3763536 0.974128828,13.3763536 1.11668427,13.3392265 C1.18004224,13.3127072 1.24340021,13.2861878 1.30675818,13.2596685 C1.41763464,13.1880663 1.51267159,13.0925967 1.58394931,12.9732597 L1.58394931,12.9732597 Z"></path>
            </g>
            <path d="M19.2793031,2.53259669 C19.2793031,3.80022099 19.2793031,5.07049724 19.2793031,6.33812155 C19.2793031,6.5158011 19.2793031,6.6961326 19.2793031,6.87381215 C19.7307286,6.68552486 20.1795143,6.4998895 20.6309398,6.31160221 C20.62566,6.30629834 20.6230201,6.30364641 20.6177402,6.29834254 C20.3141499,5.99337017 19.8020063,5.99337017 19.4984161,6.29834254 C18.7935586,7.00640884 18.0887012,7.71447514 17.3838437,8.42254144 C16.906019,8.90254144 16.4308342,9.3798895 15.9556494,9.8598895 C15.2111932,10.6077348 14.4640971,11.358232 13.719641,12.1060773 C13.1626188,12.6656354 12.6055966,13.2251934 12.0485744,13.7847514 C11.3463569,14.4901657 10.6335797,15.1876243 9.94192186,15.9036464 C9.7782471,16.0733702 9.66737064,16.2828729 9.66737064,16.5241989 C9.67793031,16.4525967 9.68585005,16.3836464 9.69640971,16.3120442 C9.61721225,16.5348066 9.61193242,16.7893923 9.59609293,17.0227624 C9.57761352,17.2720442 9.57233369,17.5239779 9.56705385,17.7732597 C9.56177402,18.080884 9.55913411,18.3885083 9.56177402,18.6961326 C9.56441394,19.1283978 9.92080253,19.4890608 10.3537487,19.4917127 C10.813094,19.4943646 11.2697994,19.4864088 11.7291447,19.4651934 C12.2122492,19.441326 12.7613516,19.4492818 13.1309398,19.0912707 C13.5770855,18.6563536 14.0126716,18.2055249 14.4508976,17.7653039 C15.2692714,16.9432044 16.0876452,16.121105 16.906019,15.2990055 C17.7217529,14.479558 18.5374868,13.6601105 19.3532207,12.840663 C19.7756072,12.4163536 20.2085533,12.0026519 20.6177402,11.5703867 C20.6230201,11.5650829 20.6309398,11.5571271 20.6362196,11.5518232 C20.1847941,11.3635359 19.7360084,11.1779006 19.2845829,10.9896133 C19.2845829,11.3449724 19.2845829,11.6976796 19.2845829,12.0530387 C19.2845829,12.9016575 19.2845829,13.7502762 19.2845829,14.598895 C19.2845829,15.6198895 19.2845829,16.640884 19.2845829,17.6592265 C19.2845829,18.5264088 19.2845829,19.3935912 19.2845829,20.2607735 C19.2845829,20.6612155 19.2872228,21.0616575 19.2845829,21.4647514 C19.2845829,21.5390055 19.2793031,21.6159116 19.2713833,21.6901657 C19.281943,21.6185635 19.2898627,21.5496133 19.3004224,21.478011 C19.2793031,21.6318232 19.2397043,21.7776796 19.1816262,21.920884 C19.2080253,21.8572376 19.2344245,21.7935912 19.2608237,21.7299448 C19.218585,21.8254144 19.1737064,21.918232 19.1156283,22.0057459 C19.0997888,22.0296133 19.0813094,22.0534807 19.0681098,22.0773481 C19.031151,22.1436464 19.2053854,21.9155801 19.1182682,22.0110497 C19.0839493,22.0481768 19.0496304,22.0879558 19.0153115,22.1250829 C18.9783527,22.1622099 18.938754,22.1940331 18.9017951,22.2285083 C18.8199578,22.3027624 18.9809926,22.1648619 18.9809926,22.1675138 C18.9836325,22.1728177 18.9149947,22.2125967 18.9097149,22.2179006 C18.8173178,22.278895 18.7222809,22.3292818 18.6219641,22.3743646 C18.6853221,22.3478453 18.74868,22.321326 18.812038,22.2948066 C18.6694826,22.3531492 18.5216473,22.3929282 18.3711721,22.4141436 C18.4424498,22.4035359 18.5110876,22.3955801 18.5823654,22.3849724 C18.3843717,22.4088398 18.1810982,22.398232 17.9804646,22.398232 C17.6003168,22.398232 17.2228089,22.398232 16.842661,22.398232 C15.5702218,22.398232 14.2977825,22.398232 13.0227033,22.398232 C11.4783527,22.398232 9.93664203,22.398232 8.39229145,22.398232 C7.06441394,22.398232 5.73653643,22.398232 4.40865892,22.398232 C3.78563886,22.398232 3.15997888,22.4035359 2.53695882,22.398232 C2.45776135,22.398232 2.3812038,22.3929282 2.30464625,22.3849724 C2.37592397,22.3955801 2.44456177,22.4035359 2.51583949,22.4141436 C2.36272439,22.3929282 2.21752904,22.3531492 2.0749736,22.2948066 C2.13833157,22.321326 2.20168955,22.3478453 2.26504752,22.3743646 C2.17001056,22.3345856 2.07761352,22.2868508 1.9904963,22.2285083 C1.96673706,22.2125967 1.94297782,22.1940331 1.91921859,22.1807735 C1.8532207,22.1436464 2.08025343,22.318674 1.98521647,22.2311602 C1.94825766,22.1966851 1.90865892,22.1622099 1.87170011,22.1277348 C1.83474129,22.0906077 1.8030623,22.0508287 1.7687434,22.0137017 C1.69482577,21.9314917 1.83210137,22.0932597 1.82946146,22.0932597 C1.82418163,22.0959116 1.78458289,22.0269613 1.77930306,22.0216575 C1.71858501,21.9288398 1.66842661,21.8333702 1.62354805,21.7325967 C1.6499472,21.7962431 1.67634636,21.8598895 1.70274551,21.9235359 C1.64466737,21.7803315 1.60506864,21.6318232 1.58394931,21.480663 C1.59450898,21.5522652 1.60242872,21.6212155 1.61298838,21.6928177 C1.58658923,21.4674033 1.59978881,21.2366851 1.59978881,21.0086188 C1.59978881,20.5551381 1.59978881,20.1016575 1.59978881,19.6481768 C1.59978881,18.9692818 1.59978881,18.2877348 1.59978881,17.6088398 C1.59978881,16.7708287 1.59978881,15.9328177 1.59978881,15.0948066 C1.59978881,14.1798895 1.59978881,13.2649724 1.59978881,12.3474033 C1.59978881,11.4192265 1.59978881,10.4910497 1.59978881,9.56022099 C1.59978881,8.70099448 1.59978881,7.83911602 1.59978881,6.9798895 C1.59978881,6.2559116 1.59978881,5.5319337 1.59978881,4.8079558 C1.59978881,4.29082873 1.59978881,3.77370166 1.59978881,3.25657459 C1.59978881,3.02320442 1.59978881,2.78983425 1.59978881,2.55646409 C1.59978881,2.47690608 1.60506864,2.39734807 1.61298838,2.31779006 C1.60242872,2.38939227 1.59450898,2.45834254 1.58394931,2.52994475 C1.60506864,2.3761326 1.64466737,2.23027624 1.70274551,2.08707182 C1.67634636,2.15071823 1.6499472,2.21436464 1.62354805,2.27801105 C1.66578669,2.18254144 1.71066526,2.08972376 1.7687434,2.00220994 C1.78458289,1.97834254 1.8030623,1.95447514 1.81626188,1.93060773 C1.8532207,1.86430939 1.67898627,2.09237569 1.76610348,1.99690608 C1.80042239,1.95977901 1.83474129,1.92 1.86906019,1.88287293 C1.90601901,1.84574586 1.94561774,1.81392265 1.98257656,1.77944751 C2.06441394,1.70519337 1.90337909,1.84309392 1.90337909,1.84044199 C1.90073918,1.83513812 1.96937698,1.79535912 1.97465681,1.79005525 C2.06705385,1.72906077 2.16209081,1.67867403 2.2624076,1.63359116 C2.19904963,1.6601105 2.13569166,1.68662983 2.07233369,1.71314917 C2.21488912,1.65480663 2.36272439,1.61502762 2.51319958,1.59381215 C2.44192186,1.60441989 2.37328405,1.61237569 2.30200634,1.62298343 C2.5,1.59911602 2.7032735,1.60972376 2.90390707,1.60972376 C3.28405491,1.60972376 3.66156283,1.60972376 4.04171067,1.60972376 C5.31414995,1.60972376 6.58658923,1.60972376 7.86166843,1.60972376 C9.40601901,1.60972376 10.9477297,1.60972376 12.4920803,1.60972376 C13.8199578,1.60972376 15.1478353,1.60972376 16.4757128,1.60972376 C17.0987328,1.60972376 17.7243928,1.60441989 18.3474129,1.60972376 C18.4266103,1.60972376 18.5031679,1.61502762 18.5797254,1.62298343 C18.5084477,1.61237569 18.4398099,1.60441989 18.3685322,1.59381215 C18.5216473,1.61502762 18.6668427,1.65480663 18.8093981,1.71314917 C18.7460401,1.68662983 18.6826822,1.6601105 18.6193242,1.63359116 C18.7143611,1.67337017 18.8067582,1.72110497 18.8938754,1.77944751 C18.9176346,1.79535912 18.9413939,1.81392265 18.9651531,1.82718232 C19.031151,1.86430939 18.8041183,1.68928177 18.8991552,1.77679558 C18.936114,1.81127072 18.9757128,1.84574586 19.0126716,1.88022099 C19.0496304,1.91734807 19.0813094,1.95712707 19.1156283,1.99425414 C19.1895459,2.07646409 19.0522703,1.91469613 19.0549102,1.91469613 C19.0601901,1.9120442 19.0997888,1.98099448 19.1050686,1.98629834 C19.1657867,2.07911602 19.2159451,2.17458564 19.2608237,2.27535912 C19.2344245,2.21171271 19.2080253,2.1480663 19.1816262,2.08441989 C19.2397043,2.22762431 19.2793031,2.3761326 19.3004224,2.52729282 C19.2898627,2.45569061 19.281943,2.38674033 19.2713833,2.31513812 C19.2740232,2.38674033 19.2793031,2.45834254 19.2793031,2.53259669 C19.2845829,2.94895028 19.6409715,3.34674033 20.0712777,3.3281768 C20.4963041,3.30961326 20.8685322,2.97812155 20.8632524,2.53259669 C20.8553326,1.81392265 20.5491024,1.08464088 19.9894403,0.625856354 C19.5195354,0.238674033 18.9625132,0.0185635359 18.3500528,0.0132596685 C18.1599789,0.0106077348 17.9725449,0.0132596685 17.782471,0.0132596685 C16.7001056,0.0132596685 15.6177402,0.0132596685 14.5353749,0.0132596685 C12.9619852,0.0132596685 11.3885956,0.0132596685 9.81784583,0.0132596685 C8.32365364,0.0132596685 6.82682154,0.0132596685 5.33262936,0.0132596685 C4.4561774,0.0132596685 3.57708553,0.0132596685 2.70063358,0.0132596685 C2.64255544,0.0132596685 2.58183738,0.0132596685 2.52375924,0.0132596685 C1.91129884,0.0185635359 1.35427666,0.238674033 0.8843717,0.625856354 C0.285110876,1.11646409 0.0105596621,1.87491713 0.0105596621,2.6360221 C0.0105596621,3.35734807 0.0105596621,4.0760221 0.0105596621,4.79734807 C0.0105596621,6.16839779 0.0105596621,7.53944751 0.0105596621,8.91049724 C0.0105596621,10.5255249 0.0105596621,12.1405525 0.0105596621,13.7555801 C0.0105596621,15.2327072 0.0105596621,16.7124862 0.0105596621,18.1896133 C0.0105596621,19.1337017 0.0105596621,20.0777901 0.0105596621,21.0218785 C0.0105596621,21.1703867 0.00791974657,21.318895 0.0105596621,21.4674033 C0.0158394931,22.1277348 0.271911299,22.7668508 0.733896515,23.238895 C1.20116156,23.718895 1.85586061,23.9840884 2.52111932,23.9893923 C3.12565998,23.9946961 3.73020063,23.9893923 4.3373812,23.9893923 C5.71541711,23.9893923 7.09081309,23.9893923 8.468849,23.9893923 C10.0739176,23.9893923 11.6789863,23.9893923 13.2840549,23.9893923 C14.561774,23.9893923 15.8394931,23.9893923 17.1145723,23.9893923 C17.9751848,23.9893923 18.936114,24.0981215 19.6937698,23.6022099 C20.3643083,23.1646409 20.7655755,22.480442 20.8526927,21.6875138 C20.8658923,21.5681768 20.8658923,21.4514917 20.8658923,21.3321547 C20.8658923,20.9290608 20.8658923,20.5259669 20.8658923,20.1228729 C20.8658923,18.6351381 20.8658923,17.1474033 20.8658923,15.6596685 C20.8658923,14.3177901 20.8658923,12.9759116 20.8658923,11.6313812 C20.8658923,11.4165746 20.8658923,11.201768 20.8658923,10.9869613 C20.8658923,10.6687293 20.6678986,10.3823204 20.3801478,10.2603315 C20.0897571,10.1383425 19.7412883,10.1966851 19.5142555,10.4247514 C19.2608237,10.679337 19.0100317,10.9312707 18.7565998,11.1858564 C18.1520591,11.7931492 17.5448786,12.4030939 16.9403379,13.0103867 C16.2090813,13.7449724 15.4804646,14.4769061 14.749208,15.2114917 C14.123548,15.84 13.4952482,16.4711602 12.8695882,17.0996685 C12.6663147,17.3038674 12.4604013,17.5107182 12.2571278,17.7149171 C12.1673706,17.8050829 12.0670539,17.8899448 11.9852165,17.9880663 C11.937698,18.0464088 12.2069694,17.8422099 12.1092925,17.8899448 C12.1726505,17.8634254 12.2360084,17.8369061 12.2993664,17.8103867 C12.2280887,17.839558 12.1462513,17.8501657 12.0696938,17.8607735 C12.1409715,17.8501657 12.2096093,17.8422099 12.280887,17.8316022 C11.6446674,17.9138122 10.9926082,17.9058564 10.3511088,17.9032044 C10.6151003,18.1683978 10.8790919,18.4335912 11.1430834,18.6987845 C11.1378036,18.0464088 11.1272439,17.3807735 11.2064414,16.7337017 C11.1958817,16.8053039 11.187962,16.8742541 11.1774023,16.9458564 C11.1958817,16.8053039 11.25132,16.6674033 11.25132,16.5268508 C11.2143611,16.6594475 11.1800422,16.7946961 11.1430834,16.9272928 C11.0374868,17.1049724 11.0137276,17.081105 11.0823654,17.0121547 C11.1219641,16.9723757 11.1615628,16.9325967 11.2011616,16.8928177 C11.3410771,16.7522652 11.4809926,16.6117127 11.623548,16.4685083 C12.0538543,16.0362431 12.4815206,15.6066298 12.9118268,15.1743646 C13.5480465,14.5352486 14.1842661,13.8961326 14.8178458,13.2596685 C15.4751848,12.599337 16.1325238,11.9363536 16.7925026,11.2760221 C17.280887,10.7854144 17.7719113,10.2921547 18.2602957,9.80154696 C19.0285111,9.02983425 19.7993664,8.25546961 20.5675818,7.48375691 C20.5860612,7.46519337 20.6045407,7.44662983 20.6230201,7.4280663 C20.250792,7.4280663 19.875924,7.4280663 19.5036959,7.4280663 C19.5089757,7.43337017 19.5116156,7.4360221 19.5168955,7.44132597 C19.7439282,7.66939227 20.092397,7.72773481 20.3827878,7.60574586 C20.6705385,7.48375691 20.8685322,7.19734807 20.8685322,6.87911602 C20.8685322,5.61149171 20.8685322,4.34121547 20.8685322,3.07359116 C20.8685322,2.8959116 20.8685322,2.71558011 20.8685322,2.53790055 C20.8685322,2.12154696 20.5042239,1.72375691 20.0765576,1.74232044 C19.6436114,1.75558011 19.2793031,2.08707182 19.2793031,2.53259669 Z" id="Path"></path>
            <g id="Path" transform="translate(3.695882, 4.481768)">
                <path d="M0.802534319,1.60441989 C1.19588173,1.60441989 1.58658923,1.60441989 1.97993664,1.60441989 C2.92238648,1.60441989 3.86483633,1.60441989 4.80992608,1.60441989 C5.95564942,1.60441989 7.10137276,1.60441989 8.24709609,1.60441989 C9.22914467,1.60441989 10.2138332,1.60441989 11.1958817,1.60441989 C11.6763464,1.60441989 12.1594509,1.61502762 12.6399155,1.60441989 C12.6451954,1.60441989 12.6531151,1.60441989 12.6583949,1.60441989 C13.0728617,1.60441989 13.468849,1.23845304 13.4503696,0.808839779 C13.4318902,0.376574586 13.1019007,0.0132596685 12.6583949,0.0132596685 C12.2650475,0.0132596685 11.87434,0.0132596685 11.4809926,0.0132596685 C10.5385428,0.0132596685 9.59609293,0.0132596685 8.65100317,0.0132596685 C7.50527983,0.0132596685 6.35955649,0.0132596685 5.21383316,0.0132596685 C4.23178458,0.0132596685 3.24709609,0.0132596685 2.26504752,0.0132596685 C1.78458289,0.0132596685 1.30147835,0.0026519337 0.821013728,0.0132596685 C0.815733897,0.0132596685 0.80781415,0.0132596685 0.802534319,0.0132596685 C0.388067582,0.0132596685 -0.00791974657,0.379226519 0.0105596621,0.808839779 C0.0290390707,1.24110497 0.359028511,1.60441989 0.802534319,1.60441989 L0.802534319,1.60441989 Z"></path>
                <path d="M9.49313622,4.48707182 C8.51108765,4.48707182 7.53167899,4.48707182 6.54963041,4.48707182 C4.98944034,4.48707182 3.42925026,4.48707182 1.86642027,4.48707182 C1.51267159,4.48707182 1.156283,4.48707182 0.802534319,4.48707182 C0.388067582,4.48707182 -0.00791974657,4.85303867 0.0105596621,5.28265193 C0.0290390707,5.71491713 0.359028511,6.07823204 0.802534319,6.07823204 C1.78458289,6.07823204 2.76399155,6.07823204 3.74604013,6.07823204 C5.3062302,6.07823204 6.86642027,6.07823204 8.42925026,6.07823204 C8.78299894,6.07823204 9.13938754,6.07823204 9.49313622,6.07823204 C9.90760296,6.07823204 10.3035903,5.71226519 10.2851109,5.28265193 C10.2639916,4.85038674 9.93664203,4.48707182 9.49313622,4.48707182 L9.49313622,4.48707182 Z"></path>
                <path d="M5.26927138,8.95823204 C3.96515312,8.95823204 2.66367476,8.95823204 1.35955649,8.95823204 C1.17476241,8.95823204 0.989968321,8.95823204 0.805174234,8.95823204 C0.390707497,8.95823204 -0.00527983105,9.3241989 0.0131995776,9.75381215 C0.0316789863,10.1860773 0.361668427,10.5493923 0.805174234,10.5493923 C2.1092925,10.5493923 3.41077086,10.5493923 4.71488912,10.5493923 C4.89968321,10.5493923 5.0844773,10.5493923 5.26927138,10.5493923 C5.68373812,10.5493923 6.07972545,10.1834254 6.06124604,9.75381215 C6.04012672,9.3241989 5.71277719,8.95823204 5.26927138,8.95823204 L5.26927138,8.95823204 Z"></path>
                <path d="M4.21330517,13.4320442 C3.22069694,13.4320442 2.22544879,13.4320442 1.23284055,13.4320442 C1.09028511,13.4320442 0.947729673,13.4320442 0.805174234,13.4320442 C0.390707497,13.4320442 -0.00527983105,13.798011 0.0131995776,14.2276243 C0.0316789863,14.6598895 0.361668427,15.0232044 0.805174234,15.0232044 C1.79778247,15.0232044 2.79303062,15.0232044 3.78563886,15.0232044 C3.9281943,15.0232044 4.07074974,15.0232044 4.21330517,15.0232044 C4.62777191,15.0232044 5.02375924,14.6572376 5.00527983,14.2276243 C4.98416051,13.7953591 4.65681098,13.4320442 4.21330517,13.4320442 L4.21330517,13.4320442 Z"></path>
            </g>
        </g>
    </g>
</svg>