<svg xmlns="http://www.w3.org/2000/svg" viewBox="0 0 24800 800" width="24800" height="800"><g><defs><clipPath id="clip_frame0_ruler"><path d="M436.299 276.116l3.677 3.677-28.284 28.284-3.677-3.677z"/></clipPath><clipPath id="clip_frame0_pencil_butt"><path d="M401.09 239.79l2.475-2.475 28.284 28.284-2.475 2.475z"/></clipPath><clipPath id="clip_frame0_pencil"><path d="M401.09 239.79l2.475-2.475 28.284 28.284-2.475 2.475z"/></clipPath><clipPath id="clip_frame0_pencil_tip"><path d="M401.09 239.79l2.475-2.475 28.284 28.284-2.475 2.475z"/></clipPath><clipPath id="clip_frame0_stick"><path d="M380.9 546h40v4.8h-40z"/></clipPath></defs><path d="M613.6 577.6c-51.1 56.2-125.2 91.6-207.7 91.6-154 0-278.9-123.3-278.9-275.3s124.9-275.3 278.9-275.3c86.2 0 163.3 38.6 214.5 99.3" fill="none" stroke="#ff324a" stroke-width="80" stroke-dasharray="0,1348.3816290344794" stroke-dashoffset="1348.381629"/><path clip-path="url(#clip_frame0_ruler)" d="M505.2 401.6l8.5-8.5-2.8-2.8-8.5 8.5-28.3-28.3 8.5-8.5-2.9-2.8-8.4 8.5-28.3-28.3 8.5-8.5-2.9-2.8-8.5 8.5-28.2-28.3 28.2-28.3 121.7 121.6-28.3 28.3z" fill="#6f6f6f"/><g fill="#6f6f6f"><path clip-path="url(#clip_frame0_pencil_butt)" d="M386.675 254.138l14.142-14.142 28.284 28.285-14.142 14.142z"/><path clip-path="url(#clip_frame0_pencil)" d="M270.709 370.128L381.018 259.82l28.284 28.284-110.308 110.308z"/><path clip-path="url(#clip_frame0_pencil_tip)" d="M258 411.1l7.1-35.3 28.3 28.2z"/></g><path clip-path="url(#clip_frame0_stick)" d="M400.9 366c11 0 20 9 20 20v140c0 11-9 20-20 20s-20-9-20-20V386c0-11 8.9-20 20-20z" fill="#6f6f6f"/></g><g transform="translate(800)"><defs><clipPath id="clip_frame1_ruler"><path d="M436.299 276.116l3.677 3.677-28.284 28.284-3.677-3.677z"/></clipPath><clipPath id="clip_frame1_pencil_butt"><path d="M401.09 239.79l2.475-2.475 28.284 28.284-2.475 2.475z"/></clipPath><clipPath id="clip_frame1_pencil"><path d="M401.09 239.79l2.475-2.475 28.284 28.284-2.475 2.475z"/></clipPath><clipPath id="clip_frame1_pencil_tip"><path d="M401.09 239.79l2.475-2.475 28.284 28.284-2.475 2.475z"/></clipPath><clipPath id="clip_frame1_stick"><path d="M380.9 546h40v4.8h-40z"/></clipPath></defs><path d="M613.6 577.6c-51.1 56.2-125.2 91.6-207.7 91.6-154 0-278.9-123.3-278.9-275.3s124.9-275.3 278.9-275.3c86.2 0 163.3 38.6 214.5 99.3" fill="none" stroke="#ff324a" stroke-width="80" stroke-dasharray="14.347798368370844,1334.0338306661085" stroke-dashoffset="14.347798"/><path clip-path="url(#clip_frame1_ruler)" d="M505.2 401.6l8.5-8.5-2.8-2.8-8.5 8.5-28.3-28.3 8.5-8.5-2.9-2.8-8.4 8.5-28.3-28.3 8.5-8.5-2.9-2.8-8.5 8.5-28.2-28.3 28.2-28.3 121.7 121.6-28.3 28.3z" fill="#6f6f6f"/><g fill="#6f6f6f"><path clip-path="url(#clip_frame1_pencil_butt)" d="M386.675 254.138l14.142-14.142 28.284 28.285-14.142 14.142z"/><path clip-path="url(#clip_frame1_pencil)" d="M270.709 370.128L381.018 259.82l28.284 28.284-110.308 110.308z"/><path clip-path="url(#clip_frame1_pencil_tip)" d="M258 411.1l7.1-35.3 28.3 28.2z"/></g><path clip-path="url(#clip_frame1_stick)" d="M400.9 366c11 0 20 9 20 20v140c0 11-9 20-20 20s-20-9-20-20V386c0-11 8.9-20 20-20z" fill="#6f6f6f"/></g><g transform="translate(1600)"><defs><clipPath id="clip_frame2_ruler"><path d="M436.299 276.116l3.677 3.677-28.284 28.284-3.677-3.677z"/></clipPath><clipPath id="clip_frame2_pencil_butt"><path d="M401.09 239.79l2.475-2.475 28.284 28.284-2.475 2.475z"/></clipPath><clipPath id="clip_frame2_pencil"><path d="M401.09 239.79l2.475-2.475 28.284 28.284-2.475 2.475z"/></clipPath><clipPath id="clip_frame2_pencil_tip"><path d="M401.09 239.79l2.475-2.475 28.284 28.284-2.475 2.475z"/></clipPath><clipPath id="clip_frame2_stick"><path d="M380.9 546h40v4.8h-40z"/></clipPath></defs><path d="M613.6 577.6c-51.1 56.2-125.2 91.6-207.7 91.6-154 0-278.9-123.3-278.9-275.3s124.9-275.3 278.9-275.3c86.2 0 163.3 38.6 214.5 99.3" fill="none" stroke="#ff324a" stroke-width="80" stroke-dasharray="67.32578282414285,1281.0558462103365" stroke-dashoffset="67.325783"/><path clip-path="url(#clip_frame2_ruler)" d="M505.2 401.6l8.5-8.5-2.8-2.8-8.5 8.5-28.3-28.3 8.5-8.5-2.9-2.8-8.4 8.5-28.3-28.3 8.5-8.5-2.9-2.8-8.5 8.5-28.2-28.3 28.2-28.3 121.7 121.6-28.3 28.3z" fill="#6f6f6f"/><g fill="#6f6f6f"><path clip-path="url(#clip_frame2_pencil_butt)" d="M386.675 254.138l14.142-14.142 28.284 28.285-14.142 14.142z"/><path clip-path="url(#clip_frame2_pencil)" d="M270.709 370.128L381.018 259.82l28.284 28.284-110.308 110.308z"/><path clip-path="url(#clip_frame2_pencil_tip)" d="M258 411.1l7.1-35.3 28.3 28.2z"/></g><path clip-path="url(#clip_frame2_stick)" d="M400.9 366c11 0 20 9 20 20v140c0 11-9 20-20 20s-20-9-20-20V386c0-11 8.9-20 20-20z" fill="#6f6f6f"/></g><g transform="translate(2400)"><defs><clipPath id="clip_frame3_ruler"><path d="M436.299 276.116l3.677 3.677-28.284 28.284-3.677-3.677z"/></clipPath><clipPath id="clip_frame3_pencil_butt"><path d="M401.09 239.79l2.475-2.475 28.284 28.284-2.475 2.475z"/></clipPath><clipPath id="clip_frame3_pencil"><path d="M401.09 239.79l2.475-2.475 28.284 28.284-2.475 2.475z"/></clipPath><clipPath id="clip_frame3_pencil_tip"><path d="M401.09 239.79l2.475-2.475 28.284 28.284-2.475 2.475z"/></clipPath><clipPath id="clip_frame3_stick"><path d="M380.9 546h40v4.8h-40z"/></clipPath></defs><path d="M613.6 577.6c-51.1 56.2-125.2 91.6-207.7 91.6-154 0-278.9-123.3-278.9-275.3s124.9-275.3 278.9-275.3c86.2 0 163.3 38.6 214.5 99.3" fill="none" stroke="#ff324a" stroke-width="80" stroke-dasharray="180.61137078104002,1167.7702582534394" stroke-dashoffset="180.611371"/><path clip-path="url(#clip_frame3_ruler)" d="M505.2 401.6l8.5-8.5-2.8-2.8-8.5 8.5-28.3-28.3 8.5-8.5-2.9-2.8-8.4 8.5-28.3-28.3 8.5-8.5-2.9-2.8-8.5 8.5-28.2-28.3 28.2-28.3 121.7 121.6-28.3 28.3z" fill="#6f6f6f"/><g fill="#6f6f6f"><path clip-path="url(#clip_frame3_pencil_butt)" d="M386.675 254.138l14.142-14.142 28.284 28.285-14.142 14.142z"/><path clip-path="url(#clip_frame3_pencil)" d="M270.709 370.128L381.018 259.82l28.284 28.284-110.308 110.308z"/><path clip-path="url(#clip_frame3_pencil_tip)" d="M258 411.1l7.1-35.3 28.3 28.2z"/></g><path clip-path="url(#clip_frame3_stick)" d="M400.9 366c11 0 20 9 20 20v140c0 11-9 20-20 20s-20-9-20-20V386c0-11 8.9-20 20-20z" fill="#6f6f6f"/></g><g transform="translate(3200)"><defs><clipPath id="clip_frame4_ruler"><path d="M436.299 276.116l3.677 3.677-28.284 28.284-3.677-3.677z"/></clipPath><clipPath id="clip_frame4_pencil_butt"><path d="M401.09 239.79l2.475-2.475 28.284 28.284-2.475 2.475z"/></clipPath><clipPath id="clip_frame4_pencil"><path d="M401.09 239.79l2.475-2.475 28.284 28.284-2.475 2.475z"/></clipPath><clipPath id="clip_frame4_pencil_tip"><path d="M401.09 239.79l2.475-2.475 28.284 28.284-2.475 2.475z"/></clipPath><clipPath id="clip_frame4_stick"><path d="M380.9 546h40v4.8h-40z"/></clipPath></defs><path d="M613.6 577.6c-51.1 56.2-125.2 91.6-207.7 91.6-154 0-278.9-123.3-278.9-275.3s124.9-275.3 278.9-275.3c86.2 0 163.3 38.6 214.5 99.3" fill="none" stroke="#ff324a" stroke-width="80" stroke-dasharray="374.9222815143039,973.4593475201755" stroke-dashoffset="374.922282"/><path clip-path="url(#clip_frame4_ruler)" d="M505.2 401.6l8.5-8.5-2.8-2.8-8.5 8.5-28.3-28.3 8.5-8.5-2.9-2.8-8.4 8.5-28.3-28.3 8.5-8.5-2.9-2.8-8.5 8.5-28.2-28.3 28.2-28.3 121.7 121.6-28.3 28.3z" fill="#6f6f6f"/><g fill="#6f6f6f"><path clip-path="url(#clip_frame4_pencil_butt)" d="M386.675 254.138l14.142-14.142 28.284 28.285-14.142 14.142z"/><path clip-path="url(#clip_frame4_pencil)" d="M270.709 370.128L381.018 259.82l28.284 28.284-110.308 110.308z"/><path clip-path="url(#clip_frame4_pencil_tip)" d="M258 411.1l7.1-35.3 28.3 28.2z"/></g><path clip-path="url(#clip_frame4_stick)" d="M400.9 366c11 0 20 9 20 20v140c0 11-9 20-20 20s-20-9-20-20V386c0-11 8.9-20 20-20z" fill="#6f6f6f"/></g><g transform="translate(4000)"><defs><clipPath id="clip_frame5_ruler"><path d="M436.299 276.116l3.677 3.677-28.284 28.284-3.677-3.677z"/></clipPath><clipPath id="clip_frame5_pencil_butt"><path d="M401.09 239.79l2.475-2.475 28.284 28.284-2.475 2.475z"/></clipPath><clipPath id="clip_frame5_pencil"><path d="M401.09 239.79l2.475-2.475 28.284 28.284-2.475 2.475z"/></clipPath><clipPath id="clip_frame5_pencil_tip"><path d="M401.09 239.79l2.475-2.475 28.284 28.284-2.475 2.475z"/></clipPath><clipPath id="clip_frame5_stick"><path d="M380.9 546h40v4.8h-40z"/></clipPath></defs><path d="M613.6 577.6c-51.1 56.2-125.2 91.6-207.7 91.6-154 0-278.9-123.3-278.9-275.3s124.9-275.3 278.9-275.3c86.2 0 163.3 38.6 214.5 99.3" fill="none" stroke="#ff324a" stroke-width="80" stroke-dasharray="616.5498458131232,731.8317832213562" stroke-dashoffset="616.549846"/><path clip-path="url(#clip_frame5_ruler)" d="M505.2 401.6l8.5-8.5-2.8-2.8-8.5 8.5-28.3-28.3 8.5-8.5-2.9-2.8-8.4 8.5-28.3-28.3 8.5-8.5-2.9-2.8-8.5 8.5-28.2-28.3 28.2-28.3 121.7 121.6-28.3 28.3z" fill="#6f6f6f"/><g fill="#6f6f6f"><path clip-path="url(#clip_frame5_pencil_butt)" d="M386.675 254.138l14.142-14.142 28.284 28.285-14.142 14.142z"/><path clip-path="url(#clip_frame5_pencil)" d="M270.709 370.128L381.018 259.82l28.284 28.284-110.308 110.308z"/><path clip-path="url(#clip_frame5_pencil_tip)" d="M258 411.1l7.1-35.3 28.3 28.2z"/></g><path clip-path="url(#clip_frame5_stick)" d="M400.9 366c11 0 20 9 20 20v140c0 11-9 20-20 20s-20-9-20-20V386c0-11 8.9-20 20-20z" fill="#6f6f6f"/></g><g transform="translate(4800)"><defs><clipPath id="clip_frame6_ruler"><path d="M436.299 276.116l3.677 3.677-28.284 28.284-3.677-3.677z"/></clipPath><clipPath id="clip_frame6_pencil_butt"><path d="M401.09 239.79l2.475-2.475 28.284 28.284-2.475 2.475z"/></clipPath><clipPath id="clip_frame6_pencil"><path d="M401.09 239.79l2.475-2.475 28.284 28.284-2.475 2.475z"/></clipPath><clipPath id="clip_frame6_pencil_tip"><path d="M401.09 239.79l2.475-2.475 28.284 28.284-2.475 2.475z"/></clipPath><clipPath id="clip_frame6_stick"><path d="M380.9 546h40v4.8h-40z"/></clipPath></defs><path d="M613.6 577.6c-51.1 56.2-125.2 91.6-207.7 91.6-154 0-278.9-123.3-278.9-275.3s124.9-275.3 278.9-275.3c86.2 0 163.3 38.6 214.5 99.3" fill="none" stroke="#ff324a" stroke-width="80" stroke-dasharray="827.3598838651817,521.0217451692977" stroke-dashoffset="827.359884"/><path clip-path="url(#clip_frame6_ruler)" d="M505.2 401.6l8.5-8.5-2.8-2.8-8.5 8.5-28.3-28.3 8.5-8.5-2.9-2.8-8.4 8.5-28.3-28.3 8.5-8.5-2.9-2.8-8.5 8.5-28.2-28.3 28.2-28.3 121.7 121.6-28.3 28.3z" fill="#6f6f6f"/><g fill="#6f6f6f"><path clip-path="url(#clip_frame6_pencil_butt)" d="M386.675 254.138l14.142-14.142 28.284 28.285-14.142 14.142z"/><path clip-path="url(#clip_frame6_pencil)" d="M270.709 370.128L381.018 259.82l28.284 28.284-110.308 110.308z"/><path clip-path="url(#clip_frame6_pencil_tip)" d="M258 411.1l7.1-35.3 28.3 28.2z"/></g><path clip-path="url(#clip_frame6_stick)" d="M400.9 366c11 0 20 9 20 20v140c0 11-9 20-20 20s-20-9-20-20V386c0-11 8.9-20 20-20z" fill="#6f6f6f"/></g><g transform="translate(5600)"><defs><clipPath id="clip_frame7_ruler"><path d="M436.299 276.116l3.677 3.677-28.284 28.284-3.677-3.677z"/></clipPath><clipPath id="clip_frame7_pencil_butt"><path d="M401.09 239.79l2.475-2.475 28.284 28.284-2.475 2.475z"/></clipPath><clipPath id="clip_frame7_pencil"><path d="M401.09 239.79l2.475-2.475 28.284 28.284-2.475 2.475z"/></clipPath><clipPath id="clip_frame7_pencil_tip"><path d="M401.09 239.79l2.475-2.475 28.284 28.284-2.475 2.475z"/></clipPath><clipPath id="clip_frame7_stick"><path d="M380.9 544.085h40v6.715h-40z"/></clipPath></defs><path d="M613.6 577.6c-51.1 56.2-125.2 91.6-207.7 91.6-154 0-278.9-123.3-278.9-275.3s124.9-275.3 278.9-275.3c86.2 0 163.3 38.6 214.5 99.3" fill="none" stroke="#ff324a" stroke-width="80" stroke-dasharray="984.2746224175604,364.10700661691897" stroke-dashoffset="984.274622"/><path clip-path="url(#clip_frame7_ruler)" d="M505.2 401.6l8.5-8.5-2.8-2.8-8.5 8.5-28.3-28.3 8.5-8.5-2.9-2.8-8.4 8.5-28.3-28.3 8.5-8.5-2.9-2.8-8.5 8.5-28.2-28.3 28.2-28.3 121.7 121.6-28.3 28.3z" fill="#6f6f6f"/><g fill="#6f6f6f"><path clip-path="url(#clip_frame7_pencil_butt)" d="M386.675 254.138l14.142-14.142 28.284 28.285-14.142 14.142z"/><path clip-path="url(#clip_frame7_pencil)" d="M270.709 370.128L381.018 259.82l28.284 28.284-110.308 110.308z"/><path clip-path="url(#clip_frame7_pencil_tip)" d="M258 411.1l7.1-35.3 28.3 28.2z"/></g><path clip-path="url(#clip_frame7_stick)" d="M400.9 366c11 0 20 9 20 20v140c0 11-9 20-20 20s-20-9-20-20V386c0-11 8.9-20 20-20z" fill="#6f6f6f"/></g><g transform="translate(6400)"><defs><clipPath id="clip_frame8_ruler"><path d="M436.299 276.116l3.677 3.677-28.284 28.284-3.677-3.677z"/></clipPath><clipPath id="clip_frame8_pencil_butt"><path d="M401.09 239.79l2.475-2.475 28.284 28.284-2.475 2.475z"/></clipPath><clipPath id="clip_frame8_pencil"><path d="M401.09 239.79l2.475-2.475 28.284 28.284-2.475 2.475z"/></clipPath><clipPath id="clip_frame8_pencil_tip"><path d="M401.09 239.79l2.475-2.475 28.284 28.284-2.475 2.475z"/></clipPath><clipPath id="clip_frame8_stick"><path d="M380.9 537.012h40V550.8h-40z"/></clipPath></defs><path d="M613.6 577.6c-51.1 56.2-125.2 91.6-207.7 91.6-154 0-278.9-123.3-278.9-275.3s124.9-275.3 278.9-275.3c86.2 0 163.3 38.6 214.5 99.3" fill="none" stroke="#ff324a" stroke-width="80" stroke-dasharray="1098.165087585447,250.21654144903238" stroke-dashoffset="1098.165088"/><path clip-path="url(#clip_frame8_ruler)" d="M505.2 401.6l8.5-8.5-2.8-2.8-8.5 8.5-28.3-28.3 8.5-8.5-2.9-2.8-8.4 8.5-28.3-28.3 8.5-8.5-2.9-2.8-8.5 8.5-28.2-28.3 28.2-28.3 121.7 121.6-28.3 28.3z" fill="#6f6f6f"/><g fill="#6f6f6f"><path clip-path="url(#clip_frame8_pencil_butt)" d="M386.675 254.138l14.142-14.142 28.284 28.285-14.142 14.142z"/><path clip-path="url(#clip_frame8_pencil)" d="M270.709 370.128L381.018 259.82l28.284 28.284-110.308 110.308z"/><path clip-path="url(#clip_frame8_pencil_tip)" d="M258 411.1l7.1-35.3 28.3 28.2z"/></g><path clip-path="url(#clip_frame8_stick)" d="M400.9 366c11 0 20 9 20 20v140c0 11-9 20-20 20s-20-9-20-20V386c0-11 8.9-20 20-20z" fill="#6f6f6f"/></g><g transform="translate(7200)"><defs><clipPath id="clip_frame9_ruler"><path d="M436.299 276.116l3.677 3.677-28.284 28.284-3.677-3.677z"/></clipPath><clipPath id="clip_frame9_pencil_butt"><path d="M401.09 239.79l2.475-2.475 28.284 28.284-2.475 2.475z"/></clipPath><clipPath id="clip_frame9_pencil"><path d="M401.09 239.79l2.475-2.475 28.284 28.284-2.475 2.475z"/></clipPath><clipPath id="clip_frame9_pencil_tip"><path d="M401.09 239.79l2.475-2.475 28.284 28.284-2.475 2.475z"/></clipPath><clipPath id="clip_frame9_stick"><path d="M380.9 521.89h40v28.91h-40z"/></clipPath></defs><path d="M613.6 577.6c-51.1 56.2-125.2 91.6-207.7 91.6-154 0-278.9-123.3-278.9-275.3s124.9-275.3 278.9-275.3c86.2 0 163.3 38.6 214.5 99.3" fill="none" stroke="#ff324a" stroke-width="80" stroke-dasharray="1181.1390367299075,167.24259230457182" stroke-dashoffset="1181.139037"/><path clip-path="url(#clip_frame9_ruler)" d="M505.2 401.6l8.5-8.5-2.8-2.8-8.5 8.5-28.3-28.3 8.5-8.5-2.9-2.8-8.4 8.5-28.3-28.3 8.5-8.5-2.9-2.8-8.5 8.5-28.2-28.3 28.2-28.3 121.7 121.6-28.3 28.3z" fill="#6f6f6f"/><g fill="#6f6f6f"><path clip-path="url(#clip_frame9_pencil_butt)" d="M386.675 254.138l14.142-14.142 28.284 28.285-14.142 14.142z"/><path clip-path="url(#clip_frame9_pencil)" d="M270.709 370.128L381.018 259.82l28.284 28.284-110.308 110.308z"/><path clip-path="url(#clip_frame9_pencil_tip)" d="M258 411.1l7.1-35.3 28.3 28.2z"/></g><path clip-path="url(#clip_frame9_stick)" d="M400.9 366c11 0 20 9 20 20v140c0 11-9 20-20 20s-20-9-20-20V386c0-11 8.9-20 20-20z" fill="#6f6f6f"/></g><g transform="translate(8000)"><defs><clipPath id="clip_frame10_ruler"><path d="M436.299 276.116l3.677 3.677-28.284 28.284-3.677-3.677z"/></clipPath><clipPath id="clip_frame10_pencil_butt"><path d="M401.09 239.79l2.475-2.475 28.284 28.284-2.475 2.475z"/></clipPath><clipPath id="clip_frame10_pencil"><path d="M401.09 239.79l2.475-2.475 28.284 28.284-2.475 2.475z"/></clipPath><clipPath id="clip_frame10_pencil_tip"><path d="M401.09 239.79l2.475-2.475 28.284 28.284-2.475 2.475z"/></clipPath><clipPath id="clip_frame10_stick"><path d="M380.9 495.95h40v54.85h-40z"/></clipPath></defs><path d="M613.6 577.6c-51.1 56.2-125.2 91.6-207.7 91.6-154 0-278.9-123.3-278.9-275.3s124.9-275.3 278.9-275.3c86.2 0 163.3 38.6 214.5 99.3" fill="none" stroke="#ff324a" stroke-width="80" stroke-dasharray="1241.557150835968,106.8244781985114" stroke-dashoffset="1241.557151"/><path clip-path="url(#clip_frame10_ruler)" d="M505.2 401.6l8.5-8.5-2.8-2.8-8.5 8.5-28.3-28.3 8.5-8.5-2.9-2.8-8.4 8.5-28.3-28.3 8.5-8.5-2.9-2.8-8.5 8.5-28.2-28.3 28.2-28.3 121.7 121.6-28.3 28.3z" fill="#6f6f6f"/><g fill="#6f6f6f"><path clip-path="url(#clip_frame10_pencil_butt)" d="M386.675 254.138l14.142-14.142 28.284 28.285-14.142 14.142z"/><path clip-path="url(#clip_frame10_pencil)" d="M270.709 370.128L381.018 259.82l28.284 28.284-110.308 110.308z"/><path clip-path="url(#clip_frame10_pencil_tip)" d="M258 411.1l7.1-35.3 28.3 28.2z"/></g><path clip-path="url(#clip_frame10_stick)" d="M400.9 366c11 0 20 9 20 20v140c0 11-9 20-20 20s-20-9-20-20V386c0-11 8.9-20 20-20z" fill="#6f6f6f"/></g><g transform="translate(8800)"><defs><clipPath id="clip_frame11_ruler"><path d="M436.299 276.116l3.853 3.854-28.284 28.284-3.853-3.854z"/></clipPath><clipPath id="clip_frame11_pencil_butt"><path d="M400.864 240.016l2.701-2.701 28.284 28.284-2.701 2.701z"/></clipPath><clipPath id="clip_frame11_pencil"><path d="M400.864 240.016l2.701-2.701 28.284 28.284-2.701 2.701z"/></clipPath><clipPath id="clip_frame11_pencil_tip"><path d="M400.864 240.016l2.701-2.701 28.284 28.284-2.701 2.701z"/></clipPath><clipPath id="clip_frame11_stick"><path d="M380.9 463.695h40V550.8h-40z"/></clipPath></defs><path d="M613.6 577.6c-51.1 56.2-125.2 91.6-207.7 91.6-154 0-278.9-123.3-278.9-275.3s124.9-275.3 278.9-275.3c86.2 0 163.3 38.6 214.5 99.3" fill="none" stroke="#ff324a" stroke-width="80" stroke-dasharray="1284.9425172587712,63.43911177570807" stroke-dashoffset="1284.942517"/><path clip-path="url(#clip_frame11_ruler)" d="M505.2 401.6l8.5-8.5-2.8-2.8-8.5 8.5-28.3-28.3 8.5-8.5-2.9-2.8-8.4 8.5-28.3-28.3 8.5-8.5-2.9-2.8-8.5 8.5-28.2-28.3 28.2-28.3 121.7 121.6-28.3 28.3z" fill="#6f6f6f"/><g fill="#6f6f6f"><path clip-path="url(#clip_frame11_pencil_butt)" d="M386.675 254.138l14.142-14.142 28.284 28.285-14.142 14.142z"/><path clip-path="url(#clip_frame11_pencil)" d="M270.709 370.128L381.018 259.82l28.284 28.284-110.308 110.308z"/><path clip-path="url(#clip_frame11_pencil_tip)" d="M258 411.1l7.1-35.3 28.3 28.2z"/></g><path clip-path="url(#clip_frame11_stick)" d="M400.9 366c11 0 20 9 20 20v140c0 11-9 20-20 20s-20-9-20-20V386c0-11 8.9-20 20-20z" fill="#6f6f6f"/></g><g transform="translate(9600)"><defs><clipPath id="clip_frame12_ruler"><path d="M436.297 276.115l5.453 5.454-28.284 28.284-5.453-5.454z"/></clipPath><clipPath id="clip_frame12_pencil_butt"><path d="M398.815 242.064l4.75-4.75 28.284 28.284-4.75 4.75z"/></clipPath><clipPath id="clip_frame12_pencil"><path d="M398.815 242.064l4.75-4.75 28.284 28.284-4.75 4.75z"/></clipPath><clipPath id="clip_frame12_pencil_tip"><path d="M398.815 242.064l4.75-4.75 28.284 28.284-4.75 4.75z"/></clipPath><clipPath id="clip_frame12_stick"><path d="M380.9 435.553h40V550.8h-40z"/></clipPath></defs><path d="M613.6 577.6c-51.1 56.2-125.2 91.6-207.7 91.6-154 0-278.9-123.3-278.9-275.3s124.9-275.3 278.9-275.3c86.2 0 163.3 38.6 214.5 99.3" fill="none" stroke="#ff324a" stroke-width="80" stroke-dasharray="1315.0328040797983,33.34882495468113" stroke-dashoffset="1315.032804"/><path clip-path="url(#clip_frame12_ruler)" d="M505.2 401.6l8.5-8.5-2.8-2.8-8.5 8.5-28.3-28.3 8.5-8.5-2.9-2.8-8.4 8.5-28.3-28.3 8.5-8.5-2.9-2.8-8.5 8.5-28.2-28.3 28.2-28.3 121.7 121.6-28.3 28.3z" fill="#6f6f6f"/><g fill="#6f6f6f"><path clip-path="url(#clip_frame12_pencil_butt)" d="M386.675 254.138l14.142-14.142 28.284 28.285-14.142 14.142z"/><path clip-path="url(#clip_frame12_pencil)" d="M270.709 370.128L381.018 259.82l28.284 28.284-110.308 110.308z"/><path clip-path="url(#clip_frame12_pencil_tip)" d="M258 411.1l7.1-35.3 28.3 28.2z"/></g><path clip-path="url(#clip_frame12_stick)" d="M400.9 366c11 0 20 9 20 20v140c0 11-9 20-20 20s-20-9-20-20V386c0-11 8.9-20 20-20z" fill="#6f6f6f"/></g><g transform="translate(10400)"><defs><clipPath id="clip_frame13_ruler"><path d="M436.291 276.112l9.261 9.261-28.284 28.284-9.261-9.261z"/></clipPath><clipPath id="clip_frame13_pencil_butt"><path d="M393.94 246.938l9.625-9.625 28.284 28.284-9.625 9.625z"/></clipPath><clipPath id="clip_frame13_pencil"><path d="M393.94 246.938l9.625-9.625 28.284 28.284-9.625 9.625z"/></clipPath><clipPath id="clip_frame13_pencil_tip"><path d="M393.94 246.938l9.625-9.625 28.284 28.284-9.625 9.625z"/></clipPath><clipPath id="clip_frame13_stick"><path d="M380.9 414.606h40V550.8h-40z"/></clipPath></defs><path d="M613.6 577.6c-51.1 56.2-125.2 91.6-207.7 91.6-154 0-278.9-123.3-278.9-275.3s124.9-275.3 278.9-275.3c86.2 0 163.3 38.6 214.5 99.3" fill="none" stroke="#ff324a" stroke-width="80" stroke-dasharray="1334.4486434851558,13.93298554932367" stroke-dashoffset="1334.448643"/><path clip-path="url(#clip_frame13_ruler)" d="M505.2 401.6l8.5-8.5-2.8-2.8-8.5 8.5-28.3-28.3 8.5-8.5-2.9-2.8-8.4 8.5-28.3-28.3 8.5-8.5-2.9-2.8-8.5 8.5-28.2-28.3 28.2-28.3 121.7 121.6-28.3 28.3z" fill="#6f6f6f"/><g fill="#6f6f6f"><path clip-path="url(#clip_frame13_pencil_butt)" d="M386.675 254.138l14.142-14.142 28.284 28.285-14.142 14.142z"/><path clip-path="url(#clip_frame13_pencil)" d="M270.709 370.128L381.018 259.82l28.284 28.284-110.308 110.308z"/><path clip-path="url(#clip_frame13_pencil_tip)" d="M258 411.1l7.1-35.3 28.3 28.2z"/></g><path clip-path="url(#clip_frame13_stick)" d="M400.9 366c11 0 20 9 20 20v140c0 11-9 20-20 20s-20-9-20-20V386c0-11 8.9-20 20-20z" fill="#6f6f6f"/></g><g transform="translate(11200)"><defs><clipPath id="clip_frame14_ruler"><path d="M436.281 276.108l16.193 16.193-28.284 28.284-16.193-16.193z"/></clipPath><clipPath id="clip_frame14_pencil_butt"><path d="M385.064 255.812l18.501-18.501 28.284 28.284-18.5 18.501z"/></clipPath><clipPath id="clip_frame14_pencil"><path d="M385.064 255.812l18.501-18.501 28.284 28.284-18.5 18.501z"/></clipPath><clipPath id="clip_frame14_pencil_tip"><path d="M385.064 255.812l18.501-18.501 28.284 28.284-18.5 18.501z"/></clipPath><clipPath id="clip_frame14_stick"><path d="M380.9 399.402h40V550.8h-40z"/></clipPath></defs><path d="M613.6 577.6c-51.1 56.2-125.2 91.6-207.7 91.6-154 0-278.9-123.3-278.9-275.3s124.9-275.3 278.9-275.3c86.2 0 163.3 38.6 214.5 99.3" fill="none" stroke="#ff324a" stroke-width="80" stroke-dasharray="1345.091171976369,3.2904570581104498" stroke-dashoffset="1345.091172"/><path clip-path="url(#clip_frame14_ruler)" d="M505.2 401.6l8.5-8.5-2.8-2.8-8.5 8.5-28.3-28.3 8.5-8.5-2.9-2.8-8.4 8.5-28.3-28.3 8.5-8.5-2.9-2.8-8.5 8.5-28.2-28.3 28.2-28.3 121.7 121.6-28.3 28.3z" fill="#6f6f6f"/><g fill="#6f6f6f"><path clip-path="url(#clip_frame14_pencil_butt)" d="M386.675 254.138l14.142-14.142 28.284 28.285-14.142 14.142z"/><path clip-path="url(#clip_frame14_pencil)" d="M270.709 370.128L381.018 259.82l28.284 28.284-110.308 110.308z"/><path clip-path="url(#clip_frame14_pencil_tip)" d="M258 411.1l7.1-35.3 28.3 28.2z"/></g><path clip-path="url(#clip_frame14_stick)" d="M400.9 366c11 0 20 9 20 20v140c0 11-9 20-20 20s-20-9-20-20V386c0-11 8.9-20 20-20z" fill="#6f6f6f"/></g><g transform="translate(12000)"><defs><clipPath id="clip_frame15_ruler"><path d="M436.266 276.101l27.319 27.319-28.284 28.284-27.319-27.319z"/></clipPath><clipPath id="clip_frame15_pencil_butt"><path d="M370.818 270.054l32.748-32.747 28.284 28.284-32.747 32.748z"/></clipPath><clipPath id="clip_frame15_pencil"><path d="M370.818 270.054l32.748-32.747 28.284 28.284-32.747 32.748z"/></clipPath><clipPath id="clip_frame15_pencil_tip"><path d="M370.818 270.054l32.748-32.747 28.284 28.284-32.747 32.748z"/></clipPath><clipPath id="clip_frame15_stick"><path d="M380.9 388.326h40V550.8h-40z"/></clipPath></defs><path d="M613.6 577.6c-51.1 56.2-125.2 91.6-207.7 91.6-154 0-278.9-123.3-278.9-275.3s124.9-275.3 278.9-275.3c86.2 0 163.3 38.6 214.5 99.3" fill="none" stroke="#ff324a" stroke-width="80"/><path clip-path="url(#clip_frame15_ruler)" d="M505.2 401.6l8.5-8.5-2.8-2.8-8.5 8.5-28.3-28.3 8.5-8.5-2.9-2.8-8.4 8.5-28.3-28.3 8.5-8.5-2.9-2.8-8.5 8.5-28.2-28.3 28.2-28.3 121.7 121.6-28.3 28.3z" fill="#6f6f6f"/><g fill="#6f6f6f"><path clip-path="url(#clip_frame15_pencil_butt)" d="M386.675 254.138l14.142-14.142 28.284 28.285-14.142 14.142z"/><path clip-path="url(#clip_frame15_pencil)" d="M270.709 370.128L381.018 259.82l28.284 28.284-110.308 110.308z"/><path clip-path="url(#clip_frame15_pencil_tip)" d="M258 411.1l7.1-35.3 28.3 28.2z"/></g><path clip-path="url(#clip_frame15_stick)" d="M400.9 366c11 0 20 9 20 20v140c0 11-9 20-20 20s-20-9-20-20V386c0-11 8.9-20 20-20z" fill="#6f6f6f"/></g><g transform="translate(12800)"><defs><clipPath id="clip_frame16_ruler"><path d="M436.244 276.091l42.713 42.713-28.284 28.284-42.713-42.713z"/></clipPath><clipPath id="clip_frame16_pencil_butt"><path d="M351.108 289.761l52.458-52.459 28.284 28.285-52.458 52.458z"/></clipPath><clipPath id="clip_frame16_pencil"><path d="M351.108 289.761l52.458-52.459 28.284 28.285-52.458 52.458z"/></clipPath><clipPath id="clip_frame16_pencil_tip"><path d="M351.108 289.761l52.458-52.459 28.284 28.285-52.458 52.458z"/></clipPath><clipPath id="clip_frame16_stick"><path d="M380.9 380.26h40V550.8h-40z"/></clipPath></defs><path d="M613.6 577.6c-51.1 56.2-125.2 91.6-207.7 91.6-154 0-278.9-123.3-278.9-275.3s124.9-275.3 278.9-275.3c86.2 0 163.3 38.6 214.5 99.3" fill="none" stroke="#ff324a" stroke-width="80"/><path clip-path="url(#clip_frame16_ruler)" d="M505.2 401.6l8.5-8.5-2.8-2.8-8.5 8.5-28.3-28.3 8.5-8.5-2.9-2.8-8.4 8.5-28.3-28.3 8.5-8.5-2.9-2.8-8.5 8.5-28.2-28.3 28.2-28.3 121.7 121.6-28.3 28.3z" fill="#6f6f6f"/><g fill="#6f6f6f"><path clip-path="url(#clip_frame16_pencil_butt)" d="M386.675 254.138l14.142-14.142 28.284 28.285-14.142 14.142z"/><path clip-path="url(#clip_frame16_pencil)" d="M270.709 370.128L381.018 259.82l28.284 28.284-110.308 110.308z"/><path clip-path="url(#clip_frame16_pencil_tip)" d="M258 411.1l7.1-35.3 28.3 28.2z"/></g><path clip-path="url(#clip_frame16_stick)" d="M400.9 366c11 0 20 9 20 20v140c0 11-9 20-20 20s-20-9-20-20V386c0-11 8.9-20 20-20z" fill="#6f6f6f"/></g><g transform="translate(13600)"><defs><clipPath id="clip_frame17_ruler"><path d="M436.22 276.079l59.709 59.71-28.284 28.284-59.709-59.709z"/></clipPath><clipPath id="clip_frame17_pencil_butt"><path d="M329.345 311.518l74.221-74.221 28.284 28.284-74.22 74.221z"/></clipPath><clipPath id="clip_frame17_pencil"><path d="M329.345 311.518l74.221-74.221 28.284 28.284-74.22 74.221z"/></clipPath><clipPath id="clip_frame17_pencil_tip"><path d="M329.345 311.518l74.221-74.221 28.284 28.284-74.22 74.221z"/></clipPath><clipPath id="clip_frame17_stick"><path d="M380.9 374.469h40V550.8h-40z"/></clipPath></defs><path d="M613.6 577.6c-51.1 56.2-125.2 91.6-207.7 91.6-154 0-278.9-123.3-278.9-275.3s124.9-275.3 278.9-275.3c86.2 0 163.3 38.6 214.5 99.3" fill="none" stroke="#ff324a" stroke-width="80"/><path clip-path="url(#clip_frame17_ruler)" d="M505.2 401.6l8.5-8.5-2.8-2.8-8.5 8.5-28.3-28.3 8.5-8.5-2.9-2.8-8.4 8.5-28.3-28.3 8.5-8.5-2.9-2.8-8.5 8.5-28.2-28.3 28.2-28.3 121.7 121.6-28.3 28.3z" fill="#6f6f6f"/><g fill="#6f6f6f"><path clip-path="url(#clip_frame17_pencil_butt)" d="M386.675 254.138l14.142-14.142 28.284 28.285-14.142 14.142z"/><path clip-path="url(#clip_frame17_pencil)" d="M270.709 370.128L381.018 259.82l28.284 28.284-110.308 110.308z"/><path clip-path="url(#clip_frame17_pencil_tip)" d="M258 411.1l7.1-35.3 28.3 28.2z"/></g><path clip-path="url(#clip_frame17_stick)" d="M400.9 366c11 0 20 9 20 20v140c0 11-9 20-20 20s-20-9-20-20V386c0-11 8.9-20 20-20z" fill="#6f6f6f"/></g><g transform="translate(14400)"><defs><clipPath id="clip_frame18_ruler"><path d="M436.199 276.07l74.892 74.892-28.284 28.284-74.892-74.892z"/></clipPath><clipPath id="clip_frame18_pencil_butt"><path d="M309.905 330.954l93.662-93.662 28.284 28.284-93.661 93.662z"/></clipPath><clipPath id="clip_frame18_pencil"><path d="M309.905 330.954l93.662-93.662 28.284 28.284-93.661 93.662z"/></clipPath><clipPath id="clip_frame18_pencil_tip"><path d="M309.905 330.954l93.662-93.662 28.284 28.284-93.661 93.662z"/></clipPath><clipPath id="clip_frame18_stick"><path d="M380.9 370.452h40V550.8h-40z"/></clipPath></defs><path d="M613.6 577.6c-51.1 56.2-125.2 91.6-207.7 91.6-154 0-278.9-123.3-278.9-275.3s124.9-275.3 278.9-275.3c86.2 0 163.3 38.6 214.5 99.3" fill="none" stroke="#ff324a" stroke-width="80"/><path clip-path="url(#clip_frame18_ruler)" d="M505.2 401.6l8.5-8.5-2.8-2.8-8.5 8.5-28.3-28.3 8.5-8.5-2.9-2.8-8.4 8.5-28.3-28.3 8.5-8.5-2.9-2.8-8.5 8.5-28.2-28.3 28.2-28.3 121.7 121.6-28.3 28.3z" fill="#6f6f6f"/><g fill="#6f6f6f"><path clip-path="url(#clip_frame18_pencil_butt)" d="M386.675 254.138l14.142-14.142 28.284 28.285-14.142 14.142z"/><path clip-path="url(#clip_frame18_pencil)" d="M270.709 370.128L381.018 259.82l28.284 28.284-110.308 110.308z"/><path clip-path="url(#clip_frame18_pencil_tip)" d="M258 411.1l7.1-35.3 28.3 28.2z"/></g><path clip-path="url(#clip_frame18_stick)" d="M400.9 366c11 0 20 9 20 20v140c0 11-9 20-20 20s-20-9-20-20V386c0-11 8.9-20 20-20z" fill="#6f6f6f"/></g><g transform="translate(15200)"><defs><clipPath id="clip_frame19_ruler"><path d="M436.182 276.062l87.109 87.109-28.284 28.284-87.109-87.109z"/></clipPath><clipPath id="clip_frame19_pencil_butt"><path d="M294.262 346.593l109.305-109.305 28.284 28.284-109.305 109.306z"/></clipPath><clipPath id="clip_frame19_pencil"><path d="M294.262 346.593l109.305-109.305 28.284 28.284-109.305 109.306z"/></clipPath><clipPath id="clip_frame19_pencil_tip"><path d="M294.262 346.593l109.305-109.305 28.284 28.284-109.305 109.306z"/></clipPath><clipPath id="clip_frame19_stick"><path d="M380.9 367.86h40V550.8h-40z"/></clipPath></defs><path d="M613.6 577.6c-51.1 56.2-125.2 91.6-207.7 91.6-154 0-278.9-123.3-278.9-275.3s124.9-275.3 278.9-275.3c86.2 0 163.3 38.6 214.5 99.3" fill="none" stroke="#ff324a" stroke-width="80"/><path clip-path="url(#clip_frame19_ruler)" d="M505.2 401.6l8.5-8.5-2.8-2.8-8.5 8.5-28.3-28.3 8.5-8.5-2.9-2.8-8.4 8.5-28.3-28.3 8.5-8.5-2.9-2.8-8.5 8.5-28.2-28.3 28.2-28.3 121.7 121.6-28.3 28.3z" fill="#6f6f6f"/><g fill="#6f6f6f"><path clip-path="url(#clip_frame19_pencil_butt)" d="M386.675 254.138l14.142-14.142 28.284 28.285-14.142 14.142z"/><path clip-path="url(#clip_frame19_pencil)" d="M270.709 370.128L381.018 259.82l28.284 28.284-110.308 110.308z"/><path clip-path="url(#clip_frame19_pencil_tip)" d="M258 411.1l7.1-35.3 28.3 28.2z"/></g><path clip-path="url(#clip_frame19_stick)" d="M400.9 366c11 0 20 9 20 20v140c0 11-9 20-20 20s-20-9-20-20V386c0-11 8.9-20 20-20z" fill="#6f6f6f"/></g><g transform="translate(16000)"><defs><clipPath id="clip_frame20_ruler"><path d="M436.168 276.055l96.672 96.672-28.284 28.284-96.672-96.671z"/></clipPath><clipPath id="clip_frame20_pencil_butt"><path d="M282.018 358.834l121.549-121.549 28.284 28.284-121.548 121.55z"/></clipPath><clipPath id="clip_frame20_pencil"><path d="M282.018 358.834l121.549-121.549 28.284 28.284-121.548 121.55z"/></clipPath><clipPath id="clip_frame20_pencil_tip"><path d="M282.018 358.834l121.549-121.549 28.284 28.284-121.548 121.55z"/></clipPath><clipPath id="clip_frame20_stick"><path d="M380.9 366.439h40V550.8h-40z"/></clipPath></defs><path d="M613.6 577.6c-51.1 56.2-125.2 91.6-207.7 91.6-154 0-278.9-123.3-278.9-275.3s124.9-275.3 278.9-275.3c86.2 0 163.3 38.6 214.5 99.3" fill="none" stroke="#ff324a" stroke-width="80"/><path clip-path="url(#clip_frame20_ruler)" d="M505.2 401.6l8.5-8.5-2.8-2.8-8.5 8.5-28.3-28.3 8.5-8.5-2.9-2.8-8.4 8.5-28.3-28.3 8.5-8.5-2.9-2.8-8.5 8.5-28.2-28.3 28.2-28.3 121.7 121.6-28.3 28.3z" fill="#6f6f6f"/><g fill="#6f6f6f"><path clip-path="url(#clip_frame20_pencil_butt)" d="M386.675 254.138l14.142-14.142 28.284 28.285-14.142 14.142z"/><path clip-path="url(#clip_frame20_pencil)" d="M270.709 370.128L381.018 259.82l28.284 28.284-110.308 110.308z"/><path clip-path="url(#clip_frame20_pencil_tip)" d="M258 411.1l7.1-35.3 28.3 28.2z"/></g><path clip-path="url(#clip_frame20_stick)" d="M400.9 366c11 0 20 9 20 20v140c0 11-9 20-20 20s-20-9-20-20V386c0-11 8.9-20 20-20z" fill="#6f6f6f"/></g><g transform="translate(16800)"><defs><clipPath id="clip_frame21_ruler"><path d="M436.158 276.05l104.146 104.148-28.284 28.284-104.146-104.147z"/></clipPath><clipPath id="clip_frame21_pencil_butt"><path d="M272.447 368.403l131.12-131.121 28.284 28.285-131.119 131.121z"/></clipPath><clipPath id="clip_frame21_pencil"><path d="M272.447 368.403l131.12-131.121 28.284 28.285-131.119 131.121z"/></clipPath><clipPath id="clip_frame21_pencil_tip"><path d="M272.447 368.403l131.12-131.121 28.284 28.285-131.119 131.121z"/></clipPath><clipPath id="clip_frame21_stick"><path d="M380.9 366h40v184.8h-40z"/></clipPath></defs><path d="M613.6 577.6c-51.1 56.2-125.2 91.6-207.7 91.6-154 0-278.9-123.3-278.9-275.3s124.9-275.3 278.9-275.3c86.2 0 163.3 38.6 214.5 99.3" fill="none" stroke="#ff324a" stroke-width="80"/><path clip-path="url(#clip_frame21_ruler)" d="M505.2 401.6l8.5-8.5-2.8-2.8-8.5 8.5-28.3-28.3 8.5-8.5-2.9-2.8-8.4 8.5-28.3-28.3 8.5-8.5-2.9-2.8-8.5 8.5-28.2-28.3 28.2-28.3 121.7 121.6-28.3 28.3z" fill="#6f6f6f"/><g fill="#6f6f6f"><path clip-path="url(#clip_frame21_pencil_butt)" d="M386.675 254.138l14.142-14.142 28.284 28.285-14.142 14.142z"/><path clip-path="url(#clip_frame21_pencil)" d="M270.709 370.128L381.018 259.82l28.284 28.284-110.308 110.308z"/><path clip-path="url(#clip_frame21_pencil_tip)" d="M258 411.1l7.1-35.3 28.3 28.2z"/></g><path clip-path="url(#clip_frame21_stick)" d="M400.9 366c11 0 20 9 20 20v140c0 11-9 20-20 20s-20-9-20-20V386c0-11 8.9-20 20-20z" fill="#6f6f6f"/></g><g transform="translate(17600)"><defs><clipPath id="clip_frame22_ruler"><path d="M436.15 276.047l110.008 110.008-28.284 28.284-110.008-110.008z"/></clipPath><clipPath id="clip_frame22_pencil_butt"><path d="M264.942 375.906L403.568 237.28l28.284 28.285-138.625 138.626z"/></clipPath><clipPath id="clip_frame22_pencil"><path d="M264.942 375.906L403.568 237.28l28.284 28.285-138.625 138.626z"/></clipPath><clipPath id="clip_frame22_pencil_tip"><path d="M264.942 375.906L403.568 237.28l28.284 28.285-138.625 138.626z"/></clipPath><clipPath id="clip_frame22_stick"><path d="M380.9 366h40v184.8h-40z"/></clipPath></defs><path d="M613.6 577.6c-51.1 56.2-125.2 91.6-207.7 91.6-154 0-278.9-123.3-278.9-275.3s124.9-275.3 278.9-275.3c86.2 0 163.3 38.6 214.5 99.3" fill="none" stroke="#ff324a" stroke-width="80"/><path clip-path="url(#clip_frame22_ruler)" d="M505.2 401.6l8.5-8.5-2.8-2.8-8.5 8.5-28.3-28.3 8.5-8.5-2.9-2.8-8.4 8.5-28.3-28.3 8.5-8.5-2.9-2.8-8.5 8.5-28.2-28.3 28.2-28.3 121.7 121.6-28.3 28.3z" fill="#6f6f6f"/><g fill="#6f6f6f"><path clip-path="url(#clip_frame22_pencil_butt)" d="M386.675 254.138l14.142-14.142 28.284 28.285-14.142 14.142z"/><path clip-path="url(#clip_frame22_pencil)" d="M270.709 370.128L381.018 259.82l28.284 28.284-110.308 110.308z"/><path clip-path="url(#clip_frame22_pencil_tip)" d="M258 411.1l7.1-35.3 28.3 28.2z"/></g><path clip-path="url(#clip_frame22_stick)" d="M400.9 366c11 0 20 9 20 20v140c0 11-9 20-20 20s-20-9-20-20V386c0-11 8.9-20 20-20z" fill="#6f6f6f"/></g><g transform="translate(18400)"><defs><clipPath id="clip_frame23_ruler"><path d="M436.143 276.044l114.604 114.605-28.284 28.284-114.604-114.605z"/></clipPath><clipPath id="clip_frame23_pencil_butt"><path d="M259.057 381.79l144.511-144.511 28.284 28.285-144.51 144.511z"/></clipPath><clipPath id="clip_frame23_pencil"><path d="M259.057 381.79l144.511-144.511 28.284 28.285-144.51 144.511z"/></clipPath><clipPath id="clip_frame23_pencil_tip"><path d="M259.057 381.79l144.511-144.511 28.284 28.285-144.51 144.511z"/></clipPath><clipPath id="clip_frame23_stick"><path d="M380.9 366h40v184.8h-40z"/></clipPath></defs><path d="M613.6 577.6c-51.1 56.2-125.2 91.6-207.7 91.6-154 0-278.9-123.3-278.9-275.3s124.9-275.3 278.9-275.3c86.2 0 163.3 38.6 214.5 99.3" fill="none" stroke="#ff324a" stroke-width="80"/><path clip-path="url(#clip_frame23_ruler)" d="M505.2 401.6l8.5-8.5-2.8-2.8-8.5 8.5-28.3-28.3 8.5-8.5-2.9-2.8-8.4 8.5-28.3-28.3 8.5-8.5-2.9-2.8-8.5 8.5-28.2-28.3 28.2-28.3 121.7 121.6-28.3 28.3z" fill="#6f6f6f"/><g fill="#6f6f6f"><path clip-path="url(#clip_frame23_pencil_butt)" d="M386.675 254.138l14.142-14.142 28.284 28.285-14.142 14.142z"/><path clip-path="url(#clip_frame23_pencil)" d="M270.709 370.128L381.018 259.82l28.284 28.284-110.308 110.308z"/><path clip-path="url(#clip_frame23_pencil_tip)" d="M258 411.1l7.1-35.3 28.3 28.2z"/></g><path clip-path="url(#clip_frame23_stick)" d="M400.9 366c11 0 20 9 20 20v140c0 11-9 20-20 20s-20-9-20-20V386c0-11 8.9-20 20-20z" fill="#6f6f6f"/></g><g transform="translate(19200)"><defs><clipPath id="clip_frame24_ruler"><path d="M436.138 276.041L554.326 394.23l-28.284 28.284-118.188-118.188z"/></clipPath><clipPath id="clip_frame24_pencil_butt"><path d="M254.468 386.378l149.1-149.1 28.284 28.285-149.099 149.1z"/></clipPath><clipPath id="clip_frame24_pencil"><path d="M254.468 386.378l149.1-149.1 28.284 28.285-149.099 149.1z"/></clipPath><clipPath id="clip_frame24_pencil_tip"><path d="M254.468 386.378l149.1-149.1 28.284 28.285-149.099 149.1z"/></clipPath><clipPath id="clip_frame24_stick"><path d="M380.9 366h40v184.8h-40z"/></clipPath></defs><path d="M613.6 577.6c-51.1 56.2-125.2 91.6-207.7 91.6-154 0-278.9-123.3-278.9-275.3s124.9-275.3 278.9-275.3c86.2 0 163.3 38.6 214.5 99.3" fill="none" stroke="#ff324a" stroke-width="80"/><path clip-path="url(#clip_frame24_ruler)" d="M505.2 401.6l8.5-8.5-2.8-2.8-8.5 8.5-28.3-28.3 8.5-8.5-2.9-2.8-8.4 8.5-28.3-28.3 8.5-8.5-2.9-2.8-8.5 8.5-28.2-28.3 28.2-28.3 121.7 121.6-28.3 28.3z" fill="#6f6f6f"/><g fill="#6f6f6f"><path clip-path="url(#clip_frame24_pencil_butt)" d="M386.675 254.138l14.142-14.142 28.284 28.285-14.142 14.142z"/><path clip-path="url(#clip_frame24_pencil)" d="M270.709 370.128L381.018 259.82l28.284 28.284-110.308 110.308z"/><path clip-path="url(#clip_frame24_pencil_tip)" d="M258 411.1l7.1-35.3 28.3 28.2z"/></g><path clip-path="url(#clip_frame24_stick)" d="M400.9 366c11 0 20 9 20 20v140c0 11-9 20-20 20s-20-9-20-20V386c0-11 8.9-20 20-20z" fill="#6f6f6f"/></g><g transform="translate(20000)"><defs><clipPath id="clip_frame25_ruler"><path d="M436.134 276.039l120.945 120.946-28.284 28.284L407.85 304.324z"/></clipPath><clipPath id="clip_frame25_pencil_butt"><path d="M250.938 389.907l152.63-152.63 28.284 28.285-152.63 152.63z"/></clipPath><clipPath id="clip_frame25_pencil"><path d="M250.938 389.907l152.63-152.63 28.284 28.285-152.63 152.63z"/></clipPath><clipPath id="clip_frame25_pencil_tip"><path d="M250.938 389.907l152.63-152.63 28.284 28.285-152.63 152.63z"/></clipPath><clipPath id="clip_frame25_stick"><path d="M380.9 366h40v184.8h-40z"/></clipPath></defs><path d="M613.6 577.6c-51.1 56.2-125.2 91.6-207.7 91.6-154 0-278.9-123.3-278.9-275.3s124.9-275.3 278.9-275.3c86.2 0 163.3 38.6 214.5 99.3" fill="none" stroke="#ff324a" stroke-width="80"/><path clip-path="url(#clip_frame25_ruler)" d="M505.2 401.6l8.5-8.5-2.8-2.8-8.5 8.5-28.3-28.3 8.5-8.5-2.9-2.8-8.4 8.5-28.3-28.3 8.5-8.5-2.9-2.8-8.5 8.5-28.2-28.3 28.2-28.3 121.7 121.6-28.3 28.3z" fill="#6f6f6f"/><g fill="#6f6f6f"><path clip-path="url(#clip_frame25_pencil_butt)" d="M386.675 254.138l14.142-14.142 28.284 28.285-14.142 14.142z"/><path clip-path="url(#clip_frame25_pencil)" d="M270.709 370.128L381.018 259.82l28.284 28.284-110.308 110.308z"/><path clip-path="url(#clip_frame25_pencil_tip)" d="M258 411.1l7.1-35.3 28.3 28.2z"/></g><path clip-path="url(#clip_frame25_stick)" d="M400.9 366c11 0 20 9 20 20v140c0 11-9 20-20 20s-20-9-20-20V386c0-11 8.9-20 20-20z" fill="#6f6f6f"/></g><g transform="translate(20800)"><defs><clipPath id="clip_frame26_ruler"><path d="M436.131 276.038l123.014 123.015-28.284 28.284-123.014-123.014z"/></clipPath><clipPath id="clip_frame26_pencil_butt"><path d="M248.289 392.555l155.279-155.279 28.284 28.285L276.574 420.84z"/></clipPath><clipPath id="clip_frame26_pencil"><path d="M248.289 392.555l155.279-155.279 28.284 28.285L276.574 420.84z"/></clipPath><clipPath id="clip_frame26_pencil_tip"><path d="M248.289 392.555l155.279-155.279 28.284 28.285L276.574 420.84z"/></clipPath><clipPath id="clip_frame26_stick"><path d="M380.9 366h40v184.8h-40z"/></clipPath></defs><path d="M613.6 577.6c-51.1 56.2-125.2 91.6-207.7 91.6-154 0-278.9-123.3-278.9-275.3s124.9-275.3 278.9-275.3c86.2 0 163.3 38.6 214.5 99.3" fill="none" stroke="#ff324a" stroke-width="80"/><path clip-path="url(#clip_frame26_ruler)" d="M505.2 401.6l8.5-8.5-2.8-2.8-8.5 8.5-28.3-28.3 8.5-8.5-2.9-2.8-8.4 8.5-28.3-28.3 8.5-8.5-2.9-2.8-8.5 8.5-28.2-28.3 28.2-28.3 121.7 121.6-28.3 28.3z" fill="#6f6f6f"/><g fill="#6f6f6f"><path clip-path="url(#clip_frame26_pencil_butt)" d="M386.675 254.138l14.142-14.142 28.284 28.285-14.142 14.142z"/><path clip-path="url(#clip_frame26_pencil)" d="M270.709 370.128L381.018 259.82l28.284 28.284-110.308 110.308z"/><path clip-path="url(#clip_frame26_pencil_tip)" d="M258 411.1l7.1-35.3 28.3 28.2z"/></g><path clip-path="url(#clip_frame26_stick)" d="M400.9 366c11 0 20 9 20 20v140c0 11-9 20-20 20s-20-9-20-20V386c0-11 8.9-20 20-20z" fill="#6f6f6f"/></g><g transform="translate(21600)"><defs><clipPath id="clip_frame27_ruler"><path d="M436.129 276.037L560.63 400.539l-28.284 28.284-124.501-124.501z"/></clipPath><clipPath id="clip_frame27_pencil_butt"><path d="M246.385 394.459l157.183-157.183 28.284 28.285L274.67 422.744z"/></clipPath><clipPath id="clip_frame27_pencil"><path d="M246.385 394.459l157.183-157.183 28.284 28.285L274.67 422.744z"/></clipPath><clipPath id="clip_frame27_pencil_tip"><path d="M246.385 394.459l157.183-157.183 28.284 28.285L274.67 422.744z"/></clipPath><clipPath id="clip_frame27_stick"><path d="M380.9 366h40v184.8h-40z"/></clipPath></defs><path d="M613.6 577.6c-51.1 56.2-125.2 91.6-207.7 91.6-154 0-278.9-123.3-278.9-275.3s124.9-275.3 278.9-275.3c86.2 0 163.3 38.6 214.5 99.3" fill="none" stroke="#ff324a" stroke-width="80"/><path clip-path="url(#clip_frame27_ruler)" d="M505.2 401.6l8.5-8.5-2.8-2.8-8.5 8.5-28.3-28.3 8.5-8.5-2.9-2.8-8.4 8.5-28.3-28.3 8.5-8.5-2.9-2.8-8.5 8.5-28.2-28.3 28.2-28.3 121.7 121.6-28.3 28.3z" fill="#6f6f6f"/><g fill="#6f6f6f"><path clip-path="url(#clip_frame27_pencil_butt)" d="M386.675 254.138l14.142-14.142 28.284 28.285-14.142 14.142z"/><path clip-path="url(#clip_frame27_pencil)" d="M270.709 370.128L381.018 259.82l28.284 28.284-110.308 110.308z"/><path clip-path="url(#clip_frame27_pencil_tip)" d="M258 411.1l7.1-35.3 28.3 28.2z"/></g><path clip-path="url(#clip_frame27_stick)" d="M400.9 366c11 0 20 9 20 20v140c0 11-9 20-20 20s-20-9-20-20V386c0-11 8.9-20 20-20z" fill="#6f6f6f"/></g><g transform="translate(22400)"><defs><clipPath id="clip_frame28_ruler"><path d="M436.128 276.036l125.489 125.49-28.284 28.284-125.489-125.489z"/></clipPath><clipPath id="clip_frame28_pencil_butt"><path d="M245.12 395.723l158.448-158.448 28.284 28.285-158.447 158.448z"/></clipPath><clipPath id="clip_frame28_pencil"><path d="M245.12 395.723l158.448-158.448 28.284 28.285-158.447 158.448z"/></clipPath><clipPath id="clip_frame28_pencil_tip"><path d="M245.12 395.723l158.448-158.448 28.284 28.285-158.447 158.448z"/></clipPath><clipPath id="clip_frame28_stick"><path d="M380.9 366h40v184.8h-40z"/></clipPath></defs><path d="M613.6 577.6c-51.1 56.2-125.2 91.6-207.7 91.6-154 0-278.9-123.3-278.9-275.3s124.9-275.3 278.9-275.3c86.2 0 163.3 38.6 214.5 99.3" fill="none" stroke="#ff324a" stroke-width="80"/><path clip-path="url(#clip_frame28_ruler)" d="M505.2 401.6l8.5-8.5-2.8-2.8-8.5 8.5-28.3-28.3 8.5-8.5-2.9-2.8-8.4 8.5-28.3-28.3 8.5-8.5-2.9-2.8-8.5 8.5-28.2-28.3 28.2-28.3 121.7 121.6-28.3 28.3z" fill="#6f6f6f"/><g fill="#6f6f6f"><path clip-path="url(#clip_frame28_pencil_butt)" d="M386.675 254.138l14.142-14.142 28.284 28.285-14.142 14.142z"/><path clip-path="url(#clip_frame28_pencil)" d="M270.709 370.128L381.018 259.82l28.284 28.284-110.308 110.308z"/><path clip-path="url(#clip_frame28_pencil_tip)" d="M258 411.1l7.1-35.3 28.3 28.2z"/></g><path clip-path="url(#clip_frame28_stick)" d="M400.9 366c11 0 20 9 20 20v140c0 11-9 20-20 20s-20-9-20-20V386c0-11 8.9-20 20-20z" fill="#6f6f6f"/></g><g transform="translate(23200)"><defs><clipPath id="clip_frame29_ruler"><path d="M436.127 276.036L562.171 402.08l-28.284 28.284-126.044-126.043z"/></clipPath><clipPath id="clip_frame29_pencil_butt"><path d="M244.41 396.433l159.158-159.158 28.284 28.285-159.157 159.158z"/></clipPath><clipPath id="clip_frame29_pencil"><path d="M244.41 396.433l159.158-159.158 28.284 28.285-159.157 159.158z"/></clipPath><clipPath id="clip_frame29_pencil_tip"><path d="M244.41 396.433l159.158-159.158 28.284 28.285-159.157 159.158z"/></clipPath><clipPath id="clip_frame29_stick"><path d="M380.9 366h40v184.8h-40z"/></clipPath></defs><path d="M613.6 577.6c-51.1 56.2-125.2 91.6-207.7 91.6-154 0-278.9-123.3-278.9-275.3s124.9-275.3 278.9-275.3c86.2 0 163.3 38.6 214.5 99.3" fill="none" stroke="#ff324a" stroke-width="80"/><path clip-path="url(#clip_frame29_ruler)" d="M505.2 401.6l8.5-8.5-2.8-2.8-8.5 8.5-28.3-28.3 8.5-8.5-2.9-2.8-8.4 8.5-28.3-28.3 8.5-8.5-2.9-2.8-8.5 8.5-28.2-28.3 28.2-28.3 121.7 121.6-28.3 28.3z" fill="#6f6f6f"/><g fill="#6f6f6f"><path clip-path="url(#clip_frame29_pencil_butt)" d="M386.675 254.138l14.142-14.142 28.284 28.285-14.142 14.142z"/><path clip-path="url(#clip_frame29_pencil)" d="M270.709 370.128L381.018 259.82l28.284 28.284-110.308 110.308z"/><path clip-path="url(#clip_frame29_pencil_tip)" d="M258 411.1l7.1-35.3 28.3 28.2z"/></g><path clip-path="url(#clip_frame29_stick)" d="M400.9 366c11 0 20 9 20 20v140c0 11-9 20-20 20s-20-9-20-20V386c0-11 8.9-20 20-20z" fill="#6f6f6f"/></g><g transform="translate(24000)"><defs><clipPath id="clip_frame30_ruler"><path d="M436.127 276.036l126.218 126.219-28.284 28.284-126.218-126.218z"/></clipPath><clipPath id="clip_frame30_pencil_butt"><path d="M244.186 396.657l159.382-159.382 28.284 28.285-159.381 159.382z"/></clipPath><clipPath id="clip_frame30_pencil"><path d="M244.186 396.657l159.382-159.382 28.284 28.285-159.381 159.382z"/></clipPath><clipPath id="clip_frame30_pencil_tip"><path d="M244.186 396.657l159.382-159.382 28.284 28.285-159.381 159.382z"/></clipPath><clipPath id="clip_frame30_stick"><path d="M380.9 366h40v184.8h-40z"/></clipPath></defs><path d="M613.6 577.6c-51.1 56.2-125.2 91.6-207.7 91.6-154 0-278.9-123.3-278.9-275.3s124.9-275.3 278.9-275.3c86.2 0 163.3 38.6 214.5 99.3" fill="none" stroke="#ff324a" stroke-width="80"/><path clip-path="url(#clip_frame30_ruler)" d="M505.2 401.6l8.5-8.5-2.8-2.8-8.5 8.5-28.3-28.3 8.5-8.5-2.9-2.8-8.4 8.5-28.3-28.3 8.5-8.5-2.9-2.8-8.5 8.5-28.2-28.3 28.2-28.3 121.7 121.6-28.3 28.3z" fill="#6f6f6f"/><g fill="#6f6f6f"><path clip-path="url(#clip_frame30_pencil_butt)" d="M386.675 254.138l14.142-14.142 28.284 28.285-14.142 14.142z"/><path clip-path="url(#clip_frame30_pencil)" d="M270.709 370.128L381.018 259.82l28.284 28.284-110.308 110.308z"/><path clip-path="url(#clip_frame30_pencil_tip)" d="M258 411.1l7.1-35.3 28.3 28.2z"/></g><path clip-path="url(#clip_frame30_stick)" d="M400.9 366c11 0 20 9 20 20v140c0 11-9 20-20 20s-20-9-20-20V386c0-11 8.9-20 20-20z" fill="#6f6f6f"/></g></svg>